<svg width="38" height="38" viewBox="0 0 38 38" fill="none" xmlns="http://www.w3.org/2000/svg">
<path d="M35.1792 11.9201C35.1792 15.046 32.6344 17.591 29.5088 17.591H26.0844C23.4207 17.591 21.1802 15.7431 20.5745 13.2618H17.4295C16.9288 15.3143 15.3134 16.9298 13.261 17.4305V20.5757C15.3134 21.0764 16.9288 22.6919 17.4295 24.7445H20.5745C21.1775 22.2632 23.418 20.4153 26.0844 20.4153H29.5088C32.6344 20.4153 35.1792 22.9603 35.1792 26.0861V29.5107C35.1792 32.6366 32.6344 35.1815 29.5088 35.1815H26.0844C23.4207 35.1815 21.1802 33.3337 20.5745 30.8524H17.4295C16.8265 33.3337 14.586 35.1815 11.9195 35.1815H8.49511C5.36947 35.1815 2.82471 32.6366 2.82471 29.5107V26.0861C2.82471 23.4222 4.67243 21.1815 7.15358 20.5757V17.4305C4.67243 16.8275 2.82471 14.5868 2.82471 11.9201V8.49552C2.82471 5.36966 5.36947 2.82471 8.49511 2.82471H11.9195C14.5832 2.82471 16.8237 4.67256 17.4295 7.15389H20.5745C21.1775 4.67256 23.418 2.82471 26.0844 2.82471H29.5088C32.6344 2.82471 35.1792 5.36966 35.1792 8.49552V11.9201Z" fill="#FF6B4E"/>
<path d="M38 11.9198V8.49516C38 3.81189 34.1912 0.00276625 29.5082 0.00276625H26.0839C23.1297 0.00276625 20.5241 1.51867 19.0028 3.81466C17.4787 1.51591 14.8731 0 11.9189 0H8.49454C3.80885 0 0 3.80913 0 8.49239V11.917C0 14.8714 1.5158 17.4772 3.81162 18.9986C1.5158 20.5228 0 23.1286 0 26.083V29.5076C0 34.1909 3.80885 38 8.49177 38H11.9161C14.8703 38 17.4759 36.4841 18.9972 34.1881C20.5186 36.4841 23.1242 38 26.0783 38H29.5027C34.1856 38 37.9945 34.1909 37.9945 29.5076V26.083C37.9945 23.1286 36.4787 20.5228 34.1828 19.0014C36.4787 17.4799 37.9945 14.8741 37.9945 11.9198H38ZM35.1786 11.9198C35.1786 15.0456 32.6339 17.5906 29.5082 17.5906H26.0839C23.4201 17.5906 21.1796 15.7427 20.5739 13.2614H17.4289C16.9282 15.314 15.3129 16.9295 13.2604 17.4302V20.5754C15.3129 21.0761 16.9282 22.6916 17.4289 24.7441H20.5739C21.1769 22.2628 23.4174 20.4149 26.0839 20.4149H29.5082C32.6339 20.4149 35.1786 22.9599 35.1786 26.0858V29.5104C35.1786 32.6362 32.6339 35.1812 29.5082 35.1812H26.0839C23.4201 35.1812 21.1796 33.3333 20.5739 30.852H17.4289C16.8259 33.3333 14.5854 35.1812 11.9189 35.1812H8.49454C5.3689 35.1812 2.82414 32.6362 2.82414 29.5104V26.0858C2.82414 23.4219 4.67186 21.1812 7.15301 20.5754V17.4302C4.67186 16.8271 2.82414 14.5864 2.82414 11.9198V8.49516C2.82414 5.36929 5.3689 2.82434 8.49454 2.82434H11.9189C14.5826 2.82434 16.8231 4.6722 17.4289 7.15353H20.5739C21.1769 4.6722 23.4174 2.82434 26.0839 2.82434H29.5082C32.6339 2.82434 35.1786 5.36929 35.1786 8.49516V11.9198Z" fill="#2F0D30"/>
</svg>
