<svg width="523" height="123" viewBox="0 0 523 123" fill="none" xmlns="http://www.w3.org/2000/svg">
<path d="M29.194 89.8618V107.652H49.305V89.8618L76.8416 53.5073H53.6366L39.2495 73.6183L24.8624 53.5073H1.65741L29.194 89.8618ZM103.901 108.426C127.648 108.426 137.935 99.2985 137.935 80.5025C137.935 61.7838 127.648 52.7338 103.901 52.7338C80.0776 52.7338 69.8674 61.7064 69.8674 80.5025C69.8674 99.3759 80.0776 108.426 103.901 108.426ZM103.901 91.4088C92.0669 91.4088 89.9784 86.3037 89.9784 80.5025C89.9784 74.7786 91.9895 69.7508 103.901 69.7508C115.813 69.7508 117.824 74.8559 117.824 80.5025C117.824 86.2264 115.736 91.4088 103.901 91.4088ZM208.354 80.5025V53.5073H188.243V80.5025C188.243 86.2264 186.155 91.4088 174.32 91.4088C162.486 91.4088 160.397 86.3037 160.397 80.5025V53.5073H140.286V80.5025C140.286 99.3759 150.496 108.426 174.32 108.426C198.067 108.426 208.354 99.2985 208.354 80.5025ZM274.714 74.2371C274.714 62.1705 266.283 53.5073 253.985 53.5073H211.442V107.652H231.553V94.9669H243.388L250.891 107.652H274.714L265.123 92.105C271.079 88.6242 274.714 82.1268 274.714 74.2371ZM231.553 70.5243H250.117C252.128 70.5243 254.603 70.5243 254.603 74.2371C254.603 77.9499 252.128 77.9499 250.117 77.9499H231.553V70.5243ZM275.479 88.5469C275.479 104.636 287.855 108.426 310.055 108.426C332.254 108.426 344.63 104.636 344.63 89.7071C344.63 75.5521 331.403 74.0824 310.055 73.2316C298.298 72.7675 296.364 72.8448 296.364 70.7564C296.364 68.6679 298.298 68.2038 307.734 68.2038C317.558 68.2038 322.199 68.8226 322.199 71.6846H342.31C342.31 57.8389 330.398 52.7338 309.281 52.7338C287.933 52.7338 276.253 57.8389 276.253 69.7508C276.253 82.3589 285.612 86.3811 310.055 87.1546C322.74 87.5413 324.519 87.8507 324.519 90.1712C324.519 92.1823 322.74 92.9558 310.828 92.9558C298.066 92.9558 295.59 91.1768 295.59 88.5469H275.479ZM404.195 68.9773V53.5073H346.956V107.652H404.195V92.1823H367.067V87.1546H404.195V74.0051H367.067V68.9773H404.195ZM426.59 90.6353V53.5073H406.479V107.652H462.171V90.6353H426.59ZM521.73 70.5243V53.5073H464.491V107.652H484.602V93.3426H517.089V76.3256H484.602V70.5243H521.73Z" fill="#FF6B4E"/>
<path d="M29.194 89.8618H29.694V89.6939L29.5926 89.5599L29.194 89.8618ZM29.194 107.652H28.694V108.152H29.194V107.652ZM49.305 107.652V108.152H49.805V107.652H49.305ZM49.305 89.8618L48.9064 89.5599L48.805 89.6939V89.8618H49.305ZM76.8416 53.5073L77.2402 53.8092L77.8476 53.0073H76.8416V53.5073ZM53.6366 53.5073V53.0073H53.3795L53.23 53.2164L53.6366 53.5073ZM39.2495 73.6183L38.8429 73.9093L39.2495 74.4777L39.6562 73.9093L39.2495 73.6183ZM24.8624 53.5073L25.2691 53.2164L25.1195 53.0073H24.8624V53.5073ZM1.65741 53.5073V53.0073H0.651447L1.25884 53.8092L1.65741 53.5073ZM28.694 89.8618V107.652H29.694V89.8618H28.694ZM29.194 108.152H49.305V107.152H29.194V108.152ZM49.805 107.652V89.8618H48.805V107.652H49.805ZM49.7036 90.1637L77.2402 53.8092L76.443 53.2054L48.9064 89.5599L49.7036 90.1637ZM76.8416 53.0073H53.6366V54.0073H76.8416V53.0073ZM53.23 53.2164L38.8429 73.3274L39.6562 73.9093L54.0433 53.7983L53.23 53.2164ZM39.6562 73.3274L25.2691 53.2164L24.4558 53.7983L38.8429 73.9093L39.6562 73.3274ZM24.8624 53.0073H1.65741V54.0073H24.8624V53.0073ZM1.25884 53.8092L28.7954 90.1637L29.5926 89.5599L2.05598 53.2054L1.25884 53.8092ZM103.901 108.926C115.823 108.926 124.472 106.638 130.144 101.896C135.836 97.1384 138.435 89.9911 138.435 80.5025H137.435C137.435 89.81 134.891 96.6243 129.503 101.129C124.094 105.65 115.727 107.926 103.901 107.926V108.926ZM138.435 80.5025C138.435 71.0519 135.835 63.9428 130.143 59.214C124.471 54.5024 115.822 52.2338 103.901 52.2338V53.2338C115.727 53.2338 124.095 55.4903 129.504 59.9833C134.892 64.4592 137.435 71.2344 137.435 80.5025H138.435ZM103.901 52.2338C91.9435 52.2338 83.2938 54.4825 77.6311 59.185C71.9474 63.9048 69.3674 71.0149 69.3674 80.5025H70.3674C70.3674 71.1941 72.8926 64.4198 78.2699 59.9543C83.6682 55.4714 92.0355 53.2338 103.901 53.2338V52.2338ZM69.3674 80.5025C69.3674 90.0281 71.947 97.1763 77.6299 101.925C83.2926 106.658 91.9427 108.926 103.901 108.926V107.926C92.0363 107.926 83.6694 105.669 78.2711 101.158C72.893 96.6637 70.3674 89.8502 70.3674 80.5025H69.3674ZM103.901 90.9088C98.0398 90.9088 94.7201 89.6421 92.8555 87.7776C90.9952 85.9172 90.4784 83.3572 90.4784 80.5025H89.4784C89.4784 83.449 90.0059 86.3422 92.1484 88.4847C94.2867 90.623 97.9285 91.9088 103.901 91.9088V90.9088ZM90.4784 80.5025C90.4784 77.6846 90.9766 75.1657 92.8248 73.3355C94.6788 71.4995 97.9983 70.2508 103.901 70.2508V69.2508C97.8926 69.2508 94.2506 70.5161 92.1211 72.6249C89.9858 74.7395 89.4784 77.5965 89.4784 80.5025H90.4784ZM103.901 70.2508C109.803 70.2508 113.123 71.518 114.977 73.3636C116.827 75.2043 117.324 77.7247 117.324 80.5025H118.324C118.324 77.6338 117.816 74.7783 115.683 72.6548C113.554 70.5363 109.912 69.2508 103.901 69.2508V70.2508ZM117.324 80.5025C117.324 83.3172 116.808 85.8787 114.946 87.7494C113.081 89.6237 109.761 90.9088 103.901 90.9088V91.9088C109.876 91.9088 113.518 90.6028 115.655 88.4548C117.796 86.3034 118.324 83.4117 118.324 80.5025H117.324ZM208.354 53.5073H208.854V53.0073H208.354V53.5073ZM188.243 53.5073V53.0073H187.743V53.5073H188.243ZM160.397 53.5073H160.897V53.0073H160.397V53.5073ZM140.286 53.5073V53.0073H139.786V53.5073H140.286ZM208.854 80.5025V53.5073H207.854V80.5025H208.854ZM208.354 53.0073H188.243V54.0073H208.354V53.0073ZM187.743 53.5073V80.5025H188.743V53.5073H187.743ZM187.743 80.5025C187.743 83.3172 187.227 85.8787 185.365 87.7494C183.5 89.6237 180.18 90.9088 174.32 90.9088V91.9088C180.295 91.9088 183.936 90.6028 186.074 88.4548C188.215 86.3034 188.743 83.4117 188.743 80.5025H187.743ZM174.32 90.9088C168.459 90.9088 165.139 89.6421 163.274 87.7776C161.414 85.9172 160.897 83.3572 160.897 80.5025H159.897C159.897 83.449 160.425 86.3422 162.567 88.4847C164.705 90.623 168.347 91.9088 174.32 91.9088V90.9088ZM160.897 80.5025V53.5073H159.897V80.5025H160.897ZM160.397 53.0073H140.286V54.0073H160.397V53.0073ZM139.786 53.5073V80.5025H140.786V53.5073H139.786ZM139.786 80.5025C139.786 90.0281 142.366 97.1763 148.049 101.925C153.711 106.658 162.361 108.926 174.32 108.926V107.926C162.455 107.926 154.088 105.669 148.69 101.158C143.312 96.6637 140.786 89.8502 140.786 80.5025H139.786ZM174.32 108.926C186.241 108.926 194.891 106.638 200.563 101.896C206.254 97.1384 208.854 89.9911 208.854 80.5025H207.854C207.854 89.81 205.31 96.6243 199.921 101.129C194.513 105.65 186.145 107.926 174.32 107.926V108.926ZM211.442 53.5073V53.0073H210.942V53.5073H211.442ZM211.442 107.652H210.942V108.152H211.442V107.652ZM231.553 107.652V108.152H232.053V107.652H231.553ZM231.553 94.9669V94.4669H231.053V94.9669H231.553ZM243.388 94.9669L243.818 94.7124L243.673 94.4669H243.388V94.9669ZM250.891 107.652L250.46 107.907L250.605 108.152H250.891V107.652ZM274.714 107.652V108.152H275.61L275.14 107.39L274.714 107.652ZM265.123 92.105L264.871 91.6733L264.429 91.9317L264.697 92.3675L265.123 92.105ZM231.553 70.5243V70.0243H231.053V70.5243H231.553ZM231.553 77.9499H231.053V78.4499H231.553V77.9499ZM275.214 74.2371C275.214 68.0848 273.063 62.7716 269.316 58.9951C265.569 55.218 260.255 53.0073 253.985 53.0073V54.0073C260.013 54.0073 265.064 56.1283 268.607 59.6994C272.15 63.2711 274.214 68.3229 274.214 74.2371H275.214ZM253.985 53.0073H211.442V54.0073H253.985V53.0073ZM210.942 53.5073V107.652H211.942V53.5073H210.942ZM211.442 108.152H231.553V107.152H211.442V108.152ZM232.053 107.652V94.9669H231.053V107.652H232.053ZM231.553 95.4669H243.388V94.4669H231.553V95.4669ZM242.957 95.2215L250.46 107.907L251.321 107.398L243.818 94.7124L242.957 95.2215ZM250.891 108.152H274.714V107.152H250.891V108.152ZM275.14 107.39L265.549 91.8425L264.697 92.3675L274.289 107.915L275.14 107.39ZM265.375 92.5367C271.5 88.9573 275.214 82.286 275.214 74.2371H274.214C274.214 81.9677 270.658 88.2912 264.871 91.6733L265.375 92.5367ZM231.553 71.0243H250.117V70.0243H231.553V71.0243ZM250.117 71.0243C251.156 71.0243 252.14 71.0356 252.879 71.4296C253.229 71.6161 253.525 71.8913 253.739 72.3159C253.957 72.7485 254.103 73.3616 254.103 74.2371H255.103C255.103 73.2563 254.94 72.4771 254.632 71.8654C254.319 71.2459 253.87 70.8249 253.35 70.5473C252.348 70.0131 251.09 70.0243 250.117 70.0243V71.0243ZM254.103 74.2371C254.103 75.1127 253.957 75.7258 253.739 76.1583C253.525 76.583 253.229 76.8582 252.879 77.0447C252.14 77.4387 251.156 77.4499 250.117 77.4499V78.4499C251.09 78.4499 252.348 78.4612 253.35 77.927C253.87 77.6494 254.319 77.2284 254.632 76.6089C254.94 75.9972 255.103 75.218 255.103 74.2371H254.103ZM250.117 77.4499H231.553V78.4499H250.117V77.4499ZM232.053 77.9499V70.5243H231.053V77.9499H232.053ZM275.479 88.5469V88.0469H274.979V88.5469H275.479ZM310.055 73.2316L310.075 72.732L310.075 72.732L310.055 73.2316ZM322.199 71.6846H321.699V72.1846H322.199V71.6846ZM342.31 71.6846V72.1846H342.81V71.6846H342.31ZM310.055 87.1546L310.039 87.6543L310.04 87.6544L310.055 87.1546ZM295.59 88.5469H296.09V88.0469H295.59V88.5469ZM274.979 88.5469C274.979 92.6325 275.765 95.9777 277.327 98.6899C278.89 101.406 281.21 103.45 284.217 104.966C290.202 107.983 298.953 108.926 310.055 108.926V107.926C298.958 107.926 290.421 106.974 284.667 104.073C281.805 102.63 279.644 100.711 278.193 98.191C276.741 95.6675 275.979 92.5057 275.979 88.5469H274.979ZM310.055 108.926C321.159 108.926 329.904 107.982 335.884 105.116C338.887 103.676 341.209 101.744 342.776 99.1915C344.342 96.6408 345.13 93.5089 345.13 89.7071H344.13C344.13 93.3697 343.372 96.3097 341.924 98.6683C340.476 101.025 338.317 102.84 335.451 104.214C329.693 106.974 321.15 107.926 310.055 107.926V108.926ZM345.13 89.7071C345.13 86.0882 344.284 83.2313 342.633 80.9848C340.985 78.7417 338.571 77.156 335.524 76.0122C329.459 73.7352 320.728 73.1566 310.075 72.732L310.035 73.7312C320.731 74.1575 329.287 74.739 335.173 76.9484C338.101 78.0477 340.328 79.5367 341.827 81.5769C343.324 83.6136 344.13 86.2485 344.13 89.7071H345.13ZM310.075 72.732C304.171 72.4989 300.793 72.403 298.876 72.1089C297.91 71.9605 297.417 71.7738 297.163 71.5694C296.959 71.4053 296.864 71.1928 296.864 70.7564H295.864C295.864 71.3642 296.01 71.9252 296.536 72.3485C297.012 72.7315 297.738 72.946 298.725 73.0973C300.714 73.4027 304.182 73.5001 310.035 73.7312L310.075 72.732ZM296.864 70.7564C296.864 70.3161 296.963 70.0396 297.172 69.8255C297.4 69.5908 297.824 69.3652 298.621 69.1846C300.219 68.8223 303.001 68.7038 307.734 68.7038V67.7038C303.031 67.7038 300.128 67.8174 298.4 68.2093C297.533 68.4058 296.884 68.6878 296.456 69.1275C296.007 69.5878 295.864 70.1524 295.864 70.7564H296.864ZM307.734 68.7038C312.651 68.7038 316.217 68.8601 318.546 69.3599C319.711 69.61 320.512 69.9355 321.012 70.3271C321.487 70.6984 321.699 71.1317 321.699 71.6846H322.699C322.699 70.8065 322.331 70.0892 321.628 69.5395C320.952 69.0102 319.978 68.6444 318.755 68.3821C316.308 67.857 312.641 67.7038 307.734 67.7038V68.7038ZM322.199 72.1846H342.31V71.1846H322.199V72.1846ZM342.81 71.6846C342.81 68.1499 342.049 65.1427 340.548 62.6263C339.047 60.1097 336.825 58.1149 333.95 56.5763C328.221 53.5093 319.861 52.2338 309.281 52.2338V53.2338C319.819 53.2338 327.973 54.511 333.478 57.4579C336.222 58.9263 338.297 60.8038 339.689 63.1385C341.082 65.4734 341.81 68.2965 341.81 71.6846H342.81ZM309.281 52.2338C298.584 52.2338 290.233 53.51 284.54 56.3272C281.685 57.7396 279.482 59.5474 277.995 61.7902C276.505 64.0359 275.753 66.6873 275.753 69.7508H276.753C276.753 66.8584 277.461 64.4047 278.828 62.343C280.198 60.2784 282.249 58.5764 284.983 57.2235C290.467 54.5102 298.63 53.2338 309.281 53.2338V52.2338ZM275.753 69.7508C275.753 72.9638 276.349 75.6728 277.665 77.9321C278.983 80.1948 280.999 81.965 283.766 83.3385C289.268 86.0702 297.819 87.2676 310.039 87.6543L310.071 86.6548C297.848 86.268 289.498 85.0676 284.21 82.4428C281.582 81.1381 279.73 79.4904 278.529 77.4288C277.327 75.3637 276.753 72.842 276.753 69.7508H275.753ZM310.04 87.6544C316.402 87.8483 319.966 88.0226 321.944 88.4276C322.936 88.6307 323.434 88.8754 323.691 89.1306C323.921 89.3582 324.019 89.6546 324.019 90.1712H325.019C325.019 89.5277 324.895 88.9152 324.395 88.42C323.923 87.9525 323.183 87.6606 322.144 87.4479C320.061 87.0214 316.393 86.8476 310.07 86.6548L310.04 87.6544ZM324.019 90.1712C324.019 90.5936 323.929 90.8719 323.7 91.1024C323.447 91.3575 322.964 91.6154 322.029 91.8304C320.16 92.2603 316.794 92.4558 310.828 92.4558V93.4558C316.775 93.4558 320.255 93.2646 322.253 92.805C323.252 92.5752 323.957 92.2627 324.41 91.8071C324.887 91.327 325.019 90.7544 325.019 90.1712H324.019ZM310.828 92.4558C304.45 92.4558 300.716 92.0087 298.588 91.2656C297.532 90.8965 296.918 90.4698 296.566 90.032C296.223 89.6047 296.09 89.1199 296.09 88.5469H295.09C295.09 89.2888 295.268 90.0126 295.787 90.6586C296.298 91.294 297.101 91.8052 298.258 92.2096C300.559 93.0134 304.444 93.4558 310.828 93.4558V92.4558ZM295.59 88.0469H275.479V89.0469H295.59V88.0469ZM404.195 68.9773V69.4773H404.695V68.9773H404.195ZM404.195 53.5073H404.695V53.0073H404.195V53.5073ZM346.956 53.5073V53.0073H346.456V53.5073H346.956ZM346.956 107.652H346.456V108.152H346.956V107.652ZM404.195 107.652V108.152H404.695V107.652H404.195ZM404.195 92.1823H404.695V91.6823H404.195V92.1823ZM367.067 92.1823H366.567V92.6823H367.067V92.1823ZM367.067 87.1546V86.6546H366.567V87.1546H367.067ZM404.195 87.1546V87.6546H404.695V87.1546H404.195ZM404.195 74.0051H404.695V73.5051H404.195V74.0051ZM367.067 74.0051H366.567V74.5051H367.067V74.0051ZM367.067 68.9773V68.4773H366.567V68.9773H367.067ZM404.695 68.9773V53.5073H403.695V68.9773H404.695ZM404.195 53.0073H346.956V54.0073H404.195V53.0073ZM346.456 53.5073V107.652H347.456V53.5073H346.456ZM346.956 108.152H404.195V107.152H346.956V108.152ZM404.695 107.652V92.1823H403.695V107.652H404.695ZM404.195 91.6823H367.067V92.6823H404.195V91.6823ZM367.567 92.1823V87.1546H366.567V92.1823H367.567ZM367.067 87.6546H404.195V86.6546H367.067V87.6546ZM404.695 87.1546V74.0051H403.695V87.1546H404.695ZM404.195 73.5051H367.067V74.5051H404.195V73.5051ZM367.567 74.0051V68.9773H366.567V74.0051H367.567ZM367.067 69.4773H404.195V68.4773H367.067V69.4773ZM426.59 90.6353H426.09V91.1353H426.59V90.6353ZM426.59 53.5073H427.09V53.0073H426.59V53.5073ZM406.479 53.5073V53.0073H405.979V53.5073H406.479ZM406.479 107.652H405.979V108.152H406.479V107.652ZM462.171 107.652V108.152H462.671V107.652H462.171ZM462.171 90.6353H462.671V90.1353H462.171V90.6353ZM427.09 90.6353V53.5073H426.09V90.6353H427.09ZM426.59 53.0073H406.479V54.0073H426.59V53.0073ZM405.979 53.5073V107.652H406.979V53.5073H405.979ZM406.479 108.152H462.171V107.152H406.479V108.152ZM462.671 107.652V90.6353H461.671V107.652H462.671ZM462.171 90.1353H426.59V91.1353H462.171V90.1353ZM521.73 70.5243V71.0243H522.23V70.5243H521.73ZM521.73 53.5073H522.23V53.0073H521.73V53.5073ZM464.491 53.5073V53.0073H463.991V53.5073H464.491ZM464.491 107.652H463.991V108.152H464.491V107.652ZM484.602 107.652V108.152H485.102V107.652H484.602ZM484.602 93.3426V92.8426H484.102V93.3426H484.602ZM517.089 93.3426V93.8426H517.589V93.3426H517.089ZM517.089 76.3256H517.589V75.8256H517.089V76.3256ZM484.602 76.3256H484.102V76.8256H484.602V76.3256ZM484.602 70.5243V70.0243H484.102V70.5243H484.602ZM522.23 70.5243V53.5073H521.23V70.5243H522.23ZM521.73 53.0073H464.491V54.0073H521.73V53.0073ZM463.991 53.5073V107.652H464.991V53.5073H463.991ZM464.491 108.152H484.602V107.152H464.491V108.152ZM485.102 107.652V93.3426H484.102V107.652H485.102ZM484.602 93.8426H517.089V92.8426H484.602V93.8426ZM517.589 93.3426V76.3256H516.589V93.3426H517.589ZM517.089 75.8256H484.602V76.8256H517.089V75.8256ZM485.102 76.3256V70.5243H484.102V76.3256H485.102ZM484.602 71.0243H521.73V70.0243H484.602V71.0243Z" fill="#FF6B4E"/>
<path d="M84.8706 22.9773V23.4773H85.3706V22.9773H84.8706ZM84.8706 7.50734H85.3706V7.00734H84.8706V7.50734ZM27.6315 7.50734V7.00734H27.1315V7.50734H27.6315ZM27.6315 61.6523H27.1315V62.1523H27.6315V61.6523ZM84.8706 61.6523V62.1523H85.3706V61.6523H84.8706ZM84.8706 46.1823H85.3706V45.6823H84.8706V46.1823ZM47.7425 46.1823H47.2425V46.6823H47.7425V46.1823ZM47.7425 41.1546V40.6546H47.2425V41.1546H47.7425ZM84.8706 41.1546V41.6546H85.3706V41.1546H84.8706ZM84.8706 28.0051H85.3706V27.5051H84.8706V28.0051ZM47.7425 28.0051H47.2425V28.5051H47.7425V28.0051ZM47.7425 22.9773V22.4773H47.2425V22.9773H47.7425ZM85.3706 22.9773V7.50734H84.3706V22.9773H85.3706ZM84.8706 7.00734H27.6315V8.00734H84.8706V7.00734ZM27.1315 7.50734V61.6523H28.1315V7.50734H27.1315ZM27.6315 62.1523H84.8706V61.1523H27.6315V62.1523ZM85.3706 61.6523V46.1823H84.3706V61.6523H85.3706ZM84.8706 45.6823H47.7425V46.6823H84.8706V45.6823ZM48.2425 46.1823V41.1546H47.2425V46.1823H48.2425ZM47.7425 41.6546H84.8706V40.6546H47.7425V41.6546ZM85.3706 41.1546V28.0051H84.3706V41.1546H85.3706ZM84.8706 27.5051H47.7425V28.5051H84.8706V27.5051ZM48.2425 28.0051V22.9773H47.2425V28.0051H48.2425ZM47.7425 23.4773H84.8706V22.4773H47.7425V23.4773ZM86.3813 61.6523L86.018 61.3088L85.2202 62.1523H86.3813V61.6523ZM112.68 61.6523V62.1523H112.906L113.056 61.9827L112.68 61.6523ZM126.294 46.1823L126.669 45.852L126.294 45.4255L125.919 45.852L126.294 46.1823ZM139.907 61.6523L139.532 61.9827L139.681 62.1523H139.907V61.6523ZM166.206 61.6523V62.1523H167.368L166.57 61.3088L166.206 61.6523ZM140.604 34.5798L140.24 34.2363L139.915 34.5798L140.24 34.9234L140.604 34.5798ZM166.206 7.50734L166.57 7.8509L167.368 7.00734H166.206V7.50734ZM139.907 7.50734V7.00734H139.681L139.532 7.17703L139.907 7.50734ZM126.294 22.9773L125.919 23.3077L126.294 23.7342L126.669 23.3077L126.294 22.9773ZM112.68 7.50734L113.056 7.17703L112.906 7.00734H112.68V7.50734ZM86.3813 7.50734V7.00734H85.2202L86.018 7.8509L86.3813 7.50734ZM111.984 34.5798L112.347 34.9234L112.672 34.5798L112.347 34.2363L111.984 34.5798ZM86.3813 62.1523H112.68V61.1523H86.3813V62.1523ZM113.056 61.9827L126.669 46.5127L125.919 45.852L112.305 61.322L113.056 61.9827ZM125.919 46.5127L139.532 61.9827L140.283 61.322L126.669 45.852L125.919 46.5127ZM139.907 62.1523H166.206V61.1523H139.907V62.1523ZM166.57 61.3088L140.967 34.2363L140.24 34.9234L165.843 61.9959L166.57 61.3088ZM140.967 34.9234L166.57 7.8509L165.843 7.16379L140.24 34.2363L140.967 34.9234ZM166.206 7.00734H139.907V8.00734H166.206V7.00734ZM139.532 7.17703L125.919 22.647L126.669 23.3077L140.283 7.83766L139.532 7.17703ZM126.669 22.647L113.056 7.17703L112.305 7.83766L125.919 23.3077L126.669 22.647ZM112.68 7.00734H86.3813V8.00734H112.68V7.00734ZM86.018 7.8509L111.621 34.9234L112.347 34.2363L86.7446 7.16379L86.018 7.8509ZM111.621 34.2363L86.018 61.3088L86.7446 61.9959L112.347 34.9234L111.621 34.2363ZM167.753 7.50734V7.00734H167.253V7.50734H167.753ZM167.753 61.6523H167.253V62.1523H167.753V61.6523ZM187.864 61.6523V62.1523H188.364V61.6523H187.864ZM187.864 48.9669V48.4669H187.364V48.9669H187.864ZM187.864 31.9499H187.364V32.4499H187.864V31.9499ZM187.864 24.5243V24.0243H187.364V24.5243H187.864ZM210.295 7.00734H167.753V8.00734H210.295V7.00734ZM167.253 7.50734V61.6523H168.253V7.50734H167.253ZM167.753 62.1523H187.864V61.1523H167.753V62.1523ZM188.364 61.6523V48.9669H187.364V61.6523H188.364ZM187.864 49.4669H210.295V48.4669H187.864V49.4669ZM210.295 49.4669C216.566 49.4669 221.88 47.2563 225.627 43.4792C229.374 39.7026 231.525 34.3895 231.525 28.2371H230.525C230.525 34.1514 228.461 39.2031 224.917 42.7749C221.374 46.346 216.324 48.4669 210.295 48.4669V49.4669ZM231.525 28.2371C231.525 22.0848 229.374 16.7716 225.627 12.9951C221.88 9.218 216.566 7.00734 210.295 7.00734V8.00734C216.324 8.00734 221.374 10.1283 224.917 13.6994C228.461 17.2711 230.525 22.3229 230.525 28.2371H231.525ZM206.428 31.4499H187.864V32.4499H206.428V31.4499ZM188.364 31.9499V24.5243H187.364V31.9499H188.364ZM187.864 25.0243H206.428V24.0243H187.864V25.0243ZM206.428 25.0243C207.467 25.0243 208.451 25.0356 209.19 25.4296C209.54 25.6161 209.835 25.8913 210.05 26.3159C210.268 26.7485 210.414 27.3616 210.414 28.2371H211.414C211.414 27.2563 211.251 26.4771 210.942 25.8654C210.63 25.2459 210.181 24.8249 209.66 24.5473C208.659 24.0131 207.4 24.0243 206.428 24.0243V25.0243ZM210.414 28.2371C210.414 29.1127 210.268 29.7258 210.05 30.1583C209.835 30.583 209.54 30.8582 209.19 31.0447C208.451 31.4387 207.467 31.4499 206.428 31.4499V32.4499C207.4 32.4499 208.659 32.4612 209.66 31.927C210.181 31.6494 210.63 31.2284 210.942 30.6089C211.251 29.9972 211.414 29.218 211.414 28.2371H210.414ZM233.319 7.50734V7.00734H232.819V7.50734H233.319ZM233.319 61.6523H232.819V62.1523H233.319V61.6523ZM253.43 61.6523V62.1523H253.93V61.6523H253.43ZM253.43 48.9669V48.4669H252.93V48.9669H253.43ZM265.265 48.9669L265.695 48.7124L265.55 48.4669H265.265V48.9669ZM272.768 61.6523L272.337 61.9069L272.482 62.1523H272.768V61.6523ZM296.591 61.6523V62.1523H297.487L297.017 61.3898L296.591 61.6523ZM287 46.105L286.748 45.6733L286.306 45.9317L286.574 46.3675L287 46.105ZM253.43 24.5243V24.0243H252.93V24.5243H253.43ZM253.43 31.9499H252.93V32.4499H253.43V31.9499ZM297.091 28.2371C297.091 22.0848 294.94 16.7716 291.193 12.9951C287.446 9.218 282.132 7.00734 275.862 7.00734V8.00734C281.89 8.00734 286.941 10.1283 290.484 13.6994C294.027 17.2711 296.091 22.3229 296.091 28.2371H297.091ZM275.862 7.00734H233.319V8.00734H275.862V7.00734ZM232.819 7.50734V61.6523H233.819V7.50734H232.819ZM233.319 62.1523H253.43V61.1523H233.319V62.1523ZM253.93 61.6523V48.9669H252.93V61.6523H253.93ZM253.43 49.4669H265.265V48.4669H253.43V49.4669ZM264.834 49.2215L272.337 61.9069L273.198 61.3978L265.695 48.7124L264.834 49.2215ZM272.768 62.1523H296.591V61.1523H272.768V62.1523ZM297.017 61.3898L287.426 45.8425L286.574 46.3675L296.166 61.9149L297.017 61.3898ZM287.252 46.5367C293.377 42.9573 297.091 36.286 297.091 28.2371H296.091C296.091 35.9677 292.535 42.2912 286.748 45.6733L287.252 46.5367ZM253.43 25.0243H271.994V24.0243H253.43V25.0243ZM271.994 25.0243C273.033 25.0243 274.017 25.0356 274.756 25.4296C275.106 25.6161 275.402 25.8913 275.616 26.3159C275.834 26.7485 275.98 27.3616 275.98 28.2371H276.98C276.98 27.2563 276.817 26.4771 276.509 25.8654C276.196 25.2459 275.747 24.8249 275.227 24.5473C274.225 24.0131 272.967 24.0243 271.994 24.0243V25.0243ZM275.98 28.2371C275.98 29.1127 275.834 29.7258 275.616 30.1583C275.402 30.583 275.106 30.8582 274.756 31.0447C274.017 31.4387 273.033 31.4499 271.994 31.4499V32.4499C272.967 32.4499 274.225 32.4612 275.227 31.927C275.747 31.6494 276.196 31.2284 276.509 30.6089C276.817 29.9972 276.98 29.218 276.98 28.2371H275.98ZM271.994 31.4499H253.43V32.4499H271.994V31.4499ZM253.93 31.9499V24.5243H252.93V31.9499H253.93ZM356.124 22.9773V23.4773H356.624V22.9773H356.124ZM356.124 7.50734H356.624V7.00734H356.124V7.50734ZM298.885 7.50734V7.00734H298.385V7.50734H298.885ZM298.885 61.6523H298.385V62.1523H298.885V61.6523ZM356.124 61.6523V62.1523H356.624V61.6523H356.124ZM356.124 46.1823H356.624V45.6823H356.124V46.1823ZM318.996 46.1823H318.496V46.6823H318.996V46.1823ZM318.996 41.1546V40.6546H318.496V41.1546H318.996ZM356.124 41.1546V41.6546H356.624V41.1546H356.124ZM356.124 28.0051H356.624V27.5051H356.124V28.0051ZM318.996 28.0051H318.496V28.5051H318.996V28.0051ZM318.996 22.9773V22.4773H318.496V22.9773H318.996ZM356.624 22.9773V7.50734H355.624V22.9773H356.624ZM356.124 7.00734H298.885V8.00734H356.124V7.00734ZM298.385 7.50734V61.6523H299.385V7.50734H298.385ZM298.885 62.1523H356.124V61.1523H298.885V62.1523ZM356.624 61.6523V46.1823H355.624V61.6523H356.624ZM356.124 45.6823H318.996V46.6823H356.124V45.6823ZM319.496 46.1823V41.1546H318.496V46.1823H319.496ZM318.996 41.6546H356.124V40.6546H318.996V41.6546ZM356.624 41.1546V28.0051H355.624V41.1546H356.624ZM356.124 27.5051H318.996V28.5051H356.124V27.5051ZM319.496 28.0051V22.9773H318.496V28.0051H319.496ZM318.996 23.4773H356.124V22.4773H318.996V23.4773ZM357.635 42.5469V42.0469H357.135V42.5469H357.635ZM392.21 27.2316L392.23 26.732L392.23 26.732L392.21 27.2316ZM404.354 25.6846H403.854V26.1846H404.354V25.6846ZM424.465 25.6846V26.1846H424.965V25.6846H424.465ZM392.21 41.1546L392.195 41.6543L392.195 41.6544L392.21 41.1546ZM377.746 42.5469H378.246V42.0469H377.746V42.5469ZM357.135 42.5469C357.135 46.6325 357.921 49.9777 359.482 52.6899C361.046 55.4056 363.366 57.4504 366.373 58.9661C372.357 61.983 381.108 62.9258 392.21 62.9258V61.9258C381.113 61.9258 372.577 60.9737 366.823 58.0732C363.961 56.6303 361.8 54.7109 360.349 52.191C358.896 49.6675 358.135 46.5057 358.135 42.5469H357.135ZM392.21 62.9258C403.314 62.9258 412.059 61.9823 418.039 59.1156C421.042 57.6759 423.364 55.7437 424.931 53.1915C426.497 50.6408 427.286 47.5089 427.286 43.7071H426.286C426.286 47.3697 425.527 50.3097 424.079 52.6683C422.632 55.0254 420.473 56.8399 417.607 58.2138C411.849 60.9743 403.306 61.9258 392.21 61.9258V62.9258ZM427.286 43.7071C427.286 40.0882 426.439 37.2313 424.789 34.9848C423.14 32.7417 420.727 31.156 417.68 30.0122C411.614 27.7352 402.883 27.1566 392.23 26.732L392.191 27.7312C402.886 28.1575 411.443 28.739 417.328 30.9484C420.257 32.0477 422.484 33.5367 423.983 35.5769C425.479 37.6136 426.286 40.2485 426.286 43.7071H427.286ZM392.23 26.732C386.327 26.4989 382.948 26.403 381.032 26.1089C380.065 25.9605 379.573 25.7738 379.319 25.5694C379.115 25.4053 379.02 25.1928 379.02 24.7564H378.02C378.02 25.3642 378.166 25.9252 378.692 26.3485C379.168 26.7315 379.894 26.946 380.88 27.0973C382.87 27.4027 386.337 27.5001 392.191 27.7312L392.23 26.732ZM379.02 24.7564C379.02 24.3161 379.118 24.0396 379.327 23.8255C379.556 23.5908 379.98 23.3652 380.777 23.1846C382.374 22.8223 385.157 22.7038 389.89 22.7038V21.7038C385.186 21.7038 382.284 21.8174 380.555 22.2093C379.689 22.4058 379.04 22.6878 378.611 23.1275C378.162 23.5878 378.02 24.1524 378.02 24.7564H379.02ZM389.89 22.7038C394.807 22.7038 398.372 22.8601 400.701 23.3599C401.867 23.61 402.667 23.9355 403.168 24.3271C403.642 24.6984 403.854 25.1317 403.854 25.6846H404.854C404.854 24.8065 404.486 24.0892 403.784 23.5395C403.107 23.0102 402.133 22.6444 400.911 22.3821C398.463 21.857 394.796 21.7038 389.89 21.7038V22.7038ZM404.354 26.1846H424.465V25.1846H404.354V26.1846ZM424.965 25.6846C424.965 22.1499 424.204 19.1427 422.704 16.6263C421.203 14.1097 418.98 12.1149 416.106 10.5763C410.376 7.50926 402.016 6.23384 391.437 6.23384V7.23384C401.974 7.23384 410.129 8.51097 415.634 11.4579C418.377 12.9263 420.452 14.8038 421.845 17.1385C423.237 19.4734 423.965 22.2965 423.965 25.6846H424.965ZM391.437 6.23384C380.74 6.23384 372.389 7.51004 366.695 10.3272C363.841 11.7396 361.638 13.5474 360.15 15.7902C358.661 18.0359 357.909 20.6873 357.909 23.7508H358.909C358.909 20.8584 359.616 18.4047 360.984 16.343C362.353 14.2784 364.405 12.5764 367.139 11.2235C372.622 8.51019 380.785 7.23384 391.437 7.23384V6.23384ZM357.909 23.7508C357.909 26.9638 358.505 29.6728 359.821 31.9321C361.139 34.1948 363.154 35.965 365.921 37.3385C371.424 40.0702 379.975 41.2676 392.195 41.6543L392.226 40.6548C380.004 40.268 371.653 39.0676 366.366 36.4428C363.738 35.1381 361.886 33.4904 360.685 31.4288C359.482 29.3637 358.909 26.842 358.909 23.7508H357.909ZM392.195 41.6544C398.558 41.8483 402.121 42.0226 404.099 42.4276C405.091 42.6307 405.589 42.8754 405.847 43.1306C406.077 43.3582 406.175 43.6546 406.175 44.1712H407.175C407.175 43.5277 407.051 42.9152 406.551 42.42C406.078 41.9525 405.339 41.6606 404.3 41.4479C402.217 41.0214 398.548 40.8476 392.226 40.6548L392.195 41.6544ZM406.175 44.1712C406.175 44.5936 406.085 44.8719 405.856 45.1024C405.603 45.3575 405.119 45.6154 404.184 45.8304C402.315 46.2603 398.95 46.4558 392.984 46.4558V47.4558C398.93 47.4558 402.41 47.2646 404.408 46.805C405.407 46.5752 406.113 46.2627 406.566 45.8071C407.042 45.327 407.175 44.7544 407.175 44.1712H406.175ZM392.984 46.4558C386.606 46.4558 382.871 46.0087 380.744 45.2656C379.687 44.8965 379.074 44.4698 378.722 44.032C378.378 43.6047 378.246 43.1199 378.246 42.5469H377.246C377.246 43.2888 377.423 44.0126 377.943 44.6586C378.453 45.294 379.256 45.8052 380.414 46.2096C382.715 47.0134 386.6 47.4558 392.984 47.4558V46.4558ZM377.746 42.0469H357.635V43.0469H377.746V42.0469ZM428.338 42.5469V42.0469H427.838V42.5469H428.338ZM462.913 27.2316L462.933 26.732L462.933 26.732L462.913 27.2316ZM475.057 25.6846H474.557V26.1846H475.057V25.6846ZM495.168 25.6846V26.1846H495.668V25.6846H495.168ZM462.913 41.1546L462.897 41.6543L462.898 41.6544L462.913 41.1546ZM448.449 42.5469H448.949V42.0469H448.449V42.5469ZM427.838 42.5469C427.838 46.6325 428.624 49.9777 430.185 52.6899C431.749 55.4056 434.069 57.4504 437.076 58.9661C443.06 61.983 451.811 62.9258 462.913 62.9258V61.9258C451.816 61.9258 443.279 60.9737 437.526 58.0732C434.664 56.6303 432.502 54.7109 431.052 52.191C429.599 49.6675 428.838 46.5057 428.838 42.5469H427.838ZM462.913 62.9258C474.017 62.9258 482.762 61.9823 488.742 59.1156C491.745 57.6759 494.067 55.7437 495.634 53.1915C497.2 50.6408 497.989 47.5089 497.989 43.7071H496.989C496.989 47.3697 496.23 50.3097 494.782 52.6683C493.335 55.0254 491.175 56.8399 488.31 58.2138C482.551 60.9743 474.009 61.9258 462.913 61.9258V62.9258ZM497.989 43.7071C497.989 40.0882 497.142 37.2313 495.491 34.9848C493.843 32.7417 491.429 31.156 488.382 30.0122C482.317 27.7352 473.586 27.1566 462.933 26.732L462.893 27.7312C473.589 28.1575 482.146 28.739 488.031 30.9484C490.959 32.0477 493.186 33.5367 494.685 35.5769C496.182 37.6136 496.989 40.2485 496.989 43.7071H497.989ZM462.933 26.732C457.029 26.4989 453.651 26.403 451.735 26.1089C450.768 25.9605 450.276 25.7738 450.022 25.5694C449.818 25.4053 449.722 25.1928 449.722 24.7564H448.722C448.722 25.3642 448.869 25.9252 449.395 26.3485C449.871 26.7315 450.597 26.946 451.583 27.0973C453.573 27.4027 457.04 27.5001 462.893 27.7312L462.933 26.732ZM449.722 24.7564C449.722 24.3161 449.821 24.0396 450.03 23.8255C450.259 23.5908 450.683 23.3652 451.479 23.1846C453.077 22.8223 455.859 22.7038 460.593 22.7038V21.7038C455.889 21.7038 452.987 21.8174 451.258 22.2093C450.392 22.4058 449.743 22.6878 449.314 23.1275C448.865 23.5878 448.722 24.1524 448.722 24.7564H449.722ZM460.593 22.7038C465.51 22.7038 469.075 22.8601 471.404 23.3599C472.57 23.61 473.37 23.9355 473.87 24.3271C474.345 24.6984 474.557 25.1317 474.557 25.6846H475.557C475.557 24.8065 475.189 24.0892 474.487 23.5395C473.81 23.0102 472.836 22.6444 471.614 22.3821C469.166 21.857 465.499 21.7038 460.593 21.7038V22.7038ZM475.057 26.1846H495.168V25.1846H475.057V26.1846ZM495.668 25.6846C495.668 22.1499 494.907 19.1427 493.406 16.6263C491.905 14.1097 489.683 12.1149 486.809 10.5763C481.079 7.50926 472.719 6.23384 462.14 6.23384V7.23384C472.677 7.23384 480.831 8.51097 486.337 11.4579C489.08 12.9263 491.155 14.8038 492.548 17.1385C493.94 19.4734 494.668 22.2965 494.668 25.6846H495.668ZM462.14 6.23384C451.443 6.23384 443.092 7.51004 437.398 10.3272C434.544 11.7396 432.341 13.5474 430.853 15.7902C429.364 18.0359 428.611 20.6873 428.611 23.7508H429.611C429.611 20.8584 430.319 18.4047 431.686 16.343C433.056 14.2784 435.107 12.5764 437.842 11.2235C443.325 8.51019 451.488 7.23384 462.14 7.23384V6.23384ZM428.611 23.7508C428.611 26.9638 429.208 29.6728 430.524 31.9321C431.841 34.1948 433.857 35.965 436.624 37.3385C442.127 40.0702 450.678 41.2676 462.897 41.6543L462.929 40.6548C450.706 40.268 442.356 39.0676 437.069 36.4428C434.44 35.1381 432.588 33.4904 431.388 31.4288C430.185 29.3637 429.611 26.842 429.611 23.7508H428.611ZM462.898 41.6544C469.261 41.8483 472.824 42.0226 474.802 42.4276C475.794 42.6307 476.292 42.8754 476.55 43.1306C476.78 43.3582 476.878 43.6546 476.878 44.1712H477.878C477.878 43.5277 477.753 42.9152 477.253 42.42C476.781 41.9525 476.041 41.6606 475.003 41.4479C472.92 41.0214 469.251 40.8476 462.928 40.6548L462.898 41.6544ZM476.878 44.1712C476.878 44.5936 476.788 44.8719 476.559 45.1024C476.306 45.3575 475.822 45.6154 474.887 45.8304C473.018 46.2603 469.652 46.4558 463.687 46.4558V47.4558C469.633 47.4558 473.113 47.2646 475.111 46.805C476.11 46.5752 476.816 46.2627 477.268 45.8071C477.745 45.327 477.878 44.7544 477.878 44.1712H476.878ZM463.687 46.4558C457.308 46.4558 453.574 46.0087 451.447 45.2656C450.39 44.8965 449.777 44.4698 449.425 44.032C449.081 43.6047 448.949 43.1199 448.949 42.5469H447.949C447.949 43.2888 448.126 44.0126 448.645 44.6586C449.156 45.294 449.959 45.8052 451.117 46.2096C453.418 47.0134 457.302 47.4558 463.687 47.4558V46.4558ZM448.449 42.0469H428.338V43.0469H448.449V42.0469Z" fill="#FFA877"/>
</svg>
