<svg width="152" height="53" viewBox="0 0 152 53" fill="none" xmlns="http://www.w3.org/2000/svg"><path d="M35.179 11.92a5.678 5.678 0 0 1-5.67 5.67h-3.425c-2.663 0-4.904-1.847-5.51-4.328H17.43a5.69 5.69 0 0 1-4.168 4.168v3.146a5.69 5.69 0 0 1 4.168 4.168h3.145a5.678 5.678 0 0 1 5.51-4.329h3.425a5.678 5.678 0 0 1 5.67 5.671v3.425a5.678 5.678 0 0 1-5.67 5.67h-3.425c-2.663 0-4.904-1.847-5.51-4.329H17.43a5.678 5.678 0 0 1-5.51 4.33H8.495a5.678 5.678 0 0 1-5.67-5.671v-3.425a5.683 5.683 0 0 1 4.328-5.51V17.43a5.678 5.678 0 0 1-4.329-5.51V8.495a5.678 5.678 0 0 1 5.67-5.67h3.425c2.664 0 4.904 1.848 5.51 4.329h3.145a5.678 5.678 0 0 1 5.51-4.33h3.425a5.678 5.678 0 0 1 5.67 5.671v3.425Z" fill="#FF6B4E"/><path d="M38 11.92V8.495C38 3.812 34.191.003 29.508.003h-3.424a8.486 8.486 0 0 0-7.081 3.812A8.49 8.49 0 0 0 11.919 0H8.495C3.809 0 0 3.81 0 8.492v3.425a8.487 8.487 0 0 0 3.812 7.082A8.496 8.496 0 0 0 0 26.083v3.425C0 34.19 3.809 38 8.492 38h3.424a8.486 8.486 0 0 0 7.081-3.812A8.487 8.487 0 0 0 26.078 38h3.425c4.683 0 8.492-3.81 8.492-8.492v-3.425a8.487 8.487 0 0 0-3.812-7.082 8.487 8.487 0 0 0 3.812-7.081H38Zm-2.821 0a5.678 5.678 0 0 1-5.67 5.67h-3.425a5.683 5.683 0 0 1-5.51-4.329h-3.145a5.69 5.69 0 0 1-4.169 4.17v3.144a5.69 5.69 0 0 1 4.169 4.17h3.145a5.678 5.678 0 0 1 5.51-4.33h3.424a5.678 5.678 0 0 1 5.67 5.67v3.425a5.678 5.678 0 0 1-5.67 5.671h-3.424a5.683 5.683 0 0 1-5.51-4.329h-3.145a5.678 5.678 0 0 1-5.51 4.33H8.495a5.678 5.678 0 0 1-5.67-5.672v-3.424a5.683 5.683 0 0 1 4.328-5.51V17.43a5.678 5.678 0 0 1-4.329-5.51V8.495a5.678 5.678 0 0 1 5.67-5.67h3.425c2.664 0 4.904 1.847 5.51 4.329h3.145a5.678 5.678 0 0 1 5.51-4.33h3.424a5.678 5.678 0 0 1 5.67 5.671v3.425Z" fill="#2F0D30"/><rect x="3" y="41" width="31.41" height="12" rx="2.167" fill="#FF6B4E"/><path d="M6.004 51v-7.998h2.929c.567 0 1.037.094 1.41.281.372.185.65.436.835.754.185.315.278.67.278 1.066 0 .333-.061.614-.184.843a1.512 1.512 0 0 1-.492.547 2.164 2.164 0 0 1-.672.297v.078c.266.013.525.1.778.258.255.156.466.379.632.668.167.289.25.64.25 1.054 0 .409-.096.776-.289 1.102-.19.322-.484.579-.882.769-.399.187-.908.281-1.527.281H6.004Zm1.002-1.035h1.946c.578 0 .992-.112 1.242-.336a1.08 1.08 0 0 0 .375-.84c0-.252-.064-.484-.191-.695a1.367 1.367 0 0 0-.547-.503 1.753 1.753 0 0 0-.836-.188H7.006v2.562Zm0-3.503h1.821c.271 0 .515-.052.73-.156a1.28 1.28 0 0 0 .52-.438c.13-.19.195-.414.195-.671 0-.331-.115-.608-.347-.832-.232-.224-.587-.336-1.066-.336H7.006v2.433ZM19.995 44.008v-1.006h5.018v1.006h-1.995V51h-1.014v-6.992h-2.01ZM26.302 51H25.02l2.878-7.998h1.394L32.172 51H30.89l-2.261-6.545h-.063L26.302 51Zm.223-2.996h4.155v1.015h-4.155v-1.015ZM13.004 51v-7.998h4.998v1.006h-4v2.47h3.74v1.035h-3.74v2.482h4.005V51h-5.003Z" fill="#fff"/><path d="M64.214 12.005H61v14.997h3.214V12.005ZM73.96 23.49l-4.089-11.485h-3.452l5.536 14.997h3.895l5.535-14.997h-3.393L73.96 23.491ZM86.804 12.005H83.59v14.997h3.214V12.005ZM107.409 23.15c-1.186 0-2.047.85-2.047 2.018 0 1.17.861 2.018 2.047 2.018 1.203 0 2.076-.849 2.076-2.018 0-1.169-.873-2.017-2.076-2.017ZM134.214 18.099a6.316 6.316 0 0 0-6.309-6.277 6.293 6.293 0 0 0-4.7 2.106 6.295 6.295 0 0 0-4.701-2.106 6.316 6.316 0 0 0-6.308 6.277h-.001v8.912h3.218v-8.88a3.094 3.094 0 0 1 3.091-3.091 3.095 3.095 0 0 1 3.092 3.091v8.88h3.218v-8.88a3.095 3.095 0 0 1 3.091-3.091 3.095 3.095 0 0 1 3.092 3.091v8.88h3.218v-8.912h-.001ZM147.71 22.15c-.489 1.507-1.845 2.402-3.674 2.402-2.429 0-4.056-1.638-4.143-4.172v-.173h11.266l.004-.027c.057-.4.088-.816.088-1.203-.087-4.347-2.965-7.155-7.332-7.155-4.42 0-7.39 3.099-7.39 7.711 0 4.649 3.016 7.653 7.682 7.653 1.781 0 3.367-.519 4.586-1.5a6.055 6.055 0 0 0 2.149-3.537h-3.236Zm-3.761-7.724c2.217 0 3.696 1.274 3.964 3.41h-7.899c.237-2.01 1.85-3.41 3.935-3.41ZM100.254 21.811c-.438 1.643-1.735 2.619-3.508 2.619-2.492 0-4.167-1.968-4.167-4.897 0-2.964 1.675-4.955 4.167-4.955 1.824 0 3.07.929 3.535 2.618h3.371c-.688-3.41-3.172-5.366-6.847-5.366-2.225 0-4.115.732-5.466 2.117-1.349 1.383-2.062 3.314-2.062 5.586 0 2.295.698 4.224 2.018 5.578 1.318 1.352 3.193 2.066 5.422 2.066 3.704 0 6.281-2.004 6.936-5.366h-3.399ZM54.981 21.812c-.437 1.642-1.734 2.618-3.507 2.618-2.493 0-4.168-1.968-4.168-4.897 0-2.964 1.675-4.955 4.168-4.955 1.823 0 3.07.93 3.535 2.618h3.37c-.688-3.41-3.171-5.365-6.847-5.365-2.225 0-4.115.732-5.466 2.116-1.348 1.383-2.061 3.314-2.061 5.586 0 2.296.697 4.225 2.017 5.578 1.318 1.352 3.193 2.066 5.423 2.066 3.704 0 6.28-2.004 6.935-5.365h-3.399Z" fill="#2F1730"/></svg>