<svg width="159" height="36" viewBox="0 0 159 36" fill="none" xmlns="http://www.w3.org/2000/svg">
<path d="M135 36H138.26C139.65 36 140.48 35.24 140.48 34.11C140.48 33.3 140.04 32.69 139.22 32.41C139.83 32.14 140.22 31.55 140.22 30.81C140.22 29.76 139.42 29 138.1 29H135V36ZM136 32.04V29.93H138.07C138.79 29.93 139.23 30.35 139.23 30.96C139.23 31.61 138.75 32.04 138.04 32.04H136ZM136 35.06V32.89H138.16C138.88 32.89 139.43 33.23 139.43 33.96C139.43 34.64 138.95 35.06 138.2 35.06H136Z" fill="#FF6041"/>
<path d="M135 36H138.26C139.65 36 140.48 35.24 140.48 34.11C140.48 33.3 140.04 32.69 139.22 32.41C139.83 32.14 140.22 31.55 140.22 30.81C140.22 29.76 139.42 29 138.1 29H135V36ZM136 32.04V29.93H138.07C138.79 29.93 139.23 30.35 139.23 30.96C139.23 31.61 138.75 32.04 138.04 32.04H136ZM136 35.06V32.89H138.16C138.88 32.89 139.43 33.23 139.43 33.96C139.43 34.64 138.95 35.06 138.2 35.06H136Z" fill="black" fill-opacity="0.2"/>
<path d="M141.367 36H146.317V35.04H142.397V32.96H145.917V32.03H142.397V29.95H146.317V29H141.367V36Z" fill="#FF6041"/>
<path d="M141.367 36H146.317V35.04H142.397V32.96H145.917V32.03H142.397V29.95H146.317V29H141.367V36Z" fill="black" fill-opacity="0.2"/>
<path d="M149.462 36H150.492V29.96H152.742V29H147.142V29.96H149.462V36Z" fill="#FF6041"/>
<path d="M149.462 36H150.492V29.96H152.742V29H147.142V29.96H149.462V36Z" fill="black" fill-opacity="0.2"/>
<path d="M152.25 36H153.33L154.06 33.964H157.179L157.92 36H159L156.49 29H154.8L152.25 36ZM154.364 33.024L155.65 29.51L156.875 33.024H154.364Z" fill="#FF6041"/>
<path d="M152.25 36H153.33L154.06 33.964H157.179L157.92 36H159L156.49 29H154.8L152.25 36ZM154.364 33.024L155.65 29.51L156.875 33.024H154.364Z" fill="black" fill-opacity="0.2"/>
<path d="M62.6755 9.67188H59.1405V26.1655H62.6755V9.67188Z" fill="#2F1730"/>
<path d="M73.3946 22.3034L68.8967 9.67188H65.1003L71.1889 26.1655H75.4722L81.5606 9.67188H77.8281L73.3946 22.3034Z" fill="#2F1730"/>
<path d="M87.5201 9.67188H83.9854V26.1655H87.5201V9.67188Z" fill="#2F1730"/>
<path d="M110.182 21.9297C108.878 21.9297 107.931 22.863 107.931 24.1487C107.931 25.4345 108.878 26.3677 110.182 26.3677C111.505 26.3677 112.465 25.4345 112.465 24.1487C112.465 22.863 111.505 21.9297 110.182 21.9297Z" fill="#2F1730"/>
<path d="M138.852 16.3727C138.833 12.5626 135.787 9.46875 132.044 9.46875C130.031 9.46875 128.219 10.3649 126.971 11.7854C125.724 10.3649 123.912 9.46875 121.899 9.46875C118.156 9.46875 115.109 12.5626 115.091 16.3727H115.09V16.408V16.4434V26.1741H118.562V16.4434V16.408C118.562 14.5331 120.059 13.0079 121.899 13.0079C123.738 13.0079 125.235 14.5331 125.235 16.408V16.4434V26.1741H128.708V16.4434H128.708V16.408C128.708 14.5331 130.204 13.0079 132.044 13.0079C133.884 13.0079 135.38 14.5331 135.38 16.408V16.4434H135.381V26.1741H138.853V16.4434V16.408V16.3727H138.852Z" fill="#2F1730"/>
<path d="M153.889 20.8274C153.351 22.486 151.857 23.4701 149.842 23.4701C147.166 23.4701 145.375 21.6684 145.278 18.8812V18.6917H157.688L157.692 18.6613C157.756 18.221 157.789 17.764 157.789 17.3389C157.693 12.558 154.524 9.46875 149.713 9.46875C144.845 9.46875 141.573 12.8771 141.573 17.95C141.573 23.063 144.895 26.3668 150.035 26.3668C151.996 26.3668 153.743 25.7963 155.087 24.7172C156.316 23.7294 157.128 22.3863 157.453 20.8274H153.889ZM149.746 12.3332C152.188 12.3332 153.817 13.7345 154.112 16.084H145.411C145.673 13.8735 147.449 12.3332 149.746 12.3332Z" fill="#2F1730"/>
<path d="M102.312 20.454C101.831 22.2604 100.405 23.3335 98.4546 23.3335C95.7131 23.3335 93.8709 21.1692 93.8709 17.9479C93.8709 14.6883 95.7131 12.4982 98.4546 12.4982C100.46 12.4982 101.831 13.5201 102.342 15.3777H106.049C105.293 11.6265 102.561 9.47656 98.5187 9.47656C96.0717 9.47656 93.9931 10.2816 92.5073 11.8047C91.024 13.3252 90.2399 15.4495 90.2399 17.9479C90.2399 20.4727 91.0073 22.5941 92.4591 24.083C93.9085 25.5694 95.9707 26.3551 98.4225 26.3551C102.496 26.3551 105.33 24.1513 106.051 20.4539H102.312V20.454Z" fill="#2F1730"/>
<path d="M52.5208 20.454C52.0393 22.2604 50.6134 23.3335 48.6631 23.3335C45.9214 23.3335 44.0794 21.1692 44.0794 17.9479C44.0794 14.6883 45.9214 12.4982 48.6631 12.4982C50.6685 12.4982 52.0399 13.5201 52.551 15.3777H56.258C55.501 11.6265 52.7698 9.47656 48.7273 9.47656C46.2803 9.47656 44.2017 10.2816 42.7158 11.8047C41.2325 13.3252 40.4484 15.4495 40.4484 17.9479C40.4484 20.4727 41.2158 22.5941 42.6676 24.083C44.117 25.5694 46.1791 26.3551 48.6311 26.3551C52.7047 26.3551 55.5389 24.1513 56.2591 20.4539H52.5208V20.454Z" fill="#2F1730"/>
<path d="M31.6777 10.7301C31.6777 13.5458 29.3868 15.8367 26.571 15.8367H23.4867C21.087 15.8367 19.0698 14.1725 18.5257 11.9379H15.6933C15.2435 13.785 13.7868 15.2413 11.94 15.6912V18.5235C13.7871 18.9732 15.2434 20.4299 15.6933 22.2768H18.5257C19.0698 20.0422 21.087 18.3779 23.4867 18.3779H26.571C29.3868 18.3779 31.6777 20.6688 31.6777 23.4846V26.5688C31.6777 29.3847 29.3868 31.6755 26.571 31.6755H23.4867C21.0871 31.6755 19.0698 30.0113 18.5257 27.7767H15.6933C15.1491 30.0113 13.1319 31.6755 10.7322 31.6755H7.6479C4.83213 31.6755 2.54126 29.3847 2.54126 26.5688V23.4846C2.54126 21.0849 4.20547 19.0677 6.44 18.5235V15.6911C4.20548 15.1469 2.54126 13.1297 2.54126 10.7301V7.64576C2.54126 4.82993 4.83213 2.53906 7.6479 2.53906H10.7322C13.1319 2.53906 15.1491 4.20327 15.6933 6.43793H18.5257C19.0698 4.20327 21.0871 2.53906 23.4867 2.53906H26.571C29.3868 2.53906 31.6777 4.82993 31.6777 7.64576V10.7301Z" fill="#FF6B4E"/>
<path d="M34.2189 10.7322V7.64789C34.2189 3.43086 30.788 0 26.571 0H23.4867C20.8264 0 18.4801 1.36618 17.1094 3.43299C15.7389 1.36618 13.3925 0 10.7322 0H7.64789C3.43085 0 0 3.43086 0 7.64789V10.7322C0 13.3925 1.36618 15.7388 3.43305 17.1095C1.36618 18.48 0 20.8263 0 23.4867V26.571C0 30.7881 3.43087 34.2189 7.64789 34.2189H10.7322C13.3925 34.2189 15.7389 32.8527 17.1094 30.7859C18.4801 32.8527 20.8264 34.2189 23.4867 34.2189H26.571C30.788 34.2189 34.2189 30.788 34.2189 26.571V23.4867C34.2189 20.8263 32.8527 18.48 30.7858 17.1095C32.8527 15.7388 34.2189 13.3925 34.2189 10.7322ZM31.6776 10.7322C31.6776 13.548 29.3868 15.8388 26.571 15.8388H23.4867C21.087 15.8388 19.0698 14.1746 18.5256 11.94H15.6932C15.2435 13.7872 13.7868 15.2435 11.9399 15.6933V18.5256C13.7871 18.9754 15.2434 20.432 15.6933 22.2789H18.5256C19.0698 20.0443 21.087 18.38 23.4867 18.38H26.571C29.3868 18.38 31.6776 20.6709 31.6776 23.4867V26.571C31.6776 29.3868 29.3868 31.6777 26.571 31.6777H23.4867C21.0871 31.6777 19.0698 30.0135 18.5256 27.7789H15.6932C15.1491 30.0135 13.1318 31.6777 10.7322 31.6777H7.64787C4.8321 31.6777 2.54124 29.3868 2.54124 26.571V23.4867C2.54124 21.0871 4.20544 19.0698 6.43998 18.5256V15.6933C4.20546 15.149 2.54124 13.1318 2.54124 10.7322V7.64791C2.54124 4.83207 4.8321 2.54121 7.64787 2.54121H10.7322C13.1318 2.54121 15.1491 4.20541 15.6932 6.44007H18.5256C19.0698 4.20541 21.0871 2.54121 23.4867 2.54121H26.571C29.3868 2.54121 31.6776 4.83207 31.6776 7.64791V10.7322Z" fill="#2F1730"/>
</svg>
