<svg width="132" height="39" viewBox="0 0 132 39" fill="none" xmlns="http://www.w3.org/2000/svg">
<path d="M4.18169 17.356C4.18169 10.1247 10.0969 4.27232 17.3817 4.27232C22.3846 4.27232 26.7433 7.03073 28.9842 11.1109C29.535 12.1137 30.8042 12.4855 31.8191 11.9413C32.8341 11.3971 33.2104 10.1431 32.6596 9.14025C29.7188 3.78556 23.9829 0.140625 17.3817 0.140625C7.77664 0.140625 0 7.85357 0 17.356C0 26.8585 7.77664 34.5714 17.3817 34.5714C23.9829 34.5714 29.7188 30.9265 32.6596 25.5718C33.2104 24.569 32.8341 23.3149 31.8191 22.7708C30.8042 22.2266 29.535 22.5984 28.9842 23.6012C26.7433 27.6813 22.3846 30.4397 17.3817 30.4397C10.0969 30.4397 4.18169 24.5873 4.18169 17.356Z" fill="white"/>
<path d="M20.56 15.2902C20.56 16.2079 20.1562 17.0325 19.5146 17.5999V22.5206H15.3329V17.5999C14.6912 17.0325 14.2874 16.2079 14.2874 15.2902C14.2874 13.5788 15.6916 12.1914 17.4237 12.1914C19.1558 12.1914 20.56 13.5788 20.56 15.2902Z" fill="white"/>
<path d="M48.4883 19.6186C47.9824 20.3836 46.9707 21.1486 45.694 21.1486C43.7909 21.1486 42.466 19.8098 42.466 17.993C42.466 16.224 43.815 14.8135 45.6217 14.8135C46.7539 14.8135 47.6933 15.3873 48.3197 16.2001L50.5358 14.2637C49.4518 12.8771 47.6452 11.9448 45.6217 11.9448C42.0565 11.9448 39.3345 14.6223 39.3345 17.993C39.3345 21.3398 41.9843 24.0173 45.5976 24.0173C47.7897 24.0173 49.5241 23.2284 50.8972 21.4115L48.4883 19.6186Z" fill="white"/>
<path d="M55.9568 12.1839H52.8252V23.7782H55.9568V12.1839ZM52.3435 8.07208C52.3435 9.19565 53.2588 10.0563 54.391 10.0563C55.5232 10.0563 56.4386 9.19565 56.4386 8.07208C56.4386 6.9485 55.5232 6.08789 54.391 6.08789C53.2588 6.08789 52.3435 6.9485 52.3435 8.07208Z" fill="white"/>
<path d="M60.7812 12.1839H57.5292L62.901 23.7782H65.069L70.4409 12.1839H67.1888L63.985 19.26L60.7812 12.1839Z" fill="white"/>
<path d="M75.1301 12.1839H71.9985V23.7782H75.1301V12.1839ZM71.5168 8.07208C71.5168 9.19565 72.4321 10.0563 73.5643 10.0563C74.6965 10.0563 75.6119 9.19565 75.6119 8.07208C75.6119 6.9485 74.6965 6.08789 73.5643 6.08789C72.4321 6.08789 71.5168 6.9485 71.5168 8.07208Z" fill="white"/>
<path d="M86.4585 19.6186C85.9526 20.3836 84.9409 21.1486 83.6642 21.1486C81.7612 21.1486 80.4363 19.8098 80.4363 17.993C80.4363 16.224 81.7853 14.8135 83.5919 14.8135C84.7241 14.8135 85.6636 15.3873 86.2899 16.2001L88.5061 14.2637C87.4221 12.8771 85.6154 11.9448 83.5919 11.9448C80.0268 11.9448 77.3047 14.6223 77.3047 17.993C77.3047 21.3398 79.9545 24.0173 83.5678 24.0173C85.7599 24.0173 87.4943 23.2284 88.8674 21.4115L86.4585 19.6186Z" fill="white"/>
<path d="M91.7065 21.8802C91.7065 22.9241 92.5114 23.7337 93.5492 23.7337C94.587 23.7337 95.413 22.9241 95.413 21.8802C95.413 20.8363 94.587 20.0054 93.5492 20.0054C92.5114 20.0054 91.7065 20.8363 91.7065 21.8802Z" fill="white"/>
<path d="M102.196 23.5206V15.983C102.624 15.4326 103.576 14.5473 104.884 14.5473C105.479 14.5473 106.145 14.7387 106.621 15.2651C106.978 15.6719 107.192 16.1984 107.192 17.2512V23.5206H110.284V17.3709C110.284 16.8923 110.237 16.4616 110.189 16.0787C110.594 15.4805 111.64 14.5473 112.973 14.5473C113.567 14.5473 114.233 14.7387 114.709 15.2651C115.066 15.6719 115.28 16.1984 115.28 17.2512V23.5206H118.373V17.3709C118.373 15.648 117.944 14.4515 117.207 13.5422C116.279 12.3936 114.757 11.6758 113.163 11.6758C111.45 11.6758 109.999 12.5133 109.071 13.4944C108.167 12.3937 106.764 11.6758 105.193 11.6758C104.075 11.6758 102.981 12.0347 102.077 12.8483V11.9151H99.1034V23.5206H102.196Z" fill="white"/>
<path d="M129.772 19.9073C129.225 20.5056 128.178 21.2474 126.87 21.2474C125.229 21.2474 123.92 20.1227 123.754 18.4955H131.747C131.794 18.2323 131.818 17.9212 131.818 17.6102C131.818 14.3798 129.558 11.6758 126.37 11.6758C122.945 11.6758 120.756 14.4994 120.756 17.7298C120.756 21.367 123.349 23.7599 126.799 23.7599C128.583 23.7599 130.415 23.0181 131.533 21.6781L129.772 19.9073ZM123.896 16.2223C124.039 15.1694 125.086 14.1883 126.37 14.1883C127.631 14.1883 128.559 15.1933 128.654 16.2223H123.896Z" fill="white"/>
<rect x="98" y="28" width="34" height="11" rx="5.5" fill="#384862"/>
<path d="M103.881 37V29.7273H106.423C106.93 29.7273 107.348 29.8149 107.677 29.9901C108.006 30.1629 108.251 30.3961 108.412 30.6896C108.573 30.9808 108.653 31.304 108.653 31.6591C108.653 31.9716 108.598 32.2296 108.487 32.4332C108.378 32.6368 108.233 32.7978 108.053 32.9162C107.876 33.0346 107.683 33.1222 107.474 33.179V33.25C107.697 33.2642 107.921 33.3423 108.146 33.4844C108.371 33.6264 108.559 33.83 108.71 34.0952C108.862 34.3603 108.937 34.6847 108.937 35.0682C108.937 35.4328 108.855 35.7607 108.689 36.0518C108.523 36.343 108.262 36.5739 107.904 36.7443C107.547 36.9148 107.081 37 106.509 37H103.881ZM104.761 36.2187H106.509C107.084 36.2187 107.492 36.1075 107.734 35.8849C107.978 35.66 108.099 35.3878 108.099 35.0682C108.099 34.822 108.037 34.5947 107.911 34.3864C107.786 34.1757 107.607 34.0076 107.375 33.8821C107.143 33.7543 106.868 33.6903 106.551 33.6903H104.761V36.2187ZM104.761 32.9233H106.395C106.66 32.9233 106.899 32.8712 107.112 32.767C107.328 32.6629 107.498 32.5161 107.624 32.3267C107.751 32.1373 107.815 31.9148 107.815 31.6591C107.815 31.3395 107.704 31.0684 107.482 30.8459C107.259 30.621 106.906 30.5085 106.423 30.5085H104.761V32.9233ZM110.385 37L110.385 29.7273H114.774V30.5085H111.265V32.9659H114.547V33.7472H111.265V36.2187H114.831V37H110.385ZM115.963 30.5085V29.7273H121.418V30.5085H119.131V37H118.25V30.5085H115.963ZM122.226 37H121.303L123.973 29.7273H124.882L127.553 37H126.629L124.456 30.8778H124.399L122.226 37ZM122.567 34.1591H126.288V34.9403H122.567V34.1591Z" fill="white"/>
</svg>
