<svg width="112" height="130" viewBox="0 0 112 130" fill="none" xmlns="http://www.w3.org/2000/svg"><rect x="39" y="118" width="32" height="12" rx="2.167" fill="#FF6B4E"/><path d="M42 128v-7.998h2.929c.568 0 1.038.094 1.41.281.372.185.65.436.836.754.184.315.277.67.277 1.066 0 .333-.061.614-.184.843a1.508 1.508 0 0 1-.492.547 2.142 2.142 0 0 1-.672.297v.078c.266.013.525.099.778.258.255.156.466.379.632.668.167.289.25.64.25 1.054 0 .409-.096.776-.289 1.101-.19.323-.484.58-.882.77-.399.187-.908.281-1.527.281H42Zm1.002-1.035h1.947c.578 0 .992-.112 1.241-.336a1.08 1.08 0 0 0 .375-.839 1.32 1.32 0 0 0-.191-.696 1.372 1.372 0 0 0-.547-.503 1.752 1.752 0 0 0-.835-.188h-1.99v2.562Zm0-3.503h1.822c.27 0 .514-.052.73-.156.219-.104.392-.25.52-.438.13-.19.195-.414.195-.671a1.11 1.11 0 0 0-.348-.832c-.232-.224-.587-.336-1.066-.336h-1.852v2.433ZM55.99 121.008v-1.006h5.02v1.006h-1.996V128H58v-6.992h-2.01ZM62.298 128h-1.281l2.878-7.998h1.395L68.168 128h-1.281l-2.261-6.545h-.063L62.298 128Zm.223-2.996h4.155v1.015h-4.155v-1.015ZM49 128v-7.998h4.998v1.006h-4v2.47h3.74v1.035h-3.74v2.482h4.005V128H49Z" fill="#fff"/><path d="M103.685 35.133c0 9.213-7.5 16.714-16.712 16.714H76.88c-7.851 0-14.455-5.446-16.24-12.76h-9.27a16.771 16.771 0 0 1-12.286 12.287v9.27A16.771 16.771 0 0 1 51.37 72.931h9.27c1.777-7.313 8.38-12.76 16.24-12.76h10.093c9.212 0 16.712 7.501 16.712 16.714V86.98c0 9.213-7.5 16.714-16.712 16.714H76.88c-7.851 0-14.455-5.447-16.24-12.76h-9.27c-1.777 7.313-8.38 12.76-16.24 12.76H25.037c-9.212 0-16.712-7.501-16.712-16.714V76.885c0-7.851 5.446-14.455 12.759-16.24v-9.271c-7.313-1.777-12.76-8.381-12.76-16.241V25.039c0-9.213 7.501-16.714 16.714-16.714H35.13c7.851 0 14.455 5.447 16.24 12.76h9.27c1.777-7.313 8.38-12.76 16.24-12.76h10.093c9.212 0 16.712 7.501 16.712 16.714v10.094Z" fill="#FF6B4E"/><path d="M112 35.132V25.038C112 11.235 100.774.008 86.972.008H76.879c-8.707 0-16.387 4.468-20.87 11.235C51.515 4.468 43.835 0 35.128 0H25.037C11.226 0 0 11.227 0 25.03v10.094c0 8.707 4.468 16.388 11.234 20.872C4.468 60.488 0 68.169 0 76.876V86.97C0 100.773 11.226 112 25.028 112h10.093c8.707 0 16.387-4.468 20.87-11.235C60.477 107.532 68.157 112 76.863 112h10.093c13.803 0 25.029-11.227 25.029-25.03V76.876c0-8.707-4.468-16.388-11.235-20.872 6.767-4.484 11.235-12.164 11.235-20.872H112Zm-8.316 0c0 9.213-7.5 16.714-16.712 16.714H76.879c-7.851 0-14.455-5.446-16.24-12.76h-9.27a16.771 16.771 0 0 1-12.286 12.287v9.27A16.771 16.771 0 0 1 51.37 72.93h9.27c1.777-7.313 8.38-12.76 16.24-12.76h10.093c9.212 0 16.712 7.501 16.712 16.714v10.094c0 9.213-7.5 16.714-16.712 16.714H76.879c-7.851 0-14.455-5.446-16.24-12.76h-9.27c-1.777 7.314-8.38 12.76-16.24 12.76H25.037c-9.213 0-16.713-7.501-16.713-16.714V76.884c0-7.851 5.446-14.455 12.758-16.24v-9.27C13.77 49.595 8.325 42.991 8.325 35.131V25.038c0-9.213 7.5-16.714 16.712-16.714H35.13c7.851 0 14.455 5.447 16.24 12.76h9.27c1.777-7.313 8.38-12.76 16.24-12.76h10.093c9.212 0 16.712 7.501 16.712 16.714v10.094Z" fill="#2F0D30"/></svg>