<svg width="38" height="53" viewBox="0 0 38 53" fill="none" xmlns="http://www.w3.org/2000/svg"><path d="M35.179 11.92a5.678 5.678 0 0 1-5.67 5.67h-3.425c-2.663 0-4.904-1.847-5.51-4.328H17.43a5.69 5.69 0 0 1-4.168 4.168v3.146a5.69 5.69 0 0 1 4.168 4.168h3.145a5.678 5.678 0 0 1 5.51-4.329h3.425a5.678 5.678 0 0 1 5.67 5.671v3.425a5.678 5.678 0 0 1-5.67 5.67h-3.425c-2.663 0-4.904-1.847-5.51-4.329H17.43a5.678 5.678 0 0 1-5.51 4.33H8.495a5.678 5.678 0 0 1-5.67-5.671v-3.425a5.683 5.683 0 0 1 4.328-5.51V17.43a5.678 5.678 0 0 1-4.329-5.51V8.495a5.678 5.678 0 0 1 5.67-5.67h3.425c2.664 0 4.904 1.848 5.51 4.329h3.145a5.678 5.678 0 0 1 5.51-4.33h3.425a5.678 5.678 0 0 1 5.67 5.671v3.425Z" fill="#FF6B4E"/><path d="M38 11.92V8.495C38 3.812 34.191.003 29.508.003h-3.424a8.486 8.486 0 0 0-7.081 3.812A8.49 8.49 0 0 0 11.919 0H8.495C3.809 0 0 3.81 0 8.492v3.425a8.487 8.487 0 0 0 3.812 7.082A8.496 8.496 0 0 0 0 26.083v3.425C0 34.19 3.809 38 8.492 38h3.424a8.486 8.486 0 0 0 7.081-3.812A8.487 8.487 0 0 0 26.078 38h3.425c4.683 0 8.492-3.81 8.492-8.492v-3.425a8.487 8.487 0 0 0-3.812-7.082 8.487 8.487 0 0 0 3.812-7.081H38Zm-2.821 0a5.678 5.678 0 0 1-5.67 5.67h-3.425a5.683 5.683 0 0 1-5.51-4.329h-3.145a5.69 5.69 0 0 1-4.169 4.17v3.144a5.69 5.69 0 0 1 4.169 4.17h3.145a5.678 5.678 0 0 1 5.51-4.33h3.424a5.678 5.678 0 0 1 5.67 5.67v3.425a5.678 5.678 0 0 1-5.67 5.671h-3.424a5.683 5.683 0 0 1-5.51-4.329h-3.145a5.678 5.678 0 0 1-5.51 4.33H8.495a5.678 5.678 0 0 1-5.67-5.672v-3.424a5.683 5.683 0 0 1 4.328-5.51V17.43a5.678 5.678 0 0 1-4.329-5.51V8.495a5.678 5.678 0 0 1 5.67-5.67h3.425c2.664 0 4.904 1.847 5.51 4.329h3.145a5.678 5.678 0 0 1 5.51-4.33h3.424a5.678 5.678 0 0 1 5.67 5.671v3.425Z" fill="#2F0D30"/><rect x="3" y="41" width="31.41" height="12" rx="2.167" fill="#FF6B4E"/><path d="M6.004 51v-7.998h2.929c.567 0 1.037.094 1.41.281.372.185.65.436.835.754.185.315.278.67.278 1.066 0 .333-.061.614-.184.843a1.512 1.512 0 0 1-.492.547 2.164 2.164 0 0 1-.672.297v.078c.266.013.525.1.778.258.255.156.466.379.632.668.167.289.25.64.25 1.054 0 .409-.096.776-.289 1.102-.19.322-.484.579-.882.769-.399.187-.908.281-1.527.281H6.004Zm1.002-1.035h1.946c.578 0 .992-.112 1.242-.336a1.08 1.08 0 0 0 .375-.84c0-.252-.064-.484-.191-.695a1.367 1.367 0 0 0-.547-.503 1.753 1.753 0 0 0-.836-.188H7.006v2.562Zm0-3.503h1.821c.271 0 .515-.052.73-.156a1.28 1.28 0 0 0 .52-.438c.13-.19.195-.414.195-.671 0-.331-.115-.608-.347-.832-.232-.224-.587-.336-1.066-.336H7.006v2.433ZM19.995 44.008v-1.006h5.018v1.006h-1.995V51h-1.014v-6.992h-2.01ZM26.302 51H25.02l2.878-7.998h1.394L32.172 51H30.89l-2.261-6.545h-.063L26.302 51Zm.223-2.996h4.155v1.015h-4.155v-1.015ZM13.004 51v-7.998h4.998v1.006h-4v2.47h3.74v1.035h-3.74v2.482h4.005V51h-5.003Z" fill="#fff"/></svg>