<svg width="62" height="66" viewBox="0 0 62 66" fill="none" xmlns="http://www.w3.org/2000/svg">
    <path d="M7.85651 32.8499C7.85651 19.2639 18.97 8.26844 32.6565 8.26844C42.056 8.26844 50.2451 13.4509 54.4552 21.1166C55.4899 23.0007 57.8746 23.6992 59.7814 22.6768C61.6883 21.6544 62.3953 19.2983 61.3605 17.4142C55.8352 7.35392 45.0587 0.505859 32.6565 0.505859C14.6107 0.505859 0 14.9968 0 32.8499C0 50.703 14.6107 65.194 32.6565 65.194C45.0587 65.194 55.8352 58.346 61.3605 48.2856C62.3953 46.4016 61.6883 44.0454 59.7814 43.0231C57.8746 42.0007 55.4899 42.6992 54.4552 44.5833C50.2451 52.249 42.056 57.4314 32.6565 57.4314C18.97 57.4314 7.85651 46.436 7.85651 32.8499Z" fill="url(#paint0_linear_2431_1158)"/>
    <path d="M38.6279 28.9687C38.6279 30.6929 37.8692 32.2421 36.6637 33.3081V42.5532H28.8072V33.3081C27.6017 32.2421 26.8431 30.6929 26.8431 28.9687C26.8431 25.7533 29.4812 23.1467 32.7355 23.1467C35.9897 23.1467 38.6279 25.7533 38.6279 28.9687Z" fill="url(#paint1_linear_2431_1158)"/>
    <defs>
        <linearGradient id="paint0_linear_2431_1158" x1="-35.07" y1="47.1508" x2="61.8376" y2="0.507416" gradientUnits="userSpaceOnUse">
            <stop stop-color="#EDF1FF"/>
            <stop offset="1" stop-color="white"/>
        </linearGradient>
        <linearGradient id="paint1_linear_2431_1158" x1="-35.07" y1="47.1508" x2="61.8376" y2="0.507416" gradientUnits="userSpaceOnUse">
            <stop stop-color="#EDF1FF"/>
            <stop offset="1" stop-color="white"/>
        </linearGradient>
    </defs>
</svg>
