<svg width="268" height="85" viewBox="0 0 268 85" fill="none" xmlns="http://www.w3.org/2000/svg"><g filter="url(#a)"><path d="M17.857 32.85c0-13.586 11.113-24.582 24.8-24.582 9.399 0 17.588 5.183 21.798 12.849 1.035 1.884 3.42 2.582 5.326 1.56 1.907-1.023 2.614-3.379 1.58-5.263A32.697 32.697 0 0 0 42.656.506C24.611.506 10 14.996 10 32.85c0 17.853 14.61 32.344 32.657 32.344A32.697 32.697 0 0 0 71.36 48.286c1.034-1.884.327-4.24-1.58-5.263-1.906-1.022-4.291-.324-5.326 1.56a24.826 24.826 0 0 1-21.798 12.848c-13.687 0-24.8-10.995-24.8-24.581Z" fill="url(#b)"/><path d="M48.628 28.969a5.777 5.777 0 0 1-1.964 4.34v9.244h-7.857v-9.245a5.777 5.777 0 0 1-1.964-4.34c0-3.215 2.638-5.821 5.892-5.821 3.255 0 5.893 2.606 5.893 5.822Z" fill="url(#c)"/><path d="M101.099 37.1c-.95 1.436-2.851 2.874-5.25 2.874-3.575 0-6.065-2.516-6.065-5.93 0-3.323 2.535-5.973 5.93-5.973 2.126 0 3.891 1.078 5.068 2.605l4.164-3.638c-2.037-2.605-5.431-4.356-9.233-4.356-6.698 0-11.812 5.03-11.812 11.363 0 6.288 4.978 11.318 11.767 11.318 4.118 0 7.377-1.482 9.957-4.895l-4.526-3.369Z" fill="url(#d)"/><path d="M115.131 23.13h-5.884v21.784h5.884V23.131Zm-6.789-7.724c0 2.11 1.72 3.728 3.847 3.728s3.847-1.617 3.847-3.728-1.72-3.728-3.847-3.728-3.847 1.617-3.847 3.728Z" fill="url(#e)"/><path d="M124.195 23.13h-6.11l10.092 21.784h4.074l10.092-21.783h-6.11l-6.019 13.294-6.019-13.294Z" fill="url(#f)"/><path d="M151.153 23.13h-5.883v21.784h5.883V23.131Zm-6.788-7.724c0 2.11 1.719 3.728 3.847 3.728 2.127 0 3.846-1.617 3.846-3.728s-1.719-3.728-3.846-3.728c-2.128 0-3.847 1.617-3.847 3.728Z" fill="url(#g)"/><path d="M172.437 37.1c-.95 1.436-2.851 2.874-5.25 2.874-3.575 0-6.065-2.516-6.065-5.93 0-3.323 2.535-5.973 5.929-5.973 2.127 0 3.892 1.078 5.069 2.605l4.164-3.638c-2.037-2.605-5.431-4.356-9.233-4.356-6.698 0-11.812 5.03-11.812 11.363 0 6.288 4.978 11.318 11.767 11.318 4.118 0 7.377-1.482 9.957-4.895l-4.526-3.369Z" fill="url(#h)"/><path d="M182.297 41.352c0 1.96 1.512 3.482 3.462 3.482 1.95 0 3.502-1.521 3.502-3.482a3.492 3.492 0 0 0-3.502-3.523c-1.95 0-3.462 1.561-3.462 3.523Z" fill="url(#i)"/><path d="M202.005 44.434V30.272c.804-1.034 2.592-2.697 5.05-2.697 1.118 0 2.369.36 3.263 1.348.671.765 1.073 1.754 1.073 3.732v11.779h5.81V32.88c0-.9-.089-1.709-.179-2.428.76-1.124 2.727-2.877 5.23-2.877 1.117 0 2.368.36 3.262 1.348.671.765 1.073 1.754 1.073 3.732v11.779h5.81V32.88c0-3.237-.804-5.485-2.19-7.194-1.743-2.158-4.603-3.506-7.598-3.506-3.218 0-5.944 1.573-7.687 3.416a9.427 9.427 0 0 0-7.286-3.416c-2.1 0-4.156.674-5.855 2.203v-1.754h-5.586v21.805h5.81Z" fill="url(#j)"/><path d="M253.815 37.645c-1.028 1.124-2.995 2.518-5.453 2.518-3.084 0-5.542-2.113-5.855-5.17h15.018a9.682 9.682 0 0 0 .134-1.664c0-6.07-4.246-11.15-10.235-11.15-6.437 0-10.548 5.306-10.548 11.375 0 6.834 4.871 11.33 11.352 11.33 3.352 0 6.794-1.395 8.894-3.912l-3.307-3.327Zm-11.04-6.923c.268-1.979 2.235-3.822 4.649-3.822 2.368 0 4.111 1.888 4.29 3.822h-8.939Z" fill="url(#k)"/></g><defs><linearGradient id="b" x1="-25.07" y1="47.151" x2="71.838" y2=".507" gradientUnits="userSpaceOnUse"><stop stop-color="#EDF1FF"/><stop offset="1" stop-color="#fff"/></linearGradient><linearGradient id="c" x1="-25.07" y1="47.151" x2="71.838" y2=".507" gradientUnits="userSpaceOnUse"><stop stop-color="#EDF1FF"/><stop offset="1" stop-color="#fff"/></linearGradient><linearGradient id="d" x1="73.127" y1="69.506" x2="176.962" y2="11.677" gradientUnits="userSpaceOnUse"><stop stop-color="#EDF1FF"/><stop offset="1" stop-color="#fff"/></linearGradient><linearGradient id="e" x1="73.127" y1="69.506" x2="176.962" y2="11.677" gradientUnits="userSpaceOnUse"><stop stop-color="#EDF1FF"/><stop offset="1" stop-color="#fff"/></linearGradient><linearGradient id="f" x1="73.127" y1="69.506" x2="176.962" y2="11.677" gradientUnits="userSpaceOnUse"><stop stop-color="#EDF1FF"/><stop offset="1" stop-color="#fff"/></linearGradient><linearGradient id="g" x1="73.127" y1="69.506" x2="176.962" y2="11.677" gradientUnits="userSpaceOnUse"><stop stop-color="#EDF1FF"/><stop offset="1" stop-color="#fff"/></linearGradient><linearGradient id="h" x1="73.127" y1="69.506" x2="176.962" y2="11.677" gradientUnits="userSpaceOnUse"><stop stop-color="#EDF1FF"/><stop offset="1" stop-color="#fff"/></linearGradient><linearGradient id="i" x1="251.549" y1="61.179" x2="175.27" y2="-13.785" gradientUnits="userSpaceOnUse"><stop stop-color="#EDF1FF"/><stop offset="1" stop-color="#fff"/></linearGradient><linearGradient id="j" x1="251.549" y1="61.179" x2="175.27" y2="-13.785" gradientUnits="userSpaceOnUse"><stop stop-color="#EDF1FF"/><stop offset="1" stop-color="#fff"/></linearGradient><linearGradient id="k" x1="251.549" y1="61.179" x2="175.27" y2="-13.785" gradientUnits="userSpaceOnUse"><stop stop-color="#EDF1FF"/><stop offset="1" stop-color="#fff"/></linearGradient><filter id="a" x=".106" y=".242" width="267.788" height="85.546" filterUnits="userSpaceOnUse" color-interpolation-filters="sRGB"><feFlood flood-opacity="0" result="BackgroundImageFix"/><feColorMatrix in="SourceAlpha" values="0 0 0 0 0 0 0 0 0 0 0 0 0 0 0 0 0 0 127 0" result="hardAlpha"/><feOffset dy="9.894"/><feGaussianBlur stdDeviation="4.947"/><feComposite in2="hardAlpha" operator="out"/><feColorMatrix values="0 0 0 0 0 0 0 0 0 0 0 0 0 0 0 0 0 0 0.25 0"/><feBlend in2="BackgroundImageFix" result="effect1_dropShadow_3558_172343"/><feBlend in="SourceGraphic" in2="effect1_dropShadow_3558_172343" result="shape"/></filter></defs></svg>