<svg width="1024" height="245" viewBox="0 0 1024 245" fill="none" xmlns="http://www.w3.org/2000/svg">
<path d="M281.788 151.48L267.774 112.672H239.207L225.424 151.48L214.182 112.672H192.314L209.1 168.42H240.747L253.529 131.383L266.465 168.42H298.112L314.667 112.672H292.799L281.788 151.48ZM319.262 112.672V168.42H341.053V112.672H319.262ZM348.269 130.921H370.753V168.42H392.544V130.921H414.951V112.672H348.269V130.921ZM443.92 131.46V112.672H422.129V168.42H443.92V149.632H471.794V168.42H493.585V112.672H471.794V131.46H443.92ZM530.843 140.469C530.843 160.489 543.548 169.96 564.8 169.96C585.051 169.96 597.294 161.798 598.834 145.397H575.657C575.118 148.092 571.961 151.711 564.8 151.711C556.253 151.711 553.481 146.244 553.481 140.469C553.481 134.771 556.176 129.381 564.8 129.381C571.961 129.381 575.118 132.923 575.657 135.541H598.834C597.294 119.217 584.974 111.132 564.8 111.132C543.548 111.132 530.843 120.526 530.843 140.469ZM605.831 112.672V168.42H627.622V112.672H605.831ZM674.379 153.328L656.284 112.672H633.184L658.671 168.42H690.01L715.497 112.672H692.397L674.379 153.328ZM721.03 112.672V168.42H742.821V112.672H721.03ZM749.812 140.469C749.812 160.489 762.517 169.96 783.769 169.96C804.02 169.96 816.263 161.798 817.803 145.397H794.626C794.087 148.092 790.93 151.711 783.769 151.711C775.222 151.711 772.45 146.244 772.45 140.469C772.45 134.771 775.145 129.381 783.769 129.381C790.93 129.381 794.087 132.923 794.626 135.541H817.803C816.263 119.217 803.943 111.132 783.769 111.132C762.517 111.132 749.812 120.526 749.812 140.469ZM351.17 233.42H372.961V220.561H395.984C409.998 220.561 418.391 212.553 418.391 199.155C418.391 185.68 409.998 177.672 395.984 177.672H351.17V233.42ZM390.902 195.921C393.674 195.921 395.753 195.536 395.753 199.155C395.753 202.774 393.674 202.389 390.902 202.389H372.961V195.921H390.902ZM496.553 233.42L471.066 177.672H439.727L414.24 233.42H437.34L441.344 224.334H469.449L473.453 233.42H496.553ZM455.435 192.764L462.596 208.934H448.197L455.435 192.764ZM496.581 215.094C497.428 229.493 510.441 234.96 532.694 234.96C553.792 234.96 565.881 230.109 565.881 215.941C565.881 200.695 552.483 198.924 533.079 197.153C520.913 195.998 519.681 195.228 519.681 193.765C519.681 192.764 520.913 191.609 528.844 191.609C537.083 191.609 541.01 192.61 541.01 195.074H563.571C562.647 182.908 550.712 176.132 528.536 176.132C509.671 176.132 497.043 182.446 497.043 193.765C497.043 206.239 507.515 211.475 529.383 213.169C542.242 214.247 543.32 214.632 543.32 216.788C543.32 218.174 542.704 219.483 531.693 219.483C522.222 219.483 519.219 217.25 519.219 215.094H496.581ZM570.573 215.094C571.42 229.493 584.433 234.96 606.686 234.96C627.784 234.96 639.873 230.109 639.873 215.941C639.873 200.695 626.475 198.924 607.071 197.153C594.905 195.998 593.673 195.228 593.673 193.765C593.673 192.764 594.905 191.609 602.836 191.609C611.075 191.609 615.002 192.61 615.002 195.074H637.563C636.639 182.908 624.704 176.132 602.528 176.132C583.663 176.132 571.035 182.446 571.035 193.765C571.035 206.239 581.507 211.475 603.375 213.169C616.234 214.247 617.312 214.632 617.312 216.788C617.312 218.174 616.696 219.483 605.685 219.483C596.214 219.483 593.211 217.25 593.211 215.094H570.573ZM653.238 233.82C658.618 233.82 661.478 230.78 661.478 226.4C661.478 222.02 658.618 218.9 653.238 218.9C647.878 218.9 644.978 222.02 644.978 226.4C644.978 230.78 647.878 233.82 653.238 233.82ZM653.238 232.5C648.818 232.5 646.398 230.16 646.398 226.4C646.398 222.66 648.798 220.22 653.238 220.22C657.678 220.22 660.058 222.64 660.058 226.4C660.058 230.16 657.658 232.5 653.238 232.5ZM651.518 229.68V227.78H653.638L655.078 229.68H656.838L655.218 227.64C656.418 227.28 656.938 226.32 656.938 225.36C656.938 223.94 656.118 222.92 653.958 222.92H650.118V229.68H651.518ZM651.518 224.26H653.938C655.118 224.26 655.518 224.54 655.518 225.36C655.518 226.2 655.118 226.46 653.938 226.46H651.518V224.26Z" fill="#2F0D30"/>
<path d="M161.257 58H160.757V58.5H161.257V58ZM183.048 58V58.5H183.548V58H183.048ZM183.048 45.141V44.641H182.548V45.141H183.048ZM161.257 2.252V1.752H160.757V2.252H161.257ZM183.048 26.969H182.548V27.469H183.048V26.969ZM183.048 20.501V20.001H182.548V20.501H183.048ZM161.257 58.5H183.048V57.5H161.257V58.5ZM183.548 58V45.141H182.548V58H183.548ZM183.048 45.641H206.071V44.641H183.048V45.641ZM206.071 45.641C213.171 45.641 218.909 43.611 222.875 39.8238C226.843 36.0339 228.978 30.5406 228.978 23.735H227.978C227.978 30.3274 225.916 35.5371 222.184 39.1007C218.45 42.667 212.984 44.641 206.071 44.641V45.641ZM228.978 23.735C228.978 16.8917 226.844 11.3791 222.875 7.57923C218.91 3.78202 213.171 1.752 206.071 1.752V2.752C212.984 2.752 218.449 4.72597 222.184 8.30152C225.915 11.8744 227.978 17.1033 227.978 23.735H228.978ZM206.071 1.752H161.257V2.752H206.071V1.752ZM160.757 2.252V58H161.757V2.252H160.757ZM200.989 21.001C201.71 21.001 202.323 20.977 202.899 20.9971C203.466 21.0169 203.914 21.0797 204.264 21.2233C204.594 21.359 204.845 21.5701 205.025 21.9279C205.214 22.3036 205.34 22.8705 205.34 23.735H206.34C206.34 22.79 206.205 22.0479 205.918 21.478C205.622 20.8901 205.18 20.5189 204.644 20.2984C204.127 20.086 203.535 20.0187 202.934 19.9977C202.339 19.9769 201.654 20.001 200.989 20.001V21.001ZM205.34 23.735C205.34 24.5995 205.214 25.1664 205.025 25.5421C204.845 25.8999 204.594 26.111 204.264 26.2467C203.914 26.3903 203.466 26.4531 202.899 26.4729C202.323 26.493 201.71 26.469 200.989 26.469V27.469C201.654 27.469 202.339 27.4931 202.934 27.4723C203.535 27.4513 204.127 27.384 204.644 27.1716C205.18 26.9511 205.622 26.5799 205.918 25.992C206.205 25.4221 206.34 24.68 206.34 23.735H205.34ZM200.989 26.469H183.048V27.469H200.989V26.469ZM183.548 26.969V20.501H182.548V26.969H183.548ZM183.048 21.001H200.989V20.001H183.048V21.001ZM292.224 36.671L292.077 36.1931L292.201 37.1705L292.224 36.671ZM235.475 2.252V1.752H234.975V2.252H235.475ZM235.475 58H234.975V58.5H235.475V58ZM257.266 58V58.5H257.766V58H257.266ZM257.266 44.987V44.487H256.766V44.987H257.266ZM281.367 58H280.867V58.5H281.367V58ZM303.158 58V58.5H303.658V58H303.158ZM257.266 27.739H256.766V28.239H257.266V27.739ZM257.266 19.577V19.077H256.766V19.577H257.266ZM292.371 37.1489C295.957 36.0454 298.756 34.1986 300.652 31.4597C302.545 28.7251 303.504 25.1515 303.504 20.655H302.504C302.504 25.0135 301.575 28.3699 299.83 30.8905C298.088 33.4069 295.497 35.1406 292.077 36.1931L292.371 37.1489ZM303.504 20.655C303.504 14.6495 301.555 9.89005 297.533 6.64642C293.53 3.41806 287.547 1.752 279.596 1.752V2.752C287.43 2.752 293.15 4.39693 296.905 7.42483C300.641 10.4374 302.504 14.8795 302.504 20.655H303.504ZM279.596 1.752H235.475V2.752H279.596V1.752ZM234.975 2.252V58H235.975V2.252H234.975ZM235.475 58.5H257.266V57.5H235.475V58.5ZM257.766 58V44.987H256.766V58H257.766ZM257.266 45.487H275.592V44.487H257.266V45.487ZM275.592 45.487C277.936 45.487 279.174 45.8251 279.872 46.5859C280.583 47.3613 280.867 48.7115 280.867 51.147H281.867C281.867 48.7315 281.611 47.0017 280.609 45.9098C279.594 44.8034 277.944 44.487 275.592 44.487V45.487ZM280.867 51.147V58H281.867V51.147H280.867ZM281.367 58.5H303.158V57.5H281.367V58.5ZM303.658 58V47.605H302.658V58H303.658ZM303.658 47.605C303.658 43.9974 302.564 41.1986 300.549 39.2651C298.54 37.3378 295.677 36.3292 292.247 36.1715L292.201 37.1705C295.47 37.3208 298.073 38.2757 299.857 39.9867C301.633 41.6914 302.658 44.2056 302.658 47.605H303.658ZM274.36 20.077C275.263 20.077 276.054 20.058 276.765 20.0967C277.474 20.1353 278.042 20.2298 278.487 20.4284C278.915 20.6189 279.243 20.9106 279.476 21.3875C279.716 21.8813 279.866 22.6004 279.866 23.658H280.866C280.866 22.5211 280.707 21.6328 280.375 20.9499C280.034 20.2502 279.525 19.796 278.894 19.5149C278.281 19.2418 277.569 19.139 276.819 19.0982C276.072 19.0575 275.227 19.077 274.36 19.077V20.077ZM279.866 23.658C279.866 24.7156 279.716 25.4347 279.476 25.9285C279.243 26.4054 278.915 26.6971 278.487 26.8876C278.042 27.0862 277.474 27.1807 276.765 27.2193C276.054 27.258 275.263 27.239 274.36 27.239V28.239C275.227 28.239 276.072 28.2585 276.819 28.2178C277.569 28.177 278.281 28.0742 278.894 27.8011C279.525 27.52 280.034 27.0658 280.375 26.3661C280.707 25.6832 280.866 24.7949 280.866 23.658H279.866ZM274.36 27.239H257.266V28.239H274.36V27.239ZM257.766 27.739V19.577H256.766V27.739H257.766ZM257.266 20.077H274.36V19.077H257.266V20.077ZM345.95 60.04C357.529 60.04 366.836 57.4077 373.259 52.3185C379.699 47.2159 383.179 39.6901 383.179 30.049H382.179C382.179 39.4269 378.807 46.6466 372.638 51.5347C366.452 56.4363 357.395 59.04 345.95 59.04V60.04ZM383.179 30.049C383.179 20.4455 379.698 12.9579 373.258 7.88449C366.835 2.82469 357.528 0.211999 345.95 0.211999V1.212C357.395 1.212 366.453 3.7968 372.639 8.67001C378.808 13.5296 382.179 20.7105 382.179 30.049H383.179ZM345.95 0.211999C334.373 0.211999 325.085 2.80509 318.681 7.85578C312.259 12.9204 308.798 20.4085 308.798 30.049H309.798C309.798 20.6705 313.152 13.4901 319.3 8.64097C325.466 3.7779 334.504 1.212 345.95 1.212V0.211999ZM308.798 30.049C308.798 39.7272 312.259 47.2535 318.68 52.3472C325.084 57.4273 334.372 60.04 345.95 60.04V59.04C334.505 59.04 325.468 56.4552 319.301 51.5638C313.152 46.686 309.798 39.4668 309.798 30.049H308.798ZM345.95 40.791C340.204 40.791 336.858 39.4394 334.94 37.4854C333.022 35.5317 332.436 32.8783 332.436 30.049H331.436C331.436 32.9947 332.044 35.9622 334.226 38.1859C336.409 40.4091 340.069 41.791 345.95 41.791V40.791ZM332.436 30.049C332.436 27.2567 333.004 24.6438 334.91 22.7201C336.817 20.7948 340.163 19.461 345.95 19.461V18.461C340.033 18.461 336.373 19.8222 334.199 22.0164C332.024 24.2122 331.436 27.1433 331.436 30.049H332.436ZM345.95 19.461C351.775 19.461 355.141 20.8135 357.058 22.749C358.974 24.683 359.541 27.2966 359.541 30.049H360.541C360.541 27.1804 359.953 24.25 357.769 22.0452C355.586 19.842 351.907 18.461 345.95 18.461V19.461ZM359.541 30.049C359.541 32.8384 358.956 35.4926 357.028 37.4565C355.1 39.4206 351.734 40.791 345.95 40.791V41.791C351.871 41.791 355.55 40.3894 357.742 38.157C359.933 35.9244 360.541 32.9576 360.541 30.049H359.541ZM422.305 42.908L421.848 43.1113L422.306 44.1398L422.762 43.1106L422.305 42.908ZM404.21 2.252L404.667 2.04869L404.535 1.752H404.21V2.252ZM381.11 2.252V1.752H380.331L380.655 2.45989L381.11 2.252ZM406.597 58L406.142 58.2079L406.276 58.5H406.597V58ZM437.936 58V58.5H438.257L438.391 58.2079L437.936 58ZM463.423 2.252L463.878 2.45989L464.201 1.752H463.423V2.252ZM440.323 2.252V1.752H439.998L439.866 2.04941L440.323 2.252ZM422.762 42.7047L404.667 2.04869L403.753 2.45531L421.848 43.1113L422.762 42.7047ZM404.21 1.752H381.11V2.752H404.21V1.752ZM380.655 2.45989L406.142 58.2079L407.052 57.7921L381.565 2.0441L380.655 2.45989ZM406.597 58.5H437.936V57.5H406.597V58.5ZM438.391 58.2079L463.878 2.45989L462.968 2.0441L437.481 57.7921L438.391 58.2079ZM463.423 1.752H440.323V2.752H463.423V1.752ZM439.866 2.04941L421.848 42.7054L422.762 43.1106L440.78 2.45458L439.866 2.04941ZM468.956 2.252V1.752H468.456V2.252H468.956ZM468.956 58H468.456V58.5H468.956V58ZM526.398 58V58.5H526.898V58H526.398ZM526.398 41.83H526.898V41.33H526.398V41.83ZM490.747 41.83H490.247V42.33H490.747V41.83ZM490.747 37.441V36.941H490.247V37.441H490.747ZM524.858 37.441V37.941H525.358V37.441H524.858ZM524.858 22.811H525.358V22.311H524.858V22.811ZM490.747 22.811H490.247V23.311H490.747V22.811ZM490.747 18.422V17.922H490.247V18.422H490.747ZM526.398 18.422V18.922H526.898V18.422H526.398ZM526.398 2.252H526.898V1.752H526.398V2.252ZM468.456 2.252V58H469.456V2.252H468.456ZM468.956 58.5H526.398V57.5H468.956V58.5ZM526.898 58V41.83H525.898V58H526.898ZM526.398 41.33H490.747V42.33H526.398V41.33ZM491.247 41.83V37.441H490.247V41.83H491.247ZM490.747 37.941H524.858V36.941H490.747V37.941ZM525.358 37.441V22.811H524.358V37.441H525.358ZM524.858 22.311H490.747V23.311H524.858V22.311ZM491.247 22.811V18.422H490.247V22.811H491.247ZM490.747 18.922H526.398V17.922H490.747V18.922ZM526.898 18.422V2.252H525.898V18.422H526.898ZM526.398 1.752H468.956V2.752H526.398V1.752ZM603.953 20.963L603.545 21.2519L603.953 21.8284L604.361 21.2519L603.953 20.963ZM590.709 2.252L591.117 1.96313L590.968 1.752H590.709V2.252ZM563.759 2.252V1.752H562.728L563.367 2.56166L563.759 2.252ZM593.096 39.443H593.596V39.2695L593.489 39.1333L593.096 39.443ZM593.096 58H592.596V58.5H593.096V58ZM614.81 58V58.5H615.31V58H614.81ZM614.81 39.443L614.417 39.1338L614.31 39.2699V39.443H614.81ZM644.07 2.252L644.463 2.56116L645.1 1.752H644.07V2.252ZM617.197 2.252V1.752H616.939L616.789 1.96313L617.197 2.252ZM604.361 20.6741L591.117 1.96313L590.301 2.54087L603.545 21.2519L604.361 20.6741ZM590.709 1.752H563.759V2.752H590.709V1.752ZM563.367 2.56166L592.704 39.7527L593.489 39.1333L564.152 1.94233L563.367 2.56166ZM592.596 39.443V58H593.596V39.443H592.596ZM593.096 58.5H614.81V57.5H593.096V58.5ZM615.31 58V39.443H614.31V58H615.31ZM615.203 39.7522L644.463 2.56116L643.677 1.94283L614.417 39.1338L615.203 39.7522ZM644.07 1.752H617.197V2.752H644.07V1.752ZM616.789 1.96313L603.545 20.6741L604.361 21.2519L617.605 2.54087L616.789 1.96313ZM676.734 60.04C688.313 60.04 697.62 57.4077 704.043 52.3185C710.483 47.2159 713.964 39.6901 713.964 30.049H712.964C712.964 39.4269 709.591 46.6466 703.422 51.5347C697.236 56.4363 688.179 59.04 676.734 59.04V60.04ZM713.964 30.049C713.964 20.4455 710.482 12.9579 704.042 7.88449C697.619 2.82469 688.312 0.211999 676.734 0.211999V1.212C688.18 1.212 697.237 3.7968 703.423 8.67001C709.592 13.5296 712.964 20.7105 712.964 30.049H713.964ZM676.734 0.211999C665.157 0.211999 655.869 2.80509 649.465 7.85578C643.044 12.9204 639.582 20.4085 639.582 30.049H640.582C640.582 20.6705 643.936 13.4901 650.084 8.64097C656.251 3.7779 665.289 1.212 676.734 1.212V0.211999ZM639.582 30.049C639.582 39.7272 643.043 47.2535 649.464 52.3472C655.868 57.4273 665.157 60.04 676.734 60.04V59.04C665.289 59.04 656.252 56.4552 650.086 51.5638C643.937 46.686 640.582 39.4668 640.582 30.049H639.582ZM676.734 40.791C670.989 40.791 667.642 39.4394 665.724 37.4854C663.807 35.5317 663.22 32.8783 663.22 30.049H662.22C662.22 32.9947 662.828 35.9622 665.011 38.1859C667.193 40.4091 670.853 41.791 676.734 41.791V40.791ZM663.22 30.049C663.22 27.2567 663.788 24.6438 665.694 22.7201C667.601 20.7948 670.947 19.461 676.734 19.461V18.461C670.818 18.461 667.157 19.8222 664.983 22.0164C662.808 24.2122 662.22 27.1433 662.22 30.049H663.22ZM676.734 19.461C682.559 19.461 685.925 20.8135 687.843 22.749C689.759 24.683 690.326 27.2966 690.326 30.049H691.326C691.326 27.1804 690.737 24.25 688.553 22.0452C686.37 19.842 682.691 18.461 676.734 18.461V19.461ZM690.326 30.049C690.326 32.8384 689.74 35.4926 687.812 37.4565C685.884 39.4206 682.518 40.791 676.734 40.791V41.791C682.655 41.791 686.334 40.3894 688.526 38.157C690.717 35.9244 691.326 32.9576 691.326 30.049H690.326ZM788.785 2.252H789.285V1.752H788.785V2.252ZM766.917 2.252V1.752H766.417V2.252H766.917ZM742.2 2.252H742.7V1.752H742.2V2.252ZM720.409 2.252V1.752H719.909V2.252H720.409ZM788.785 1.752H766.917V2.752H788.785V1.752ZM766.417 2.252V29.895H767.417V2.252H766.417ZM766.417 29.895C766.417 32.6719 765.741 35.3849 763.963 37.3988C762.195 39.4008 759.269 40.791 754.597 40.791V41.791C759.474 41.791 762.707 40.3322 764.712 38.0607C766.707 35.8011 767.417 32.8161 767.417 29.895H766.417ZM754.597 40.791C749.923 40.791 746.977 39.4187 745.191 37.425C743.395 35.4207 742.7 32.7087 742.7 29.895H741.7C741.7 32.8563 742.43 35.8423 744.446 38.0923C746.471 40.3528 749.723 41.791 754.597 41.791V40.791ZM742.7 29.895V2.252H741.7V29.895H742.7ZM742.2 1.752H720.409V2.752H742.2V1.752ZM719.909 2.252V30.819H720.909V2.252H719.909ZM719.909 30.819C719.909 40.4574 722.555 47.8007 728.284 52.7199C733.997 57.6252 742.686 60.04 754.597 60.04V59.04C742.793 59.04 734.387 56.6423 728.935 51.9611C723.5 47.2938 720.909 40.2766 720.909 30.819H719.909ZM754.597 60.04C766.471 60.04 775.159 57.6054 780.882 52.6909C786.619 47.7629 789.285 40.4205 789.285 30.819H788.285C788.285 40.2365 785.676 47.2546 780.23 51.9323C774.768 56.6236 766.362 59.04 754.597 59.04V60.04ZM789.285 30.819V2.252H788.285V30.819H789.285ZM853.105 36.671L852.958 36.1931L853.082 37.1705L853.105 36.671ZM796.356 2.252V1.752H795.856V2.252H796.356ZM796.356 58H795.856V58.5H796.356V58ZM818.147 58V58.5H818.647V58H818.147ZM818.147 44.987V44.487H817.647V44.987H818.147ZM842.248 58H841.748V58.5H842.248V58ZM864.039 58V58.5H864.539V58H864.039ZM818.147 27.739H817.647V28.239H818.147V27.739ZM818.147 19.577V19.077H817.647V19.577H818.147ZM853.252 37.1489C856.839 36.0454 859.638 34.1986 861.534 31.4597C863.427 28.7251 864.385 25.1515 864.385 20.655H863.385C863.385 25.0135 862.457 28.3699 860.712 30.8905C858.97 33.4069 856.379 35.1406 852.958 36.1931L853.252 37.1489ZM864.385 20.655C864.385 14.6495 862.437 9.89005 858.415 6.64642C854.411 3.41806 848.428 1.752 840.477 1.752V2.752C848.311 2.752 854.032 4.39693 857.787 7.42483C861.523 10.4374 863.385 14.8795 863.385 20.655H864.385ZM840.477 1.752H796.356V2.752H840.477V1.752ZM795.856 2.252V58H796.856V2.252H795.856ZM796.356 58.5H818.147V57.5H796.356V58.5ZM818.647 58V44.987H817.647V58H818.647ZM818.147 45.487H836.473V44.487H818.147V45.487ZM836.473 45.487C838.818 45.487 840.056 45.8251 840.754 46.5859C841.465 47.3613 841.748 48.7115 841.748 51.147H842.748C842.748 48.7315 842.492 47.0017 841.491 45.9098C840.475 44.8034 838.826 44.487 836.473 44.487V45.487ZM841.748 51.147V58H842.748V51.147H841.748ZM842.248 58.5H864.039V57.5H842.248V58.5ZM864.539 58V47.605H863.539V58H864.539ZM864.539 47.605C864.539 43.9974 863.446 41.1986 861.431 39.2651C859.422 37.3378 856.558 36.3292 853.128 36.1715L853.082 37.1705C856.351 37.3208 858.955 38.2757 860.738 39.9867C862.515 41.6914 863.539 44.2056 863.539 47.605H864.539ZM835.241 20.077C836.145 20.077 836.936 20.058 837.647 20.0967C838.356 20.1353 838.923 20.2298 839.369 20.4284C839.797 20.6189 840.125 20.9106 840.357 21.3875C840.598 21.8813 840.747 22.6004 840.747 23.658H841.747C841.747 22.5211 841.589 21.6328 841.257 20.9499C840.916 20.2502 840.407 19.796 839.776 19.5149C839.163 19.2418 838.451 19.139 837.701 19.0982C836.954 19.0575 836.109 19.077 835.241 19.077V20.077ZM840.747 23.658C840.747 24.7156 840.598 25.4347 840.357 25.9285C840.125 26.4054 839.797 26.6971 839.369 26.8876C838.923 27.0862 838.356 27.1807 837.647 27.2193C836.936 27.258 836.145 27.239 835.241 27.239V28.239C836.109 28.239 836.954 28.2585 837.701 28.2178C838.451 28.177 839.163 28.0742 839.776 27.8011C840.407 27.52 840.916 27.0658 841.257 26.3661C841.589 25.6832 841.747 24.7949 841.747 23.658H840.747ZM835.241 27.239H818.147V28.239H835.241V27.239ZM818.647 27.739V19.577H817.647V27.739H818.647ZM818.147 20.077H835.241V19.077H818.147V20.077ZM232.376 86.04H231.876V86.54H232.376V86.04ZM232.376 67.252H232.876V66.752H232.376V67.252ZM210.585 67.252V66.752H210.085V67.252H210.585ZM210.585 123H210.085V123.5H210.585V123ZM232.376 123V123.5H232.876V123H232.376ZM232.376 104.212V103.712H231.876V104.212H232.376ZM260.25 104.212H260.75V103.712H260.25V104.212ZM260.25 123H259.75V123.5H260.25V123ZM282.041 123V123.5H282.541V123H282.041ZM282.041 67.252H282.541V66.752H282.041V67.252ZM260.25 67.252V66.752H259.75V67.252H260.25ZM260.25 86.04V86.54H260.75V86.04H260.25ZM232.876 86.04V67.252H231.876V86.04H232.876ZM232.376 66.752H210.585V67.752H232.376V66.752ZM210.085 67.252V123H211.085V67.252H210.085ZM210.585 123.5H232.376V122.5H210.585V123.5ZM232.876 123V104.212H231.876V123H232.876ZM232.376 104.712H260.25V103.712H232.376V104.712ZM259.75 104.212V123H260.75V104.212H259.75ZM260.25 123.5H282.041V122.5H260.25V123.5ZM282.541 123V67.252H281.541V123H282.541ZM282.041 66.752H260.25V67.752H282.041V66.752ZM259.75 67.252V86.04H260.75V67.252H259.75ZM260.25 85.54H232.376V86.54H260.25V85.54ZM357.991 67.252H358.491V66.752H357.991V67.252ZM336.123 67.252V66.752H335.623V67.252H336.123ZM311.406 67.252H311.906V66.752H311.406V67.252ZM289.615 67.252V66.752H289.115V67.252H289.615ZM357.991 66.752H336.123V67.752H357.991V66.752ZM335.623 67.252V94.895H336.623V67.252H335.623ZM335.623 94.895C335.623 97.6719 334.947 100.385 333.169 102.399C331.401 104.401 328.475 105.791 323.803 105.791V106.791C328.68 106.791 331.913 105.332 333.918 103.061C335.913 100.801 336.623 97.8161 336.623 94.895H335.623ZM323.803 105.791C319.13 105.791 316.183 104.419 314.397 102.425C312.601 100.421 311.906 97.7087 311.906 94.895H310.906C310.906 97.8563 311.636 100.842 313.652 103.092C315.677 105.353 318.929 106.791 323.803 106.791V105.791ZM311.906 94.895V67.252H310.906V94.895H311.906ZM311.406 66.752H289.615V67.752H311.406V66.752ZM289.115 67.252V95.819H290.115V67.252H289.115ZM289.115 95.819C289.115 105.457 291.761 112.801 297.49 117.72C303.203 122.625 311.892 125.04 323.803 125.04V124.04C311.999 124.04 303.593 121.642 298.141 116.961C292.706 112.294 290.115 105.277 290.115 95.819H289.115ZM323.803 125.04C335.678 125.04 344.365 122.605 350.088 117.691C355.825 112.763 358.491 105.42 358.491 95.819H357.491C357.491 105.237 354.882 112.255 349.436 116.932C343.974 121.624 335.568 124.04 323.803 124.04V125.04ZM358.491 95.819V67.252H357.491V95.819H358.491ZM387.353 123V123.5H387.853V123H387.353ZM387.353 89.197L387.814 89.0019L386.853 89.197H387.353ZM401.675 123L401.215 123.195L401.344 123.5H401.675V123ZM421.926 123V123.5H422.258L422.387 123.195L421.926 123ZM436.171 89.274H436.671L435.711 89.0795L436.171 89.274ZM436.171 123H435.671V123.5H436.171V123ZM457.962 123V123.5H458.462V123H457.962ZM457.962 67.252H458.462V66.752H457.962V67.252ZM423.928 67.252V66.752H423.592L423.465 67.064L423.928 67.252ZM411.839 97.051L411.377 97.24L411.841 98.3774L412.303 97.239L411.839 97.051ZM399.673 67.252L400.136 67.063L400.009 66.752H399.673V67.252ZM365.562 67.252V66.752H365.062V67.252H365.562ZM365.562 123H365.062V123.5H365.562V123ZM387.853 123V89.197H386.853V123H387.853ZM386.893 89.3921L401.215 123.195L402.136 122.805L387.814 89.0019L386.893 89.3921ZM401.675 123.5H421.926V122.5H401.675V123.5ZM422.387 123.195L436.632 89.4685L435.711 89.0795L421.466 122.805L422.387 123.195ZM435.671 89.274V123H436.671V89.274H435.671ZM436.171 123.5H457.962V122.5H436.171V123.5ZM458.462 123V67.252H457.462V123H458.462ZM457.962 66.752H423.928V67.752H457.962V66.752ZM423.465 67.064L411.376 96.863L412.303 97.239L424.392 67.44L423.465 67.064ZM412.302 96.862L400.136 67.063L399.211 67.441L411.377 97.24L412.302 96.862ZM399.673 66.752H365.562V67.752H399.673V66.752ZM365.062 67.252V123H366.062V67.252H365.062ZM365.562 123.5H387.353V122.5H365.562V123.5ZM545.687 123V123.5H546.465L546.141 122.792L545.687 123ZM520.2 67.252L520.654 67.0441L520.521 66.752H520.2V67.252ZM488.861 67.252V66.752H488.539L488.406 67.0441L488.861 67.252ZM463.374 123L462.919 122.792L462.595 123.5H463.374V123ZM486.474 123V123.5H486.8L486.931 123.202L486.474 123ZM490.478 113.914V113.414H490.151L490.02 113.712L490.478 113.914ZM518.583 113.914L519.04 113.712L518.909 113.414H518.583V113.914ZM522.586 123L522.129 123.202L522.26 123.5H522.586V123ZM504.569 82.344L505.026 82.1415L504.571 81.1147L504.112 82.1397L504.569 82.344ZM511.729 98.514V99.014H512.498L512.187 98.3115L511.729 98.514ZM497.331 98.514L496.874 98.3097L496.559 99.014H497.331V98.514ZM546.141 122.792L520.654 67.0441L519.745 67.4599L545.232 123.208L546.141 122.792ZM520.2 66.752H488.861V67.752H520.2V66.752ZM488.406 67.0441L462.919 122.792L463.828 123.208L489.315 67.4599L488.406 67.0441ZM463.374 123.5H486.474V122.5H463.374V123.5ZM486.931 123.202L490.935 114.116L490.02 113.712L486.016 122.798L486.931 123.202ZM490.478 114.414H518.583V113.414H490.478V114.414ZM518.125 114.116L522.129 123.202L523.044 122.798L519.04 113.712L518.125 114.116ZM522.586 123.5H545.687V122.5H522.586V123.5ZM504.111 82.5465L511.272 98.7165L512.187 98.3115L505.026 82.1415L504.111 82.5465ZM511.729 98.014H497.331V99.014H511.729V98.014ZM497.787 98.7183L505.025 82.5483L504.112 82.1397L496.874 98.3097L497.787 98.7183ZM583.484 67.252L583.902 66.9767L583.754 66.752H583.484V67.252ZM551.144 67.252V66.752H550.644V67.252H551.144ZM551.144 123H550.644V123.5H551.144V123ZM572.935 123V123.5H573.435V123H572.935ZM572.935 89.736L573.353 89.4607L572.435 88.0701V89.736H572.935ZM594.88 123L594.463 123.275L594.611 123.5H594.88V123ZM627.22 123V123.5H627.72V123H627.22ZM627.22 67.252H627.72V66.752H627.22V67.252ZM605.43 67.252V66.752H604.93V67.252H605.43ZM605.43 100.516L605.012 100.791L605.93 102.182V100.516H605.43ZM583.484 66.752H551.144V67.752H583.484V66.752ZM550.644 67.252V123H551.644V67.252H550.644ZM551.144 123.5H572.935V122.5H551.144V123.5ZM573.435 123V89.736H572.435V123H573.435ZM572.518 90.0113L594.463 123.275L595.298 122.725L573.353 89.4607L572.518 90.0113ZM594.88 123.5H627.22V122.5H594.88V123.5ZM627.72 123V67.252H626.72V123H627.72ZM627.22 66.752H605.43V67.752H627.22V66.752ZM604.93 67.252V100.516H605.93V67.252H604.93ZM605.847 100.241L583.902 66.9767L583.067 67.5273L605.012 100.791L605.847 100.241ZM635.514 67.252V66.752H635.014V67.252H635.514ZM635.514 123H635.014V123.5H635.514V123ZM657.305 123V123.5H657.805V123H657.305ZM657.305 67.252H657.805V66.752H657.305V67.252ZM635.014 67.252V123H636.014V67.252H635.014ZM635.514 123.5H657.305V122.5H635.514V123.5ZM657.805 123V67.252H656.805V123H657.805ZM657.305 66.752H635.514V67.752H657.305V66.752ZM664.521 85.501H664.021V86.001H664.521V85.501ZM687.005 85.501H687.505V85.001H687.005V85.501ZM687.005 123H686.505V123.5H687.005V123ZM708.796 123V123.5H709.296V123H708.796ZM708.796 85.501V85.001H708.296V85.501H708.796ZM731.203 85.501V86.001H731.703V85.501H731.203ZM731.203 67.252H731.703V66.752H731.203V67.252ZM664.521 67.252V66.752H664.021V67.252H664.521ZM664.521 86.001H687.005V85.001H664.521V86.001ZM686.505 85.501V123H687.505V85.501H686.505ZM687.005 123.5H708.796V122.5H687.005V123.5ZM709.296 123V85.501H708.296V123H709.296ZM708.796 86.001H731.203V85.001H708.796V86.001ZM731.703 85.501V67.252H730.703V85.501H731.703ZM731.203 66.752H664.521V67.752H731.203V66.752ZM664.021 67.252V85.501H665.021V67.252H664.021ZM776.075 85.963L775.667 86.2519L776.075 86.8284L776.483 86.2519L776.075 85.963ZM762.831 67.252L763.239 66.9631L763.09 66.752H762.831V67.252ZM735.881 67.252V66.752H734.85L735.489 67.5617L735.881 67.252ZM765.218 104.443H765.718V104.27L765.611 104.133L765.218 104.443ZM765.218 123H764.718V123.5H765.218V123ZM786.932 123V123.5H787.432V123H786.932ZM786.932 104.443L786.539 104.134L786.432 104.27V104.443H786.932ZM816.192 67.252L816.585 67.5612L817.222 66.752H816.192V67.252ZM789.319 67.252V66.752H789.061L788.911 66.9631L789.319 67.252ZM776.483 85.6741L763.239 66.9631L762.423 67.5409L775.667 86.2519L776.483 85.6741ZM762.831 66.752H735.881V67.752H762.831V66.752ZM735.489 67.5617L764.826 104.753L765.611 104.133L736.274 66.9423L735.489 67.5617ZM764.718 104.443V123H765.718V104.443H764.718ZM765.218 123.5H786.932V122.5H765.218V123.5ZM787.432 123V104.443H786.432V123H787.432ZM787.325 104.752L816.585 67.5612L815.799 66.9428L786.539 104.134L787.325 104.752ZM816.192 66.752H789.319V67.752H816.192V66.752ZM788.911 66.9631L775.667 85.6741L776.483 86.2519L789.727 67.5409L788.911 66.9631Z" fill="#2F0D30"/>
</svg>
