<svg width="115" height="38" viewBox="0 0 115 38" fill="none" xmlns="http://www.w3.org/2000/svg">
    <g filter="url(#filter0_d_682_2857)">
        <path d="M37.303 5.65552H36.3741L38.4239 11.3516H39.4168L41.4666 5.65552H40.5376L38.9523 10.2947H38.8883L37.303 5.65552ZM43.6353 11.4378C44.567 11.4378 45.2262 10.9789 45.4153 10.2836L44.6282 10.1417C44.478 10.545 44.1164 10.7508 43.6436 10.7508C42.9316 10.7508 42.4532 10.2891 42.431 9.46586H45.4681V9.17105C45.4681 7.62744 44.5448 7.0239 43.5769 7.0239C42.3865 7.0239 41.6022 7.9306 41.6022 9.24336C41.6022 10.57 42.3754 11.4378 43.6353 11.4378ZM42.4338 8.84286C42.4671 8.23654 42.9066 7.71088 43.5824 7.71088C44.2277 7.71088 44.6504 8.18926 44.6532 8.84286H42.4338ZM46.3908 11.3516H47.2224V8.74273C47.2224 8.18369 47.6535 7.78041 48.2431 7.78041C48.4156 7.78041 48.6103 7.811 48.677 7.83047V7.03503C48.5936 7.0239 48.4295 7.01556 48.3238 7.01556C47.8232 7.01556 47.3949 7.29925 47.2391 7.75816H47.1946V7.07953H46.3908V11.3516ZM49.3967 11.3516H50.2283V7.07953H49.3967V11.3516ZM49.8167 6.42037C50.1031 6.42037 50.3423 6.19787 50.3423 5.9253C50.3423 5.65274 50.1031 5.42745 49.8167 5.42745C49.5274 5.42745 49.291 5.65274 49.291 5.9253C49.291 6.19787 49.5274 6.42037 49.8167 6.42037ZM53.3802 7.07953H52.4596V6.69571C52.4596 6.31746 52.6153 6.11165 53.0214 6.11165C53.1938 6.11165 53.3162 6.15058 53.3941 6.17562L53.5888 5.50255C53.4719 5.45805 53.23 5.38852 52.8934 5.38852C52.2176 5.38852 51.6252 5.78346 51.6252 6.58446V7.07953H50.966V7.74703H51.6252V11.3516H52.4596V7.74703H53.3802V7.07953ZM54.2382 11.3516H55.0698V7.07953H54.2382V11.3516ZM54.6582 6.42037C54.9446 6.42037 55.1838 6.19787 55.1838 5.9253C55.1838 5.65274 54.9446 5.42745 54.6582 5.42745C54.3689 5.42745 54.1325 5.65274 54.1325 5.9253C54.1325 6.19787 54.3689 6.42037 54.6582 6.42037ZM58.0297 11.4378C58.9615 11.4378 59.6206 10.9789 59.8098 10.2836L59.0227 10.1417C58.8725 10.545 58.5109 10.7508 58.0381 10.7508C57.3261 10.7508 56.8477 10.2891 56.8255 9.46586H59.8626V9.17105C59.8626 7.62744 58.9392 7.0239 57.9713 7.0239C56.781 7.0239 55.9966 7.9306 55.9966 9.24336C55.9966 10.57 56.7698 11.4378 58.0297 11.4378ZM56.8282 8.84286C56.8616 8.23654 57.3011 7.71088 57.9769 7.71088C58.6222 7.71088 59.0449 8.18926 59.0477 8.84286H56.8282ZM62.3845 11.435C63.1633 11.435 63.4692 10.9594 63.6194 10.6868H63.6889V11.3516H64.5011V5.65552H63.6695V7.77207H63.6194C63.4692 7.50785 63.1855 7.0239 62.3901 7.0239C61.3582 7.0239 60.5989 7.83882 60.5989 9.22389C60.5989 10.6062 61.3471 11.435 62.3845 11.435ZM62.5681 10.7258C61.8255 10.7258 61.4389 10.0722 61.4389 9.21555C61.4389 8.36726 61.8171 7.73035 62.5681 7.73035C63.294 7.73035 63.6834 8.32276 63.6834 9.21555C63.6834 10.1139 63.2857 10.7258 62.5681 10.7258ZM67.8275 11.3516H68.6396V10.6868H68.7091C68.8593 10.9594 69.1653 11.435 69.944 11.435C70.9787 11.435 71.7296 10.6062 71.7296 9.22389C71.7296 7.83882 70.9675 7.0239 69.9357 7.0239C69.143 7.0239 68.8565 7.50785 68.7091 7.77207H68.6591V5.65552H67.8275V11.3516ZM68.6424 9.21555C68.6424 8.32276 69.0318 7.73035 69.7577 7.73035C70.5114 7.73035 70.8897 8.36726 70.8897 9.21555C70.8897 10.0722 70.5003 10.7258 69.7577 10.7258C69.0429 10.7258 68.6424 10.1139 68.6424 9.21555ZM73.0361 12.9536C73.7231 12.9536 74.1569 12.5948 74.4045 11.9217L76.1706 7.08787L75.2722 7.07953L74.1903 10.3948H74.1458L73.0639 7.07953H72.1739L73.737 11.4072L73.6341 11.6909C73.4227 12.2583 73.1251 12.3055 72.669 12.1804L72.4687 12.8618C72.5688 12.9063 72.7858 12.9536 73.0361 12.9536Z" fill="white"/>
        <path d="M73.0768 30.8737H75.1472V26.5099C75.7683 26.9877 76.4372 27.2107 77.2176 27.2107C78.3643 27.2107 79.4632 26.701 80.148 25.9047C80.7532 25.204 81.1195 24.2484 81.1195 23.1973C81.1195 20.9198 79.4313 19.168 77.3291 19.168C76.4532 19.168 75.6728 19.4546 75.0676 19.9483V19.3272H73.0768V30.8737ZM75.1472 22.0347C75.5772 21.4613 76.262 21.0791 77.0583 21.0791C78.2687 21.0791 79.0491 22.0825 79.0491 23.1973C79.0491 24.4077 78.1732 25.2995 77.0106 25.2995C76.2302 25.2995 75.5454 24.9173 75.1472 24.344V22.0347Z" fill="white"/>
        <path d="M88.0474 24.344C87.6492 24.9173 86.9644 25.2995 86.184 25.2995C85.0214 25.2995 84.1455 24.4077 84.1455 23.1973C84.1455 22.0825 84.9259 21.0791 86.1362 21.0791C86.9325 21.0791 87.6174 21.4613 88.0474 22.0347V24.344ZM90.1178 19.3272H88.127V19.9483C87.5218 19.4546 86.7414 19.168 85.8655 19.168C83.7632 19.168 82.0751 20.9198 82.0751 23.1973C82.0751 24.2484 82.4573 25.204 83.0625 25.9047C83.7473 26.701 84.8303 27.2107 85.977 27.2107C86.7574 27.2107 87.49 26.9718 88.127 26.4303V27.0514H90.1178V19.3272Z" fill="white"/>
        <path d="M91.4274 26.1755C92.3352 26.8444 93.466 27.2107 94.533 27.2107C96.1575 27.2107 97.6068 26.3029 97.6068 24.8217C97.6068 22.1462 93.8641 22.5443 93.8641 21.541C93.8641 21.1428 94.3419 20.9198 94.9153 20.9198C95.4727 20.9198 95.9982 21.1587 96.3964 21.4454L97.3679 19.9483C96.8583 19.5502 95.7594 19.168 94.756 19.168C93.2271 19.168 91.7937 20.0917 91.7937 21.5728C91.7937 24.0573 95.5364 23.6432 95.5364 24.8058C95.5364 25.188 95.1064 25.4588 94.549 25.4588C93.7686 25.4588 92.9564 25.1721 92.4308 24.6943L91.4274 26.1755Z" fill="white"/>
        <path d="M98.3566 26.1755C99.2643 26.8444 100.395 27.2107 101.462 27.2107C103.087 27.2107 104.536 26.3029 104.536 24.8217C104.536 22.1462 100.793 22.5443 100.793 21.541C100.793 21.1428 101.271 20.9198 101.844 20.9198C102.402 20.9198 102.927 21.1587 103.326 21.4454L104.297 19.9483C103.787 19.5502 102.688 19.168 101.685 19.168C100.156 19.168 98.7229 20.0917 98.7229 21.5728C98.7229 24.0573 102.465 23.6432 102.465 24.8058C102.465 25.188 102.035 25.4588 101.478 25.4588C100.698 25.4588 99.8855 25.1721 99.3599 24.6943L98.3566 26.1755Z" fill="white"/>
        <path d="M13.2641 17.4048C13.2641 12.6528 17.1741 8.80691 21.9894 8.80691C25.2963 8.80691 28.1775 10.6196 29.6587 13.3008C30.0227 13.9598 30.8617 14.2041 31.5326 13.8465C32.2035 13.4889 32.4522 12.6648 32.0881 12.0058C30.1442 8.48704 26.3528 6.0918 21.9894 6.0918C15.6404 6.0918 10.5 11.1603 10.5 17.4048C10.5 23.6492 15.6404 28.7178 21.9894 28.7178C26.3528 28.7178 30.1442 26.3225 32.0881 22.8037C32.4522 22.1447 32.2035 21.3206 31.5326 20.963C30.8617 20.6054 30.0227 20.8498 29.6587 21.5087C28.1775 24.19 25.2963 26.0026 21.9894 26.0026C17.1741 26.0026 13.2641 22.1568 13.2641 17.4048Z" fill="white"/>
        <path d="M24.0902 16.0472C24.0902 16.6503 23.8233 17.1922 23.3992 17.565V20.7987H20.6351V17.565C20.211 17.1922 19.9441 16.6503 19.9441 16.0472C19.9441 14.9226 20.8722 14.0109 22.0171 14.0109C23.1621 14.0109 24.0902 14.9226 24.0902 16.0472Z" fill="white"/>
        <path d="M42.0719 24.2373C41.7375 24.74 41.0688 25.2427 40.2249 25.2427C38.9669 25.2427 38.0912 24.363 38.0912 23.1691C38.0912 22.0066 38.9829 21.0797 40.1771 21.0797C40.9255 21.0797 41.5465 21.4567 41.9605 21.9908L43.4254 20.7184C42.7088 19.8072 41.5146 19.1945 40.1771 19.1945C37.8205 19.1945 36.0212 20.954 36.0212 23.1691C36.0212 25.3684 37.7727 27.1279 40.1612 27.1279C41.6101 27.1279 42.7566 26.6095 43.6642 25.4155L42.0719 24.2373Z" fill="white"/>
        <path d="M47.0086 19.3516H44.9387V26.9708H47.0086V19.3516ZM44.6202 16.6496C44.6202 17.3879 45.2253 17.9535 45.9736 17.9535C46.722 17.9535 47.3271 17.3879 47.3271 16.6496C47.3271 15.9112 46.722 15.3457 45.9736 15.3457C45.2253 15.3457 44.6202 15.9112 44.6202 16.6496Z" fill="white"/>
        <path d="M50.1976 19.3516H48.048L51.5988 26.9708H53.0318L56.5826 19.3516H54.4331L52.3153 24.0017L50.1976 19.3516Z" fill="white"/>
        <path d="M59.6823 19.3516H57.6123V26.9708H59.6823V19.3516ZM57.2938 16.6496C57.2938 17.3879 57.8989 17.9535 58.6473 17.9535C59.3956 17.9535 60.0007 17.3879 60.0007 16.6496C60.0007 15.9112 59.3956 15.3457 58.6473 15.3457C57.8989 15.3457 57.2938 15.9112 57.2938 16.6496Z" fill="white"/>
        <path d="M67.1704 24.2373C66.836 24.74 66.1672 25.2427 65.3233 25.2427C64.0654 25.2427 63.1896 24.363 63.1896 23.1691C63.1896 22.0066 64.0813 21.0797 65.2755 21.0797C66.0239 21.0797 66.6449 21.4567 67.0589 21.9908L68.5238 20.7184C67.8073 19.8072 66.6131 19.1945 65.2755 19.1945C62.919 19.1945 61.1197 20.954 61.1197 23.1691C61.1197 25.3684 62.8712 27.1279 65.2596 27.1279C66.7086 27.1279 67.8551 26.6095 68.7627 25.4155L67.1704 24.2373Z" fill="white"/>
    </g>
    <defs>
        <filter id="filter0_d_682_2857" x="-2.98092" y="0" width="120.962" height="42.6415" filterUnits="userSpaceOnUse" colorInterpolationFilters="sRGB">
            <feFlood floodOpacity="0" result="BackgroundImageFix"/>
            <feColorMatrix in="SourceAlpha" type="matrix" values="0 0 0 0 0 0 0 0 0 0 0 0 0 0 0 0 0 0 127 0" result="hardAlpha"/>
            <feOffset dy="3.48092"/>
            <feGaussianBlur stdDeviation="1.74046"/>
            <feComposite in2="hardAlpha" operator="out"/>
            <feColorMatrix type="matrix" values="0 0 0 0 0 0 0 0 0 0 0 0 0 0 0 0 0 0 0.25 0"/>
            <feBlend mode="normal" in2="BackgroundImageFix" result="effect1_dropShadow_682_2857"/>
            <feBlend mode="normal" in="SourceGraphic" in2="effect1_dropShadow_682_2857" result="shape"/>
        </filter>
    </defs>
</svg>
