<svg width="40" height="40" viewBox="0 0 40 40" fill="none" xmlns="http://www.w3.org/2000/svg">
<path d="M1.24934 7.88254C1.85818 7.88254 2.35165 7.38466 2.35165 6.77037V2.22434H6.85694C7.46578 2.22434 7.95925 1.72645 7.95925 1.11217C7.95925 0.497887 7.46578 0 6.85694 0H1.24934C0.640506 0 0.147034 0.497887 0.147034 1.11217V6.77037C0.147034 7.38466 0.640506 7.88254 1.24934 7.88254Z" fill="white"/>
<path d="M38.7505 0H33.1434C32.5341 0 32.0406 0.497887 32.0406 1.11217C32.0406 1.72645 32.5341 2.22434 33.1434 2.22434H37.6482V6.77037C37.6482 7.38466 38.1417 7.88254 38.751 7.88254C39.3594 7.88254 39.8528 7.38466 39.8528 6.77037V1.11217C39.8524 0.497887 39.3589 0 38.7505 0Z" fill="white"/>
<path d="M6.8565 37.775H2.35165V33.2294C2.35165 32.6151 1.85818 32.1172 1.24934 32.1172C0.640506 32.1172 0.147034 32.6151 0.147034 33.2294V38.8871C0.147034 39.5014 0.640506 39.9993 1.24934 39.9993H6.8565C7.46534 39.9993 7.95881 39.5014 7.95881 38.8871C7.95881 38.2728 7.46534 37.775 6.8565 37.775Z" fill="white"/>
<path d="M38.7505 32.1172C38.1413 32.1172 37.6478 32.6151 37.6478 33.2294V37.775H33.1434C32.5341 37.775 32.0406 38.2728 32.0406 38.8871C32.0406 39.5014 32.5341 39.9993 33.1434 39.9993H38.7505C39.3589 39.9993 39.8524 39.5014 39.8524 38.8871V33.2294C39.8524 32.6151 39.3589 32.1172 38.7505 32.1172Z" fill="white"/>
<path d="M28.4757 11.9427C28.027 11.5289 27.3295 11.5612 26.9189 12.0149L17.5601 22.3665L15.0686 19.6686C14.655 19.2199 13.9571 19.1951 13.511 19.6133C13.0658 20.032 13.0412 20.7356 13.4561 21.1848L16.7622 24.7652C16.9705 24.9909 17.2627 25.1193 17.5684 25.1193C17.5702 25.1193 17.5724 25.1193 17.5746 25.1193C17.882 25.1175 18.1751 24.986 18.383 24.7568L28.5476 13.5138C28.9573 13.0598 28.9257 12.3565 28.4757 11.9427Z" fill="white"/>
<path d="M29.6126 37.7859C28.7568 37.6642 28.1629 37.3265 27.797 36.7543C27.0062 35.5156 27.3746 33.3797 27.5839 32.6597C27.5847 32.6575 27.5847 32.6557 27.5856 32.6535C29.581 30.7704 31.1557 28.492 32.1409 26.0128C33.4928 22.6121 34.1534 18.9317 34.1604 14.7464C34.1587 14.6145 34.1613 14.4826 34.163 14.3507C34.1674 14.1122 34.1709 13.8736 34.1587 13.6342C34.0472 11.2824 33.3292 9.01693 32.0255 6.90146C30.7877 4.89487 29.1454 3.25339 27.1456 2.02262C25.0972 0.762188 22.8724 0.084177 20.5327 0.00717055C18.2487 -0.0662954 16.0484 0.424953 13.996 1.47206C11.3734 2.81215 9.303 4.81388 7.84189 7.42192C6.69045 9.48207 6.08249 11.6449 6.03556 13.8493C6.0031 15.408 6.07021 16.9796 6.23558 18.5193C6.52026 21.1866 7.03303 23.5225 7.80329 25.6601C8.9091 28.7257 10.8826 31.1218 12.6187 32.777C12.7468 33.2957 13.2065 35.4443 12.377 36.749C12.0116 37.3243 11.4168 37.6633 10.5588 37.7855C9.95614 37.8713 9.53636 38.4343 9.62146 39.0424C9.6991 39.5978 10.1706 39.9988 10.7115 39.9988C10.7628 39.9988 10.8146 39.9952 10.8668 39.9881C12.356 39.7761 13.5197 39.0711 14.232 37.9501C14.8488 36.98 15.047 35.8484 15.0646 34.8322C16.1081 35.5864 17.1793 36.1325 18.647 36.3741C19.1339 36.4547 19.5883 36.4941 20.0357 36.4941C21.9789 36.4941 23.4711 35.7023 24.7941 34.8464C24.8994 34.7787 25.0016 34.7074 25.1042 34.6371C25.0989 35.701 25.2832 36.9167 25.9394 37.9497C26.6522 39.0707 27.8155 39.7757 29.3046 39.9877C29.3568 39.9952 29.409 39.9983 29.4604 39.9983C30.0008 39.9983 30.4723 39.5974 30.5499 39.0419C30.6346 38.4347 30.2157 37.8718 29.6126 37.7859ZM23.6045 32.9744C21.7258 34.1892 20.6581 34.4534 19.0027 34.1799C17.3714 33.9113 16.4248 33.1607 15.0141 31.9587C13.3056 30.5044 11.0277 28.099 9.87368 24.9006C9.16527 22.9343 8.69154 20.7688 8.42616 18.2816C8.27088 16.8357 8.20772 15.3602 8.23842 13.8975C8.2779 12.0636 8.79023 10.2526 9.76095 8.51594C11.0036 6.29736 12.763 4.59525 14.9904 3.45697C16.5937 2.63867 18.3053 2.22398 20.0761 2.22398C20.2037 2.22398 20.3313 2.2262 20.4599 2.23062C22.4149 2.29479 24.2774 2.86349 25.9968 3.92167C27.701 4.97011 29.0989 6.36817 30.153 8.07692C31.2566 9.86621 31.8637 11.7719 31.9562 13.7409C31.9654 13.933 31.9624 14.1237 31.9589 14.3144C31.9562 14.4671 31.9536 14.6198 31.9554 14.7579C31.9492 18.6401 31.3404 22.0514 30.0946 25.1856C28.8559 28.3026 26.5508 31.0691 23.6045 32.9744Z" fill="white"/>
</svg>

