<svg fill="none" width="24" height="24" viewBox="0 0 24 24" xmlns="http://www.w3.org/2000/svg"><path d="m23 11h-19.52l5-4.78004c.09455-.09324.16981-.20419.22148-.32652.05168-.12232.07875-.25362.07968-.38641s-.02431-.26446-.07426-.3875c-.04996-.12303-.12366-.23502-.2169-.32957s-.20419-.16982-.32651-.22149c-.12233-.05167-.25363-.07875-.38642-.07968-.13279-.00092-.26446.02431-.38749.07427-.12304.04996-.23503.12366-.32958.2169l-6.750002 6.50004c-.089819.0845-.161299.1866-.2099999.3-.0522569.1233-.0791851.256-.0791851.39 0 .1339.0269282.2666.0791851.39.0487009.1133.1201809.2154.2099999.3l6.750002 6.5c.18538.1786.43253.2789.69.28.1347-.0006.26791-.0283.39164-.0816.12372-.0532.23541-.1309.32836-.2284.18625-.1874.29079-.4409.29079-.705 0-.2642-.10454-.5177-.29079-.705l-4.99-4.72h19.52c.2652 0 .5196-.1054.7071-.2929.1875-.1876.2929-.4419.2929-.7071 0-.2653-.1054-.5196-.2929-.7071-.1875-.1876-.4419-.2929-.7071-.2929z" fill="current"/></svg>