<svg width="25" height="24" viewBox="0 0 25 24" fill="none" xmlns="http://www.w3.org/2000/svg">
<g clip-path="url(#clip0_12014_12714)">
<path d="M21 8.2484V9.2484C21.0342 11.0813 20.3895 12.8621 19.19 14.2484C19.1369 14.3121 19.1002 14.3879 19.083 14.469C19.0658 14.5502 19.0686 14.6343 19.0913 14.7141C19.114 14.7939 19.1557 14.8669 19.213 14.9269C19.2703 14.9869 19.3413 15.0321 19.42 15.0584C20.4959 15.3995 21.5293 15.8625 22.5 16.4384C22.576 16.4823 22.6622 16.5054 22.75 16.5054C22.8378 16.5054 22.924 16.4823 23 16.4384C23.0757 16.3924 23.1384 16.3279 23.1821 16.2509C23.2259 16.1739 23.2493 16.087 23.25 15.9984V6.9984C23.2477 6.19685 22.988 5.41724 22.5091 4.77449C22.0302 4.13174 21.3574 3.65986 20.59 3.4284C20.4957 3.39934 20.3948 3.39887 20.3002 3.42704C20.2056 3.45521 20.1214 3.51076 20.0583 3.58669C19.9952 3.66262 19.956 3.75554 19.9456 3.85372C19.9352 3.9519 19.9542 4.05095 20 4.1384C20.6618 5.407 21.005 6.81756 21 8.2484Z" fill="#FF6B4E"/>
<path d="M5.58001 15.0792C5.65867 15.0528 5.72973 15.0077 5.78701 14.9477C5.84429 14.8877 5.88607 14.8146 5.90873 14.7348C5.93139 14.655 5.93424 14.5709 5.91704 14.4898C5.89983 14.4086 5.8631 14.3329 5.81001 14.2692C4.61051 12.8828 3.96586 11.102 4.00001 9.26915V8.26915C4.00224 6.84875 4.34517 5.4496 5.00001 4.18915C5.0473 4.10084 5.06697 4.00035 5.05647 3.90072C5.04597 3.80109 5.00579 3.70691 4.94112 3.6304C4.87646 3.55388 4.7903 3.49855 4.69382 3.47158C4.59734 3.44461 4.49498 3.44725 4.40001 3.47915C3.6255 3.68004 2.94189 4.13739 2.46064 4.77663C1.9794 5.41587 1.7289 6.19929 1.75001 6.99915V15.9992C1.75076 16.0877 1.77412 16.1746 1.81788 16.2516C1.86163 16.3286 1.92432 16.3932 2.00001 16.4392C2.07602 16.483 2.16224 16.5061 2.25001 16.5061C2.33778 16.5061 2.424 16.483 2.50001 16.4392C3.47164 15.8702 4.50499 15.4139 5.58001 15.0792Z" fill="#FF6B4E"/>
<path d="M23.03 18.0003C21.4666 16.8724 19.6854 16.0823 17.8 15.6803C17.6747 15.6506 17.5429 15.6684 17.43 15.7303C15.9336 16.5962 14.2285 17.0354 12.5 17.0003C10.7706 17.0324 9.06541 16.5897 7.57001 15.7203C7.45712 15.6584 7.32528 15.6406 7.20001 15.6703C5.31378 16.0753 3.53261 16.8688 1.97001 18.0003C1.65658 18.2304 1.40242 18.5318 1.22853 18.8796C1.05465 19.2273 0.96603 19.6115 0.970007 20.0003V23.0003C0.970007 23.1329 1.02269 23.2601 1.11645 23.3538C1.21022 23.4476 1.3374 23.5003 1.47001 23.5003H23.5C23.6326 23.5003 23.7598 23.4476 23.8536 23.3538C23.9473 23.2601 24 23.1329 24 23.0003V20.0003C24.0075 19.6141 23.9235 19.2315 23.7549 18.884C23.5863 18.5364 23.3379 18.2336 23.03 18.0003ZM20.75 20.0903C20.7474 20.2884 20.6676 20.4777 20.5275 20.6178C20.3874 20.7578 20.1981 20.8377 20 20.8403H18C17.8011 20.8403 17.6103 20.7613 17.4697 20.6206C17.329 20.48 17.25 20.2892 17.25 20.0903C17.25 19.8914 17.329 19.7006 17.4697 19.56C17.6103 19.4193 17.8011 19.3403 18 19.3403H20C20.1972 19.3403 20.3865 19.4179 20.5268 19.5564C20.6672 19.6949 20.7474 19.8831 20.75 20.0803V20.0903ZM7.75001 20.0903C7.74742 20.2884 7.66757 20.4777 7.52747 20.6178C7.38738 20.7578 7.19811 20.8377 7.00001 20.8403H5.00001C4.80109 20.8403 4.61033 20.7613 4.46968 20.6206C4.32903 20.48 4.25001 20.2892 4.25001 20.0903C4.25001 19.8914 4.32903 19.7006 4.46968 19.56C4.61033 19.4193 4.80109 19.3403 5.00001 19.3403H7.00001C7.1972 19.3403 7.38646 19.4179 7.52683 19.5564C7.6672 19.6949 7.74738 19.8831 7.75001 20.0803V20.0903ZM9.00001 20.0003C9.00257 19.8685 9.05607 19.7428 9.14929 19.6496C9.24251 19.5563 9.3682 19.5028 9.50001 19.5003H15.5C15.567 19.5016 15.6331 19.5161 15.6944 19.5429C15.7558 19.5697 15.8113 19.6084 15.8577 19.6567C15.9042 19.705 15.9406 19.762 15.965 19.8243C15.9895 19.8867 16.0013 19.9533 16 20.0203V22.0203C16 22.1529 15.9473 22.2801 15.8536 22.3738C15.7598 22.4676 15.6326 22.5203 15.5 22.5203H9.50001C9.3674 22.5203 9.24022 22.4676 9.14645 22.3738C9.05269 22.2801 9.00001 22.1529 9.00001 22.0203V20.0003Z" fill="#FF6B4E"/>
<path d="M12.5 16C16.23 16 20 13.92 20 9.28V8.28C20.0186 7.27666 19.8393 6.27949 19.4724 5.34545C19.1055 4.41141 18.5582 3.5588 17.8617 2.83633C17.1652 2.11386 16.3332 1.53567 15.4133 1.1348C14.4933 0.733923 13.5034 0.518217 12.5 0.5C10.4789 0.536827 8.55482 1.37312 7.14909 2.82571C5.74335 4.27831 4.97058 6.2288 5.00002 8.25V9.25C5.00002 13.92 8.77002 16 12.5 16ZM12.5 2.58C13.2271 2.58393 13.9462 2.73119 14.6163 3.01336C15.2864 3.29553 15.8943 3.70707 16.4051 4.22442C16.916 4.74178 17.3198 5.3548 17.5935 6.0284C17.8671 6.70199 18.0053 7.42295 18 8.15C18 11.22 15.54 11.86 12.5 11.86C9.46002 11.86 7.00002 11.22 7.00002 8.15C6.99475 7.42295 7.1329 6.70199 7.40658 6.0284C7.68025 5.3548 8.08407 4.74178 8.59492 4.22442C9.10578 3.70707 9.71364 3.29553 10.3837 3.01336C11.0538 2.73119 11.773 2.58393 12.5 2.58Z" fill="#FF6B4E"/>
</g>
<defs>
<clipPath id="clip0_12014_12714">
<rect width="24" height="24" fill="white" transform="translate(0.5)"/>
</clipPath>
</defs>
</svg>
