<svg xmlns="http://www.w3.org/2000/svg" width="54" height="54" viewBox="0 0 54 54" fill="none">
<path d="M48.6597 24.6444H43.6157V20.2246C43.6157 17.3645 41.2758 15.0246 38.4157 15.0246H28.0157V9.72053C30.2515 9.20038 31.6556 6.96453 31.1359 4.72835C30.6158 2.49253 28.3799 1.08844 26.1437 1.60816C23.9079 2.12831 22.5038 4.36416 23.0235 6.60035C23.3877 8.05635 24.4795 9.25225 25.9355 9.66825L25.9358 15.0246H15.5358C12.6757 15.0246 10.3358 17.3645 10.3358 20.2246V24.6448L5.5 24.6444V36.6044H10.3358V46.2244H43.6158V36.6044H48.6598L48.6597 24.6444ZM24.9997 5.66444C24.9997 4.52044 25.9355 3.58463 27.0795 3.58463C28.2235 3.58463 29.1594 4.52044 29.1594 5.66444C29.1594 6.80844 28.2235 7.74425 27.0795 7.74425C25.9355 7.74425 24.9997 6.80844 24.9997 5.66444ZM7.57973 34.5244V26.7244H10.3357V34.5244H7.57973ZM33.7357 44.1444H28.0155V37.3847H33.7357V44.1444ZM25.9357 44.1444H20.2155V37.3847H25.9357V44.1444ZM41.5357 44.1444H35.8155V35.3045H18.1355V44.1444H12.4154V20.2244C12.4154 18.5084 13.8195 17.1043 15.5355 17.1043H38.4155C40.1315 17.1043 41.5357 18.5083 41.5357 20.2244V44.1444ZM46.5797 34.5244H43.6155V26.7244H46.5797V34.5244Z" fill="white"/>
<path d="M20.8398 22.3047C18.5517 22.3047 16.6797 24.1767 16.6797 26.4648C16.6797 28.7529 18.5517 30.6249 20.8398 30.6249C23.1279 30.6249 24.9999 28.7529 24.9999 26.4648C24.9999 24.1767 23.1279 22.3047 20.8398 22.3047ZM20.8398 28.5446C19.6958 28.5446 18.76 27.6088 18.76 26.4648C18.76 25.3208 19.6958 24.385 20.8398 24.385C21.9838 24.385 22.9196 25.3208 22.9196 26.4648C22.9196 27.6088 21.9838 28.5446 20.8398 28.5446Z" fill="white"/>
<path d="M33.3193 22.3047C31.0312 22.3047 29.1592 24.1767 29.1592 26.4648C29.1592 28.7529 31.0312 30.6249 33.3193 30.6249C35.6074 30.6249 37.4794 28.7529 37.4794 26.4648C37.4794 24.1767 35.6074 22.3047 33.3193 22.3047ZM33.3193 28.5446C32.1753 28.5446 31.2395 27.6088 31.2395 26.4648C31.2395 25.3208 32.1753 24.385 33.3193 24.385C34.4633 24.385 35.3991 25.3208 35.3991 26.4648C35.3994 27.6088 34.4633 28.5446 33.3193 28.5446Z" fill="white"/>
<path d="M45.0801 10.3633L7.08008 48.3633" stroke="white" stroke-width="3" stroke-linecap="round"/>
</svg>
