<svg width="20" height="20" viewBox="0 0 20 20" fill="none" xmlns="http://www.w3.org/2000/svg">
    <path d="M17.1401 10.9384C17.1801 10.6384 17.2001 10.3284 17.2001 9.99844C17.2001 9.67844 17.1801 9.35844 17.1301 9.05844L19.1601 7.47844C19.3401 7.33844 19.3901 7.06844 19.2801 6.86844L17.3601 3.54844C17.2401 3.32844 16.9901 3.25844 16.7701 3.32844L14.3801 4.28844C13.8801 3.90844 13.3501 3.58844 12.7601 3.34844L12.4001 0.808437C12.3601 0.568437 12.1601 0.398438 11.9201 0.398438H8.08011C7.84011 0.398438 7.65011 0.568437 7.61011 0.808437L7.25011 3.34844C6.66011 3.58844 6.12011 3.91844 5.63011 4.28844L3.24011 3.32844C3.02011 3.24844 2.77011 3.32844 2.65011 3.54844L0.74011 6.86844C0.62011 7.07844 0.66011 7.33844 0.86011 7.47844L2.89011 9.05844C2.84011 9.35844 2.80011 9.68844 2.80011 9.99844C2.80011 10.3084 2.82011 10.6384 2.87011 10.9384L0.84011 12.5184C0.66011 12.6584 0.61011 12.9284 0.72011 13.1284L2.64011 16.4484C2.76011 16.6684 3.01011 16.7384 3.23011 16.6684L5.62011 15.7084C6.12011 16.0884 6.65011 16.4084 7.24011 16.6484L7.60011 19.1884C7.65011 19.4284 7.84011 19.5984 8.08011 19.5984H11.9201C12.1601 19.5984 12.3601 19.4284 12.3901 19.1884L12.7501 16.6484C13.3401 16.4084 13.8801 16.0884 14.3701 15.7084L16.7601 16.6684C16.9801 16.7484 17.2301 16.6684 17.3501 16.4484L19.2701 13.1284C19.3901 12.9084 19.3401 12.6584 19.1501 12.5184L17.1401 10.9384ZM10.0001 13.5984C8.02011 13.5984 6.40011 11.9784 6.40011 9.99844C6.40011 8.01844 8.02011 6.39844 10.0001 6.39844C11.9801 6.39844 13.6001 8.01844 13.6001 9.99844C13.6001 11.9784 11.9801 13.5984 10.0001 13.5984Z" fill="white"/>
</svg>
