<svg width="72" height="56" viewBox="0 0 72 56" fill="none" xmlns="http://www.w3.org/2000/svg">
<g filter="url(#filter0_d_2895_8726)">
<path d="M54.3768 9H15.6232C11.9558 9 9 12.0038 9 15.7307V37.3693C9 41.0962 11.9558 44.1 15.6232 44.1H54.3768C58.0442 44.1 61 41.0962 61 37.3693V15.6751C61 12.0038 58.0442 9 54.3768 9ZM58.3726 37.3693C58.3726 39.5943 56.5663 41.43 54.3768 41.43H15.6232C13.4337 41.43 11.6274 39.5943 11.6274 37.3693V15.6751C11.6274 13.4501 13.4337 11.6144 15.6232 11.6144H54.3768C56.5663 11.6144 58.3726 13.4501 58.3726 15.6751V37.3693Z" fill="url(#paint0_linear_2895_8726)"/>
<path d="M52.2934 17.0625H37.9524C37.2408 17.0625 36.6387 17.6744 36.6387 18.3975C36.6387 19.1207 37.2408 19.7326 37.9524 19.7326H52.2386C52.9502 19.7326 53.5523 19.1207 53.5523 18.3975C53.607 17.6744 53.0049 17.0625 52.2934 17.0625Z" fill="url(#paint1_linear_2895_8726)"/>
<path d="M52.2934 25.1914H37.9524C37.2408 25.1914 36.6387 25.8033 36.6387 26.5264C36.6387 27.2496 37.2408 27.8615 37.9524 27.8615H52.2387C52.9502 27.8615 53.5524 27.2496 53.5524 26.5264C53.5524 25.8033 53.005 25.1914 52.2934 25.1914Z" fill="url(#paint2_linear_2895_8726)"/>
<path d="M52.2934 33.3164H37.9524C37.2408 33.3164 36.6387 33.9283 36.6387 34.6514C36.6387 35.3746 37.2408 35.9865 37.9524 35.9865H52.2387C52.9502 35.9865 53.5524 35.3746 53.5524 34.6514C53.5524 33.9283 53.005 33.3164 52.2934 33.3164Z" fill="url(#paint3_linear_2895_8726)"/>
<path d="M27.8856 25.3599C28.8708 24.3586 29.4729 23.0236 29.4729 21.5217C29.4729 18.5179 27.0645 16.0703 24.1087 16.0703C21.1529 16.0703 18.7445 18.5179 18.7445 21.5217C18.7445 23.0236 19.3466 24.4142 20.3319 25.3599C17.8687 26.8618 16.1719 29.81 16.1719 33.1476C16.1719 34.0376 16.555 35.6507 19.0729 36.7076C20.4414 37.2639 22.2477 37.5976 24.1635 37.5976C28.1593 37.5976 32.1551 36.207 32.1551 33.1476C32.0456 29.81 30.3487 26.8618 27.8856 25.3599ZM21.3719 21.5217C21.3719 19.9641 22.5761 18.7404 24.1087 18.7404C25.6414 18.7404 26.8456 19.9641 26.8456 21.5217C26.8456 23.0792 25.6414 24.303 24.1087 24.303C22.5761 24.303 21.3719 23.0236 21.3719 21.5217ZM24.1087 34.9276C20.8245 34.9276 18.7992 33.8707 18.7992 33.1476C18.7992 29.7544 21.2077 26.973 24.1087 26.973C27.0645 26.973 29.4182 29.7544 29.4182 33.1476C29.4182 33.8707 27.3929 34.9276 24.1087 34.9276Z" fill="url(#paint4_linear_2895_8726)"/>
</g>
<defs>
<filter id="filter0_d_2895_8726" x="0" y="0" width="72" height="55.1016" filterUnits="userSpaceOnUse" color-interpolation-filters="sRGB">
<feFlood flood-opacity="0" result="BackgroundImageFix"/>
<feColorMatrix in="SourceAlpha" type="matrix" values="0 0 0 0 0 0 0 0 0 0 0 0 0 0 0 0 0 0 127 0" result="hardAlpha"/>
<feOffset dx="1" dy="1"/>
<feGaussianBlur stdDeviation="5"/>
<feComposite in2="hardAlpha" operator="out"/>
<feColorMatrix type="matrix" values="0 0 0 0 0.138021 0 0 0 0 0.223042 0 0 0 0 0.441667 0 0 0 0.45 0"/>
<feBlend mode="normal" in2="BackgroundImageFix" result="effect1_dropShadow_2895_8726"/>
<feBlend mode="normal" in="SourceGraphic" in2="effect1_dropShadow_2895_8726" result="shape"/>
</filter>
<linearGradient id="paint0_linear_2895_8726" x1="9" y1="9" x2="61" y2="9" gradientUnits="userSpaceOnUse">
<stop stop-color="#D7DFFF"/>
<stop offset="0.34375" stop-color="white"/>
<stop offset="0.625" stop-color="#D7DFFF"/>
<stop offset="0.927083" stop-color="white"/>
</linearGradient>
<linearGradient id="paint1_linear_2895_8726" x1="36.6387" y1="17.0625" x2="53.5558" y2="17.0625" gradientUnits="userSpaceOnUse">
<stop stop-color="#D7DFFF"/>
<stop offset="0.34375" stop-color="white"/>
<stop offset="0.625" stop-color="#D7DFFF"/>
<stop offset="0.927083" stop-color="white"/>
</linearGradient>
<linearGradient id="paint2_linear_2895_8726" x1="36.6387" y1="25.1914" x2="53.5524" y2="25.1914" gradientUnits="userSpaceOnUse">
<stop stop-color="#D7DFFF"/>
<stop offset="0.34375" stop-color="white"/>
<stop offset="0.625" stop-color="#D7DFFF"/>
<stop offset="0.927083" stop-color="white"/>
</linearGradient>
<linearGradient id="paint3_linear_2895_8726" x1="36.6387" y1="33.3164" x2="53.5524" y2="33.3164" gradientUnits="userSpaceOnUse">
<stop stop-color="#D7DFFF"/>
<stop offset="0.34375" stop-color="white"/>
<stop offset="0.625" stop-color="#D7DFFF"/>
<stop offset="0.927083" stop-color="white"/>
</linearGradient>
<linearGradient id="paint4_linear_2895_8726" x1="16.1719" y1="16.0703" x2="32.1551" y2="16.0703" gradientUnits="userSpaceOnUse">
<stop stop-color="#D7DFFF"/>
<stop offset="0.34375" stop-color="white"/>
<stop offset="0.625" stop-color="#D7DFFF"/>
<stop offset="0.927083" stop-color="white"/>
</linearGradient>
</defs>
</svg>
