<svg width="23" height="22" viewBox="0 0 23 22" fill="none" xmlns="http://www.w3.org/2000/svg">
<path fill-rule="evenodd" clip-rule="evenodd" d="M22.96 9.58844C22.96 4.37844 17.82 0.148438 11.5 0.148438C5.18004 0.148438 0.0400391 4.38844 0.0400391 9.58844C0.0400391 14.7884 5.18004 19.0284 11.5 19.0284C12.7853 19.0305 14.0644 18.8521 15.3 18.4984L21.43 21.3484C21.5254 21.3875 21.6302 21.398 21.7314 21.3784C21.8327 21.3589 21.926 21.3102 22 21.2384C22.0705 21.1632 22.116 21.0681 22.1303 20.9661C22.1446 20.8641 22.1271 20.7601 22.08 20.6684L19.8 16.0984C20.7702 15.3099 21.5559 14.3185 22.1018 13.1938C22.6477 12.0691 22.9407 10.8385 22.96 9.58844ZM9.5 14.6055H13.5C13.6989 14.6055 13.8897 14.5265 14.0303 14.3858C14.171 14.2451 14.25 14.0544 14.25 13.8555C14.25 13.6566 14.171 13.4658 14.0303 13.3251C13.8897 13.1845 13.6989 13.1055 13.5 13.1055H12.25V7.85547C12.25 7.39134 12.0656 6.94622 11.7374 6.61803C11.4092 6.28984 10.9641 6.10547 10.5 6.10547H9.5C9.30109 6.10547 9.11032 6.18449 8.96967 6.32514C8.82902 6.46579 8.75 6.65656 8.75 6.85547C8.75 7.05438 8.82902 7.24515 8.96967 7.3858C9.11032 7.52645 9.30109 7.60547 9.5 7.60547H10.5C10.5663 7.60547 10.6299 7.63181 10.6768 7.67869C10.7237 7.72558 10.75 7.78916 10.75 7.85547V13.1055H9.5C9.30109 13.1055 9.11032 13.1845 8.96967 13.3251C8.82902 13.4658 8.75 13.6566 8.75 13.8555C8.75 14.0544 8.82902 14.2451 8.96967 14.3858C9.11032 14.5265 9.30109 14.6055 9.5 14.6055ZM11.8271 3.14836C11.6396 2.96083 11.3852 2.85547 11.12 2.85547C10.8548 2.85547 10.6004 2.96083 10.4129 3.14836C10.2254 3.3359 10.12 3.59025 10.12 3.85547C10.12 4.12069 10.2254 4.37504 10.4129 4.56258C10.6004 4.75011 10.8548 4.85547 11.12 4.85547C11.3852 4.85547 11.6396 4.75011 11.8271 4.56258C12.0146 4.37504 12.12 4.12069 12.12 3.85547C12.12 3.59025 12.0146 3.3359 11.8271 3.14836Z" fill="#FF6B4E"/>
</svg>
