<svg width="38" height="38" viewBox="0 0 38 38" fill="none" xmlns="http://www.w3.org/2000/svg">
<path d="M35.179 11.9197C35.179 15.0455 32.6342 17.5905 29.5086 17.5905H26.0842C23.4205 17.5905 21.18 15.7426 20.5742 13.2613H17.4292C16.9286 15.3138 15.3132 16.9293 13.2608 17.43V20.5753C15.3132 21.0759 16.9286 22.6914 17.4292 24.744H20.5742C21.1772 22.2627 23.4177 20.4148 26.0842 20.4148H29.5086C32.6342 20.4148 35.179 22.9598 35.179 26.0856V29.5102C35.179 32.6361 32.6342 35.1811 29.5086 35.1811H26.0842C23.4205 35.1811 21.18 33.3332 20.5742 30.8519H17.4292C16.8262 33.3332 14.5857 35.1811 11.9193 35.1811H8.4949C5.36926 35.1811 2.82449 32.6361 2.82449 29.5102V26.0856C2.82449 23.4217 4.67222 21.1811 7.15336 20.5753V17.43C4.67222 16.827 2.82449 14.5863 2.82449 11.9197V8.49503C2.82449 5.36917 5.36926 2.82422 8.4949 2.82422H11.9193C14.583 2.82422 16.8235 4.67207 17.4292 7.1534H20.5742C21.1772 4.67207 23.4177 2.82422 26.0842 2.82422H29.5086C32.6342 2.82422 35.179 5.36917 35.179 8.49503V11.9197V11.9197Z" fill="#FF6B4E"/>
<path d="M38 11.9198V8.49516C38 3.81189 34.1911 0.00276625 29.5082 0.00276625H26.0839C23.1297 0.00276625 20.5241 1.51867 19.0028 3.81466C17.4787 1.51591 14.8731 0 11.9189 0H8.49454C3.80885 0 0 3.80913 0 8.49239V11.917C0 14.8714 1.5158 17.4772 3.81162 18.9986C1.5158 20.5228 0 23.1286 0 26.083V29.5076C0 34.1909 3.80885 38 8.49177 38H11.9161C14.8703 38 17.4759 36.4841 18.9972 34.1881C20.5186 36.4841 23.1242 38 26.0783 38H29.5027C34.1856 38 37.9945 34.1909 37.9945 29.5076V26.083C37.9945 23.1286 36.4787 20.5228 34.1829 19.0014C36.4787 17.4799 37.9945 14.8741 37.9945 11.9198H38ZM35.1786 11.9198C35.1786 15.0456 32.6339 17.5906 29.5082 17.5906H26.0839C23.4201 17.5906 21.1796 15.7427 20.5739 13.2614H17.4289C16.9282 15.314 15.3129 16.9295 13.2604 17.4302V20.5754C15.3129 21.0761 16.9282 22.6916 17.4289 24.7441H20.5739C21.1769 22.2628 23.4174 20.4149 26.0839 20.4149H29.5082C32.6339 20.4149 35.1786 22.9599 35.1786 26.0858V29.5104C35.1786 32.6362 32.6339 35.1812 29.5082 35.1812H26.0839C23.4201 35.1812 21.1796 33.3333 20.5739 30.852H17.4289C16.8259 33.3333 14.5854 35.1812 11.9189 35.1812H8.49454C5.3689 35.1812 2.82414 32.6362 2.82414 29.5104V26.0858C2.82414 23.4219 4.67186 21.1812 7.15301 20.5754V17.4302C4.67186 16.8271 2.82414 14.5864 2.82414 11.9198V8.49516C2.82414 5.36929 5.3689 2.82434 8.49454 2.82434H11.9189C14.5826 2.82434 16.8231 4.6722 17.4289 7.15353H20.5739C21.1769 4.6722 23.4174 2.82434 26.0839 2.82434H29.5082C32.6339 2.82434 35.1786 5.36929 35.1786 8.49516V11.9198V11.9198Z" fill="#2F0D30"/>
</svg>
