<svg width="25" height="24" viewBox="0 0 25 24" fill="none" xmlns="http://www.w3.org/2000/svg">
<g clip-path="url(#clip0_12014_12705)">
<path d="M20.12 18.5C19.1254 18.5 18.1716 18.1049 17.4683 17.4017C16.7651 16.6984 16.37 15.7446 16.37 14.75C16.37 13.7554 16.7651 12.8016 17.4683 12.0983C18.1716 11.3951 19.1254 11 20.12 11H22.38C22.4445 10.9974 22.5056 10.9699 22.5503 10.9233C22.5951 10.8767 22.62 10.8146 22.62 10.75V8.25C22.62 7.58696 22.3566 6.95107 21.8878 6.48223C21.4189 6.01339 20.783 5.75 20.12 5.75H3.12C2.45776 5.75263 1.82341 6.01687 1.35514 6.48514C0.886866 6.95341 0.622628 7.58777 0.619995 8.25V21.25C0.622628 21.9122 0.886866 22.5466 1.35514 23.0149C1.82341 23.4831 2.45776 23.7474 3.12 23.75H20.12C20.783 23.75 21.4189 23.4866 21.8878 23.0178C22.3566 22.5489 22.62 21.913 22.62 21.25V18.75C22.62 18.6854 22.5951 18.6233 22.5503 18.5767C22.5056 18.5301 22.4445 18.5026 22.38 18.5H20.12Z" fill="#FF6B4E"/>
<path d="M23.12 12.5H20.12C19.5233 12.5 18.951 12.7371 18.529 13.159C18.107 13.581 17.87 14.1533 17.87 14.75C17.87 15.3467 18.107 15.919 18.529 16.341C18.951 16.7629 19.5233 17 20.12 17H23.12C23.474 16.9406 23.7953 16.7569 24.0262 16.4821C24.2572 16.2072 24.3826 15.859 24.38 15.5V14C24.3826 13.641 24.2572 13.2928 24.0262 13.0179C23.7953 12.7431 23.474 12.5594 23.12 12.5Z" fill="#FF6B4E"/>
<path d="M20.31 1.18017C20.2724 1.02243 20.2034 0.873864 20.1072 0.743305C20.011 0.612747 19.8895 0.502859 19.75 0.420172C19.4663 0.253916 19.1282 0.207154 18.81 0.290172L5.94001 3.76017C5.8872 3.77378 5.84061 3.80496 5.80789 3.84858C5.77517 3.8922 5.75828 3.94567 5.76001 4.00017C5.76714 4.05946 5.79526 4.11424 5.83929 4.15459C5.88331 4.19495 5.94032 4.21821 6.00001 4.22017H20.77C20.8073 4.2194 20.8438 4.20996 20.8768 4.1926C20.9098 4.17525 20.9383 4.15045 20.96 4.12017C20.9879 4.08581 21.0052 4.04415 21.01 4.00017L20.31 1.18017Z" fill="#FF6B4E"/>
</g>
<defs>
<clipPath id="clip0_12014_12705">
<rect width="24" height="24" fill="white" transform="translate(0.5)"/>
</clipPath>
</defs>
</svg>
