<svg width="24" height="25" viewBox="0 0 24 25" fill="none" xmlns="http://www.w3.org/2000/svg">
<path d="M3.53045 10.7532L6.01882 11.785C5.73826 12.4934 5.51441 13.2228 5.34951 13.9667L5.25509 14.3956L8.82245 17.9651L9.25144 17.8729C9.99526 17.7081 10.7247 17.4842 11.4331 17.2036L12.4649 19.692C12.4854 19.7421 12.5297 19.7783 12.5828 19.7888C12.636 19.7991 12.6907 19.7821 12.7286 19.7433L14.288 18.1839C14.8026 17.6693 15.0756 16.9609 15.0389 16.234L14.9832 15.2323C17.8705 13.1 20.7919 9.36115 21.5879 2.83577C21.6337 2.50419 21.5219 2.17021 21.2858 1.93275C21.0498 1.69544 20.7165 1.58202 20.3846 1.62601C13.8611 2.42817 10.1202 5.35201 7.98812 8.23068L6.98842 8.17921C6.26314 8.1397 5.55495 8.40859 5.03859 8.91927L3.47913 10.4787C3.43514 10.5161 3.41449 10.5742 3.42511 10.6311C3.43573 10.6878 3.47583 10.7343 3.53045 10.7532ZM13.5351 6.95208C13.8975 6.59087 14.3884 6.38841 14.9001 6.38902C15.4118 6.38962 15.9023 6.59327 16.2638 6.95522C16.6253 7.31717 16.8285 7.80798 16.8285 8.31955C16.8285 8.83112 16.6253 9.32194 16.2638 9.68389C15.9023 10.0458 15.4118 10.2497 14.9 10.2501C14.3885 10.2507 13.8975 10.0482 13.5351 9.68703C13.1715 9.32477 12.9673 8.83277 12.9673 8.31955C12.9673 7.80633 13.1715 7.31433 13.5351 6.95208Z" fill="current"/>
<path d="M4.06978 20.547C3.47138 20.7154 2.64012 21.1097 2.3342 21.3531C2.29856 20.8256 2.3749 19.7761 2.68608 19.2602C2.99725 18.7443 3.5915 18.4748 3.58598 18.2323C3.5623 18.0902 3.4509 18.0003 3.17904 18.17C2.90719 18.3397 2.5455 18.215 2.5455 18.215C2.5455 18.215 2.81455 17.375 3.28181 16.9158C3.7761 16.43 4.85167 16.0092 5.92666 17.0842C7.00165 18.1592 6.68948 19.1388 6.07154 19.7055C5.45361 20.2723 4.81778 20.3365 4.06978 20.547Z" fill="current"/>
</svg>
