<svg width="18" height="20" viewBox="0 0 18 20" fill="none" xmlns="http://www.w3.org/2000/svg">
<path d="M0 19.8004V0.150391C0 0.150391 0.0208333 0.150391 0.0625 0.150391C0.104167 0.150391 0.166667 0.192057 0.25 0.275391L1.25 1.27539C1.33333 1.35872 1.41667 1.40039 1.5 1.40039C1.58333 1.40039 1.66667 1.35872 1.75 1.27539L2.75 0.275391C2.83333 0.192057 2.91667 0.150391 3 0.150391C3.08333 0.150391 3.16667 0.192057 3.25 0.275391L4.25 1.27539C4.33333 1.35872 4.41667 1.40039 4.5 1.40039C4.58333 1.40039 4.66667 1.35872 4.75 1.27539L5.75 0.275391C5.83333 0.192057 5.91667 0.150391 6 0.150391C6.08333 0.150391 6.16667 0.192057 6.25 0.275391L7.25 1.27539C7.33333 1.35872 7.41667 1.40039 7.5 1.40039C7.58333 1.40039 7.66667 1.35872 7.75 1.27539L8.75 0.275391C8.83333 0.192057 8.91667 0.150391 9 0.150391C9.08333 0.150391 9.16667 0.192057 9.25 0.275391L10.25 1.27539C10.3333 1.35872 10.4167 1.40039 10.5 1.40039C10.5833 1.40039 10.6667 1.35872 10.75 1.27539L11.75 0.275391C11.8333 0.192057 11.9167 0.150391 12 0.150391C12.0833 0.150391 12.1667 0.192057 12.25 0.275391L13.25 1.27539C13.3333 1.35872 13.4167 1.40039 13.5 1.40039C13.5833 1.40039 13.6667 1.35872 13.75 1.27539L14.75 0.275391C14.8333 0.192057 14.9167 0.150391 15 0.150391C15.0833 0.150391 15.1667 0.192057 15.25 0.275391L16.25 1.27539C16.3333 1.35872 16.4167 1.40039 16.5 1.40039C16.5833 1.40039 16.6667 1.35872 16.75 1.27539L17.75 0.275391C17.8333 0.192057 17.8958 0.150391 17.9375 0.150391C17.9792 0.150391 18 0.150391 18 0.150391V19.8004C18 19.8004 17.9792 19.8087 17.9375 19.8254C17.8958 19.8421 17.8333 19.8087 17.75 19.7254L16.75 18.7254C16.6667 18.6421 16.5833 18.6004 16.5 18.6004C16.4167 18.6004 16.3333 18.6421 16.25 18.7254L15.25 19.7254C15.1667 19.8087 15.0833 19.8504 15 19.8504C14.9167 19.8504 14.8333 19.8087 14.75 19.7254L13.75 18.7254C13.6667 18.6421 13.5833 18.6004 13.5 18.6004C13.4167 18.6004 13.3333 18.6421 13.25 18.7254L12.25 19.7254C12.1667 19.8087 12.0833 19.8504 12 19.8504C11.9167 19.8504 11.8333 19.8087 11.75 19.7254L10.75 18.7254C10.6667 18.6421 10.5833 18.6004 10.5 18.6004C10.4167 18.6004 10.3333 18.6421 10.25 18.7254L9.25 19.7254C9.16667 19.8087 9.08333 19.8504 9 19.8504C8.91667 19.8504 8.83333 19.8087 8.75 19.7254L7.75 18.7254C7.66667 18.6421 7.58333 18.6004 7.5 18.6004C7.41667 18.6004 7.33333 18.6421 7.25 18.7254L6.25 19.7254C6.16667 19.8087 6.08333 19.8504 6 19.8504C5.91667 19.8504 5.83333 19.8087 5.75 19.7254L4.75 18.7254C4.66667 18.6421 4.58333 18.6004 4.5 18.6004C4.41667 18.6004 4.33333 18.6421 4.25 18.7254L3.25 19.7254C3.16667 19.8087 3.08333 19.8504 3 19.8504C2.91667 19.8504 2.83333 19.8087 2.75 19.7254L1.75 18.7254C1.66667 18.6421 1.58333 18.6004 1.5 18.6004C1.41667 18.6004 1.33333 18.6421 1.25 18.7254L0.25 19.7254C0.166667 19.8087 0.104167 19.8421 0.0625 19.8254C0.0208333 19.8087 0 19.8004 0 19.8004ZM3.675 14.6004H14.425C14.6417 14.6004 14.8208 14.5296 14.9625 14.3879C15.1042 14.2462 15.175 14.0671 15.175 13.8504C15.175 13.6337 15.1042 13.4546 14.9625 13.3129C14.8208 13.1712 14.6417 13.1004 14.425 13.1004H3.675C3.45833 13.1004 3.27917 13.1712 3.1375 13.3129C2.99583 13.4546 2.925 13.6337 2.925 13.8504C2.925 14.0671 2.99583 14.2462 3.1375 14.3879C3.27917 14.5296 3.45833 14.6004 3.675 14.6004ZM3.675 10.7504H14.425C14.6417 10.7504 14.8208 10.6796 14.9625 10.5379C15.1042 10.3962 15.175 10.2171 15.175 10.0004C15.175 9.78372 15.1042 9.60456 14.9625 9.46289C14.8208 9.32122 14.6417 9.25039 14.425 9.25039H3.675C3.45833 9.25039 3.27917 9.32122 3.1375 9.46289C2.99583 9.60456 2.925 9.78372 2.925 10.0004C2.925 10.2171 2.99583 10.3962 3.1375 10.5379C3.27917 10.6796 3.45833 10.7504 3.675 10.7504ZM3.675 6.87539H14.425C14.6417 6.87539 14.8208 6.80456 14.9625 6.66289C15.1042 6.52122 15.175 6.34206 15.175 6.12539C15.175 5.90872 15.1042 5.72956 14.9625 5.58789C14.8208 5.44622 14.6417 5.37539 14.425 5.37539H3.675C3.45833 5.37539 3.27917 5.44622 3.1375 5.58789C2.99583 5.72956 2.925 5.90872 2.925 6.12539C2.925 6.34206 2.99583 6.52122 3.1375 6.66289C3.27917 6.80456 3.45833 6.87539 3.675 6.87539Z" fill="white"/>
</svg>
