<svg width="16" height="16" viewBox="0 0 16 16" fill="none" xmlns="http://www.w3.org/2000/svg">
<g clip-path="url(#clip0_5121_7542)">
<path d="M2.59908 10.9056C2.69564 10.809 2.8284 10.7527 2.96921 10.7527H15.7386C15.972 10.7527 16.0887 11.0343 15.9237 11.1993L13.4012 13.7218C13.3046 13.8183 13.1719 13.8746 13.0311 13.8746H0.261643C0.0283015 13.8746 -0.0883694 13.593 0.0765792 13.4281L2.59908 10.9056Z" fill="url(#paint0_linear_5121_7542)"/>
<path d="M2.59908 1.48613C2.69966 1.38958 2.83243 1.33325 2.96921 1.33325H15.7386C15.972 1.33325 16.0887 1.61487 15.9237 1.77982L13.4012 4.30232C13.3046 4.39888 13.1719 4.4552 13.0311 4.4552H0.261643C0.0283015 4.4552 -0.0883694 4.17358 0.0765792 4.00864L2.59908 1.48613Z" fill="url(#paint1_linear_5121_7542)"/>
<path d="M13.4012 6.16582C13.3046 6.06926 13.1719 6.01294 13.0311 6.01294H0.261643C0.0283015 6.01294 -0.0883694 6.29456 0.0765792 6.45951L2.59908 8.98201C2.69564 9.07857 2.8284 9.13489 2.96921 9.13489H15.7386C15.972 9.13489 16.0887 8.85327 15.9237 8.68832L13.4012 6.16582Z" fill="url(#paint2_linear_5121_7542)"/>
</g>
<defs>
<linearGradient id="paint0_linear_5121_7542" x1="14.5188" y1="-0.172347" x2="5.68133" y2="16.7549" gradientUnits="userSpaceOnUse">
<stop stop-color="#00FFA3"/>
<stop offset="1" stop-color="#DC1FFF"/>
</linearGradient>
<linearGradient id="paint1_linear_5121_7542" x1="10.6546" y1="-2.19107" x2="1.81711" y2="14.7362" gradientUnits="userSpaceOnUse">
<stop stop-color="#00FFA3"/>
<stop offset="1" stop-color="#DC1FFF"/>
</linearGradient>
<linearGradient id="paint2_linear_5121_7542" x1="12.5744" y1="-1.18798" x2="3.73692" y2="15.7393" gradientUnits="userSpaceOnUse">
<stop stop-color="#00FFA3"/>
<stop offset="1" stop-color="#DC1FFF"/>
</linearGradient>
<clipPath id="clip0_5121_7542">
<rect width="16" height="16" fill="white"/>
</clipPath>
</defs>
</svg>
