<svg width="24" height="24" viewBox="0 0 24 24" fill="none" xmlns="http://www.w3.org/2000/svg">
<g filter="url(#filter0_d_3700_849011)">
<path d="M22 5.85326C21.2645 6.16708 20.4744 6.37912 19.6438 6.47497C20.4911 5.98642 21.1412 5.21119 21.4477 4.28838C20.655 4.7413 19.7768 5.07039 18.8422 5.24681C18.0935 4.48007 17.0277 4 15.8474 4C13.582 4 11.7446 5.76929 11.7446 7.95248C11.7446 8.26122 11.7816 8.56147 11.8503 8.85155C8.43883 8.68615 5.41672 7.11279 3.39258 4.72264C3.04025 5.30788 2.83766 5.98642 2.83766 6.70906C2.83766 8.07971 3.56258 9.29005 4.66273 9.99828C3.98978 9.97707 3.35735 9.7998 2.80419 9.50379V9.55468C2.80419 11.469 4.21792 13.0661 6.09583 13.4291C5.75055 13.519 5.38853 13.5665 5.01506 13.5665C4.75081 13.5665 4.49273 13.5428 4.24258 13.497C4.76491 15.0661 6.27993 16.2094 8.07593 16.24C6.67101 17.3002 4.90144 17.9321 2.97948 17.9321C2.64829 17.9321 2.3215 17.9134 2 17.877C3.81626 18.9991 5.97252 19.6522 8.28909 19.6522C15.8378 19.6522 19.9644 13.6318 19.9644 8.4105C19.9644 8.24086 19.96 8.06953 19.9521 7.8999C20.7536 7.3418 21.4495 6.64715 21.9982 5.8558L22 5.85326Z" fill="#ffffff"/>
</g>
<defs>
<filter id="filter0_d_3700_849011" x="-5.82609" y="-3.82609" width="37.3913" height="33.0436" filterUnits="userSpaceOnUse" color-interpolation-filters="sRGB">
<feFlood flood-opacity="0" result="BackgroundImageFix"/>
<feColorMatrix in="SourceAlpha" type="matrix" values="0 0 0 0 0 0 0 0 0 0 0 0 0 0 0 0 0 0 127 0" result="hardAlpha"/>
<feOffset dx="0.869565" dy="0.869565"/>
<feGaussianBlur stdDeviation="4.34783"/>
<feComposite in2="hardAlpha" operator="out"/>
<feColorMatrix type="matrix" values="0 0 0 0 0.137255 0 0 0 0 0.223529 0 0 0 0 0.443137 0 0 0 0.25 0"/>
<feBlend mode="normal" in2="BackgroundImageFix" result="effect1_dropShadow_3700_849011"/>
<feBlend mode="normal" in="SourceGraphic" in2="effect1_dropShadow_3700_849011" result="shape"/>
</filter>
</defs>
</svg>
