<svg width="45" height="43" viewBox="0 0 45 43" fill="none" xmlns="http://www.w3.org/2000/svg">
<ellipse cx="22.721" cy="5.02517" rx="4" ry="4.02517" fill="#FF6B4E" stroke="white" stroke-width="2"/>
<path d="M14.8077 18.4153C14.8077 14.0449 18.3506 10.502 22.721 10.502C27.0914 10.502 30.6344 14.0449 30.6344 18.4153V27.9992H14.8077V18.4153Z" fill="#FF6B4E" stroke="white" stroke-width="2"/>
<ellipse cx="9.7287" cy="11.865" rx="4" ry="4.02517" fill="#FF6B4E" stroke="white" stroke-width="2"/>
<path d="M1.81537 25.2551C1.81537 20.8847 5.35829 17.3418 9.72871 17.3418C14.0991 17.3418 17.642 20.8847 17.642 25.2551V34.839H1.81537V25.2551Z" fill="#FF6B4E" stroke="white" stroke-width="2"/>
<ellipse cx="35.6979" cy="11.865" rx="4" ry="4.02517" fill="#FF6B4E" stroke="white" stroke-width="2"/>
<path d="M27.7846 25.2551C27.7846 20.8847 31.3275 17.3418 35.6979 17.3418C40.0684 17.3418 43.6113 20.8847 43.6113 25.2551V34.839H27.7846V25.2551Z" fill="#FF6B4E" stroke="white" stroke-width="2"/>
<ellipse cx="22.721" cy="18.5252" rx="4" ry="4.02517" fill="white" stroke="white" stroke-width="2"/>
<path d="M14.8077 31.9153C14.8077 27.5449 18.3506 24.002 22.721 24.002C27.0915 24.002 30.6344 27.5449 30.6344 31.9153V41.4992H14.8077V31.9153Z" fill="white" stroke="white" stroke-width="2"/>
</svg>
