<svg width="127" height="53" viewBox="0 0 127 53" fill="none" xmlns="http://www.w3.org/2000/svg">
    <path d="M27.5 10.2955C18.5505 10.2955 11.2955 17.5505 11.2955 26.5C11.2955 35.4495 18.5505 42.7045 27.5 42.7045H99.3636C108.313 42.7045 115.568 35.4495 115.568 26.5C115.568 17.5505 108.313 10.2955 99.3636 10.2955H27.5Z" fill="#569AFF" stroke="url(#paint0_linear_2968_9227)" stroke-width="1.40909"/>
    <path d="M36.4247 23.1882C35.2214 19.8944 32.1582 17.832 28.4985 17.832C23.7968 17.832 19.9854 21.7058 19.9854 26.4843C19.9854 31.2629 23.7968 35.1367 28.4985 35.1367C32.1017 35.1367 35.1821 33.1678 36.4247 29.9538" stroke="url(#paint1_linear_2968_9227)" stroke-width="1.44783" stroke-linecap="round"/>
    <path d="M32.0986 23.8867L27.7725 29.0781L25.1768 26.915" stroke="url(#paint2_linear_2968_9227)" stroke-width="1.44783" stroke-linecap="round" stroke-linejoin="round"/>
    <path d="M43.9955 19.929L47.6463 30.2811H47.7904L51.4413 19.929H53.0025L48.487 32.2266H46.9498L42.4343 19.929H43.9955ZM57.7341 32.4187C56.8454 32.4187 56.0789 32.2226 55.4344 31.8303C54.7939 31.4339 54.2995 30.8815 53.9512 30.173C53.6069 29.4604 53.4348 28.6318 53.4348 27.687C53.4348 26.7423 53.6069 25.9097 53.9512 25.1891C54.2995 24.4646 54.7838 23.9001 55.4043 23.4958C56.0288 23.0875 56.7574 22.8833 57.59 22.8833C58.0704 22.8833 58.5448 22.9634 59.0131 23.1235C59.4815 23.2836 59.9078 23.5438 60.2921 23.9041C60.6764 24.2604 60.9826 24.7328 61.2108 25.3212C61.439 25.9097 61.5531 26.6342 61.5531 27.4949V28.0954H54.4436V26.8704H60.112C60.112 26.35 60.0079 25.8857 59.7997 25.4773C59.5956 25.069 59.3033 24.7468 58.9231 24.5106C58.5468 24.2744 58.1024 24.1563 57.59 24.1563C57.0256 24.1563 56.5372 24.2964 56.1249 24.5766C55.7166 24.8529 55.4023 25.2131 55.1822 25.6575C54.962 26.1018 54.8519 26.5782 54.8519 27.0866V27.9032C54.8519 28.5998 54.972 29.1902 55.2122 29.6746C55.4564 30.155 55.7946 30.5212 56.227 30.7734C56.6593 31.0216 57.1617 31.1457 57.7341 31.1457C58.1064 31.1457 58.4427 31.0937 58.7429 30.9896C59.0471 30.8815 59.3094 30.7214 59.5295 30.5092C59.7497 30.2931 59.9198 30.0249 60.0399 29.7046L61.409 30.0889C61.2649 30.5533 61.0227 30.9616 60.6824 31.3139C60.3422 31.6621 59.9218 31.9343 59.4214 32.1305C58.9211 32.3226 58.3586 32.4187 57.7341 32.4187ZM63.7088 32.2266V23.0034H65.0778V24.3965H65.1739C65.342 23.9401 65.6463 23.5699 66.0866 23.2856C66.5269 23.0014 67.0233 22.8593 67.5758 22.8593C67.6798 22.8593 67.8099 22.8613 67.9661 22.8653C68.1222 22.8693 68.2403 22.8753 68.3203 22.8833V24.3244C68.2723 24.3124 68.1622 24.2944 67.9901 24.2704C67.8219 24.2424 67.6438 24.2284 67.4557 24.2284C67.0073 24.2284 66.607 24.3224 66.2547 24.5106C65.9065 24.6947 65.6302 24.9509 65.4261 25.2792C65.2259 25.6034 65.1259 25.9737 65.1259 26.39V32.2266H63.7088ZM70.0001 32.2266V23.0034H71.4172V32.2266H70.0001ZM70.7207 21.4662C70.4445 21.4662 70.2063 21.3722 70.0061 21.184C69.81 20.9959 69.7119 20.7697 69.7119 20.5055C69.7119 20.2413 69.81 20.0151 70.0061 19.827C70.2063 19.6388 70.4445 19.5447 70.7207 19.5447C70.9969 19.5447 71.2331 19.6388 71.4292 19.827C71.6294 20.0151 71.7295 20.2413 71.7295 20.5055C71.7295 20.7697 71.6294 20.9959 71.4292 21.184C71.2331 21.3722 70.9969 21.4662 70.7207 21.4662ZM78.1199 23.0034V24.2044H73.1481V23.0034H78.1199ZM74.6372 32.2266V21.7304C74.6372 21.202 74.7613 20.7617 75.0095 20.4094C75.2577 20.0571 75.5799 19.7929 75.9763 19.6168C76.3726 19.4407 76.7909 19.3526 77.2312 19.3526C77.5795 19.3526 77.8637 19.3806 78.0839 19.4367C78.3041 19.4927 78.4682 19.5447 78.5763 19.5928L78.1679 20.8177C78.0959 20.7937 77.9958 20.7637 77.8677 20.7277C77.7436 20.6916 77.5795 20.6736 77.3753 20.6736C76.907 20.6736 76.5687 20.7917 76.3606 21.0279C76.1564 21.2641 76.0543 21.6103 76.0543 22.0667V32.2266H74.6372ZM80.1059 32.2266V23.0034H81.523V32.2266H80.1059ZM80.8265 21.4662C80.5503 21.4662 80.3121 21.3722 80.112 21.184C79.9158 20.9959 79.8177 20.7697 79.8177 20.5055C79.8177 20.2413 79.9158 20.0151 80.112 19.827C80.3121 19.6388 80.5503 19.5447 80.8265 19.5447C81.1027 19.5447 81.3389 19.6388 81.5351 19.827C81.7352 20.0151 81.8353 20.2413 81.8353 20.5055C81.8353 20.7697 81.7352 20.9959 81.5351 21.184C81.3389 21.3722 81.1027 21.4662 80.8265 21.4662ZM87.9856 32.4187C87.0969 32.4187 86.3303 32.2226 85.6858 31.8303C85.0453 31.4339 84.5509 30.8815 84.2026 30.173C83.8584 29.4604 83.6862 28.6318 83.6862 27.687C83.6862 26.7423 83.8584 25.9097 84.2026 25.1891C84.5509 24.4646 85.0353 23.9001 85.6557 23.4958C86.2802 23.0875 87.0088 22.8833 87.8414 22.8833C88.3218 22.8833 88.7962 22.9634 89.2645 23.1235C89.7329 23.2836 90.1592 23.5438 90.5435 23.9041C90.9278 24.2604 91.2341 24.7328 91.4622 25.3212C91.6904 25.9097 91.8045 26.6342 91.8045 27.4949V28.0954H84.695V26.8704H90.3634C90.3634 26.35 90.2593 25.8857 90.0511 25.4773C89.847 25.069 89.5548 24.7468 89.1745 24.5106C88.7982 24.2744 88.3538 24.1563 87.8414 24.1563C87.277 24.1563 86.7886 24.2964 86.3763 24.5766C85.968 24.8529 85.6537 25.2131 85.4336 25.6575C85.2134 26.1018 85.1033 26.5782 85.1033 27.0866V27.9032C85.1033 28.5998 85.2234 29.1902 85.4636 29.6746C85.7078 30.155 86.046 30.5212 86.4784 30.7734C86.9107 31.0216 87.4131 31.1457 87.9856 31.1457C88.3578 31.1457 88.6941 31.0937 88.9943 30.9896C89.2986 30.8815 89.5608 30.7214 89.7809 30.5092C90.0011 30.2931 90.1712 30.0249 90.2913 29.7046L91.6604 30.0889C91.5163 30.5533 91.2741 30.9616 90.9338 31.3139C90.5936 31.6621 90.1732 31.9343 89.6729 32.1305C89.1725 32.3226 88.61 32.4187 87.9856 32.4187ZM97.4429 32.4187C96.6743 32.4187 95.9957 32.2246 95.4073 31.8363C94.8188 31.444 94.3585 30.8915 94.0262 30.179C93.694 29.4624 93.5278 28.6158 93.5278 27.639C93.5278 26.6703 93.694 25.8296 94.0262 25.1171C94.3585 24.4045 94.8208 23.8541 95.4133 23.4658C96.0058 23.0775 96.6903 22.8833 97.4669 22.8833C98.0674 22.8833 98.5417 22.9834 98.89 23.1836C99.2423 23.3797 99.5105 23.6039 99.6946 23.8561C99.8828 24.1043 100.029 24.3084 100.133 24.4686H100.253V19.929H101.67V32.2266H100.301V30.8095H100.133C100.029 30.9776 99.8808 31.1898 99.6886 31.446C99.4965 31.6982 99.2222 31.9243 98.866 32.1245C98.5097 32.3206 98.0353 32.4187 97.4429 32.4187ZM97.635 31.1457C98.2035 31.1457 98.6838 30.9976 99.0761 30.7014C99.4684 30.4011 99.7667 29.9868 99.9708 29.4584C100.175 28.926 100.277 28.3115 100.277 27.615C100.277 26.9265 100.177 26.324 99.9768 25.8076C99.7767 25.2872 99.4804 24.8829 99.0881 24.5947C98.6958 24.3024 98.2115 24.1563 97.635 24.1563C97.0346 24.1563 96.5342 24.3104 96.1339 24.6187C95.7375 24.9229 95.4393 25.3372 95.2392 25.8616C95.043 26.382 94.9449 26.9665 94.9449 27.615C94.9449 28.2715 95.045 28.868 95.2452 29.4044C95.4493 29.9368 95.7496 30.3611 96.1459 30.6774C96.5462 30.9896 97.0426 31.1457 97.635 31.1457Z" fill="white"/>
    <rect width="127" height="53" rx="26.5" fill="black" fill-opacity="0.5"/>
    <path d="M70 23H69V21C69 18.24 66.76 16 64 16C61.24 16 59 18.24 59 21V23H58C56.9 23 56 23.9 56 25V35C56 36.1 56.9 37 58 37H70C71.1 37 72 36.1 72 35V25C72 23.9 71.1 23 70 23ZM64 32C62.9 32 62 31.1 62 30C62 28.9 62.9 28 64 28C65.1 28 66 28.9 66 30C66 31.1 65.1 32 64 32ZM67.1 23H60.9V21C60.9 19.29 62.29 17.9 64 17.9C65.71 17.9 67.1 19.29 67.1 21V23Z" fill="white"/>
    <rect x="61" y="27" width="7" height="7" fill="white"/>
    <defs>
        <linearGradient id="paint0_linear_2968_9227" x1="12" y1="11" x2="114.864" y2="11" gradientUnits="userSpaceOnUse">
            <stop stop-color="#D7DFFF"/>
            <stop offset="0.34375" stop-color="white"/>
            <stop offset="0.625" stop-color="#D7DFFF"/>
            <stop offset="0.927083" stop-color="white"/>
        </linearGradient>
        <linearGradient id="paint1_linear_2968_9227" x1="19.9854" y1="17.832" x2="36.4247" y2="17.832" gradientUnits="userSpaceOnUse">
            <stop stop-color="#D7DFFF"/>
            <stop offset="0.34375" stop-color="white"/>
            <stop offset="0.625" stop-color="#D7DFFF"/>
            <stop offset="0.927083" stop-color="white"/>
        </linearGradient>
        <linearGradient id="paint2_linear_2968_9227" x1="25.1768" y1="23.8867" x2="32.0986" y2="23.8867" gradientUnits="userSpaceOnUse">
            <stop stop-color="#D7DFFF"/>
            <stop offset="0.34375" stop-color="white"/>
            <stop offset="0.625" stop-color="#D7DFFF"/>
            <stop offset="0.927083" stop-color="white"/>
        </linearGradient>
    </defs>
</svg>
