<svg width="24" height="24" viewBox="0 0 24 24" fill="none" xmlns="http://www.w3.org/2000/svg">
<g clip-path="url(#clip0_12014_12729)">
<path d="M23.43 10.5192C20.79 7.60918 16.43 4.51918 12 4.59918C7.56999 4.67918 3.20999 7.60918 0.56999 10.5192C0.194737 10.9286 -0.0134277 11.4638 -0.0134277 12.0192C-0.0134277 12.5746 0.194737 13.1098 0.56999 13.5192C2.32999 15.4192 6.73999 19.3992 12 19.3992C17.26 19.3992 21.66 15.3992 23.43 13.4692C23.7913 13.0628 23.9908 12.5379 23.9908 11.9942C23.9908 11.4504 23.7913 10.9256 23.43 10.5192ZM7.39999 11.9992C7.39999 11.0894 7.66978 10.2 8.17523 9.44355C8.68068 8.68709 9.39911 8.09749 10.2396 7.74933C11.0802 7.40117 12.0051 7.31007 12.8974 7.48757C13.7897 7.66506 14.6094 8.10316 15.2527 8.74649C15.896 9.38981 16.3341 10.2094 16.5116 11.1018C16.6891 11.9941 16.598 12.919 16.2498 13.7595C15.9017 14.6001 15.3121 15.3185 14.5556 15.8239C13.7991 16.3294 12.9098 16.5992 12 16.5992C10.78 16.5992 9.60997 16.1145 8.7473 15.2519C7.88463 14.3892 7.39999 13.2192 7.39999 11.9992Z" fill="#FF6B4E"/>
<path d="M12 14C13.1046 14 14 13.1046 14 12C14 10.8954 13.1046 10 12 10C10.8954 10 10 10.8954 10 12C10 13.1046 10.8954 14 12 14Z" fill="#FF6B4E"/>
</g>
<defs>
<clipPath id="clip0_12014_12729">
<rect width="24" height="24" fill="white"/>
</clipPath>
</defs>
</svg>
