<svg width="38" height="39" viewBox="0 0 38 39" fill="none" xmlns="http://www.w3.org/2000/svg">
<path d="M8 36.7699V33C8 31.3431 6.65685 30 5 30C3.34315 30 2 28.6569 2 27V6C2 3.79086 3.79086 2 6 2H32.5C34.7091 2 36.5 3.79086 36.5 6V26C36.5 28.2091 34.7091 30 32.5 30H17.0767C16.0635 30 15.0881 30.3845 14.3474 31.0758L8.16823 36.843C8.10431 36.9026 8 36.8573 8 36.7699Z" stroke="white" stroke-width="2.67" stroke-linecap="round"/>
<path d="M14 12.6516H17.1609C17.2171 11.4574 18.0741 10.6848 19.3665 10.6848C20.6309 10.6848 21.4879 11.4013 21.4879 12.4127C21.4879 13.4383 21.0524 13.9581 19.5773 14.8291C18.0179 15.7563 17.3857 16.7256 17.5402 18.5379L17.5543 19.1139H20.6169V18.5239C20.6169 17.4702 21.0383 16.9364 22.5696 16.0654C24.1852 15.1382 25 13.9721 25 12.3144C25 9.71543 22.8506 7.94531 19.5632 7.94531C16.0651 7.94531 14.0702 9.84186 14 12.6516ZM19.212 24.5085C20.5045 24.5085 21.3052 23.778 21.3052 22.5839C21.3052 21.3757 20.5045 20.6592 19.212 20.6592C17.9195 20.6592 17.1047 21.3757 17.1047 22.5839C17.1047 23.778 17.9195 24.5085 19.212 24.5085Z" fill="white"/>
</svg>
